<svg xmlns="http://www.w3.org/2000/svg" xmlns:xlink="http://www.w3.org/1999/xlink" width="500" zoomAndPan="magnify" viewBox="0 0 375 374.999991" height="500" preserveAspectRatio="xMidYMid meet" version="1.0"><defs><g/></defs><g fill="#00558a" fill-opacity="1"><g transform="translate(12.034287, 197.622645)"><g><path d="M 8.296875 -22.25 C 7.984375 -22.21875 7.671875 -22.21875 7.34375 -22.1875 C 6.71875 -22.09375 6.078125 -22.015625 5.546875 -21.671875 C 5.359375 -21.578125 5.140625 -21.484375 4.9375 -21.359375 C 4.3125 -20.953125 3.671875 -20.53125 3.203125 -19.90625 C 2.75 -19.296875 2.3125 -18.734375 2.03125 -18.0625 C 1.578125 -17.046875 1.359375 -15.96875 1.421875 -14.859375 C 1.453125 -14.421875 1.515625 -13.96875 1.609375 -13.5625 C 1.671875 -13.21875 1.8125 -12.859375 1.96875 -12.515625 C 2.1875 -12.046875 2.4375 -11.59375 2.8125 -11.25 C 3.109375 -11 3.390625 -10.703125 3.703125 -10.453125 C 4.03125 -10.203125 4.375 -9.921875 4.71875 -9.703125 C 5.421875 -9.3125 6.109375 -8.96875 6.84375 -8.65625 C 7.671875 -8.328125 8.390625 -7.828125 9.125 -7.28125 C 9.34375 -7.09375 9.53125 -6.875 9.671875 -6.59375 C 9.796875 -6.28125 9.828125 -5.953125 9.765625 -5.609375 C 9.765625 -5.484375 9.734375 -5.390625 9.671875 -5.265625 C 9.40625 -4.75 9 -4.46875 8.53125 -4.28125 C 8.078125 -4.09375 7.609375 -3.953125 7.125 -4.09375 C 6.53125 -4.25 5.890625 -4.4375 5.359375 -4.78125 C 5 -5 4.6875 -5.296875 4.34375 -5.546875 C 4.09375 -5.734375 3.796875 -5.859375 3.484375 -5.921875 C 3.171875 -5.984375 2.859375 -5.984375 2.59375 -5.734375 C 2.3125 -5.484375 2.03125 -5.234375 1.78125 -4.96875 C 1.578125 -4.8125 1.484375 -4.59375 1.421875 -4.34375 C 1.234375 -3.671875 1.234375 -3.046875 1.578125 -2.46875 C 1.9375 -1.875 2.40625 -1.390625 3.015625 -1.015625 C 3.140625 -0.921875 3.296875 -0.828125 3.421875 -0.734375 C 4 -0.3125 4.65625 -0.03125 5.328125 0.1875 C 5.703125 0.28125 6.140625 0.375 6.5625 0.4375 C 7.25 0.53125 7.953125 0.53125 8.65625 0.40625 C 9 0.3125 9.34375 0.28125 9.671875 0.15625 C 10.421875 -0.125 11.09375 -0.609375 11.71875 -1.078125 C 12.234375 -1.484375 12.578125 -2 12.953125 -2.5 C 13.75 -3.578125 14.125 -4.78125 14.234375 -6.078125 C 14.296875 -7.09375 14.125 -8.046875 13.78125 -9 C 13.5 -9.640625 13.15625 -10.234375 12.578125 -10.671875 C 12.265625 -10.9375 12.015625 -11.21875 11.6875 -11.46875 C 11.09375 -11.984375 10.390625 -12.328125 9.703125 -12.671875 C 9.34375 -12.828125 8.96875 -12.953125 8.625 -13.15625 C 7.890625 -13.53125 7.1875 -13.9375 6.5625 -14.453125 C 6.34375 -14.609375 6.140625 -14.828125 6.015625 -15.109375 C 5.859375 -15.4375 5.828125 -15.75 5.859375 -16.0625 C 5.890625 -16.21875 5.890625 -16.375 5.984375 -16.515625 C 6.140625 -16.703125 6.25 -16.890625 6.4375 -17.046875 C 6.6875 -17.296875 6.96875 -17.484375 7.34375 -17.484375 C 7.796875 -17.515625 8.234375 -17.515625 8.6875 -17.484375 C 9.21875 -17.421875 9.765625 -17.296875 10.234375 -16.953125 C 10.359375 -16.828125 10.515625 -16.734375 10.703125 -16.671875 C 11.09375 -16.578125 11.5 -16.609375 11.875 -16.765625 C 12.296875 -16.890625 12.578125 -17.234375 12.859375 -17.59375 C 13.03125 -17.8125 13.1875 -18.03125 13.21875 -18.34375 C 13.28125 -18.734375 13.28125 -19.109375 13.21875 -19.515625 C 13.1875 -19.703125 13.0625 -19.90625 12.921875 -20.0625 C 12.546875 -20.5 12.109375 -20.8125 11.65625 -21.140625 C 11.03125 -21.609375 10.328125 -21.890625 9.5625 -22.046875 C 9.15625 -22.1875 8.75 -22.25 8.296875 -22.25 Z M 8.296875 -22.25 "/></g></g></g><g fill="#00558a" fill-opacity="1"><g transform="translate(30.540764, 197.622645)"><g><path d="M 5.421875 -18.5 C 5.421875 -19.390625 5.453125 -20 5.421875 -20.625 C 5.421875 -21.046875 5.296875 -21.453125 5.0625 -21.828125 C 4.9375 -22.046875 4.75 -22.1875 4.53125 -22.1875 C 3.890625 -22.21875 3.265625 -22.21875 2.625 -22.25 C 2.34375 -22.25 2.125 -22.125 2 -21.890625 C 1.75 -21.515625 1.515625 -21.140625 1.453125 -20.6875 C 1.390625 -20.25 1.359375 -19.84375 1.359375 -19.390625 C 1.265625 -17.875 1.296875 -16.34375 1.390625 -14.796875 C 1.453125 -13.9375 1.484375 -13.09375 1.484375 -12.234375 C 1.484375 -10.421875 1.484375 -8.625 1.484375 -6.78125 C 1.484375 -6.28125 1.453125 -5.734375 1.453125 -5.203125 C 1.421875 -4.125 1.359375 -3.046875 1.328125 -1.9375 C 1.328125 -1.453125 1.359375 -1.015625 1.578125 -0.609375 C 1.671875 -0.375 1.84375 -0.15625 2 0 C 2.3125 0.3125 2.75 0.375 3.171875 0.375 C 3.359375 0.40625 3.578125 0.375 3.765625 0.375 C 4.21875 0.375 4.5625 0.21875 4.8125 -0.15625 C 4.90625 -0.3125 5 -0.4375 5.0625 -0.609375 C 5.171875 -0.765625 5.234375 -0.953125 5.234375 -1.109375 C 5.296875 -1.390625 5.296875 -1.71875 5.328125 -2 C 5.359375 -2.625 5.390625 -3.234375 5.421875 -3.859375 C 5.453125 -4.5625 5.453125 -5.265625 5.484375 -5.921875 C 5.515625 -7.15625 5.578125 -8.359375 5.609375 -9.5625 C 5.609375 -11.125 5.609375 -12.640625 5.609375 -14.203125 C 5.578125 -14.953125 5.578125 -15.71875 5.546875 -16.515625 C 5.515625 -17.265625 5.453125 -18.03125 5.421875 -18.5 Z M 5.421875 -18.5 "/></g></g></g><g fill="#00558a" fill-opacity="1"><g transform="translate(39.667502, 197.622645)"><g><path d="M 1.203125 -11.875 C 1.234375 -10.015625 1.234375 -8.171875 1.265625 -6.34375 C 1.265625 -6.140625 1.296875 -5.953125 1.296875 -5.765625 C 1.359375 -4.84375 1.421875 -3.890625 1.484375 -2.984375 C 1.515625 -2.46875 1.515625 -2 1.546875 -1.484375 C 1.578125 -1.359375 1.578125 -1.234375 1.609375 -1.109375 C 1.78125 -0.609375 2.125 -0.25 2.5625 0 C 2.625 0.0625 2.75 0.0625 2.8125 0.0625 C 3.109375 0.09375 3.390625 0.09375 3.671875 0.09375 C 4.5 0.09375 5.328125 0.09375 6.140625 0.0625 C 6.5 0.0625 6.8125 0.03125 7.125 0.03125 C 7.671875 0 8.203125 0 8.75 -0.0625 C 9.15625 -0.09375 9.53125 -0.09375 9.921875 -0.1875 C 10.265625 -0.25 10.578125 -0.40625 10.90625 -0.53125 C 11.65625 -0.890625 12.421875 -1.265625 13.0625 -1.875 C 13.28125 -2.0625 13.53125 -2.25 13.71875 -2.5 C 14.265625 -3.203125 14.734375 -3.953125 15.078125 -4.78125 C 15.234375 -5.203125 15.4375 -5.609375 15.5 -6.046875 C 15.5 -6.203125 15.53125 -6.375 15.59375 -6.5625 C 15.78125 -7.34375 16.03125 -8.140625 16.09375 -8.96875 C 16.15625 -9.671875 16.1875 -10.390625 16.21875 -11.09375 C 16.25 -12.296875 16.125 -13.46875 16.09375 -14.671875 C 16.09375 -14.703125 16.09375 -14.765625 16.09375 -14.828125 C 16 -15.375 15.9375 -15.875 15.875 -16.421875 C 15.84375 -16.578125 15.78125 -16.765625 15.75 -16.921875 C 15.6875 -17.078125 15.65625 -17.234375 15.59375 -17.390625 C 15.4375 -17.8125 15.3125 -18.25 15.109375 -18.625 C 14.953125 -19.015625 14.734375 -19.359375 14.515625 -19.703125 C 14.203125 -20.21875 13.78125 -20.625 13.28125 -20.984375 C 12.640625 -21.421875 11.921875 -21.671875 11.21875 -21.953125 C 11.15625 -21.984375 11.0625 -21.984375 11 -22.015625 C 10.78125 -22.046875 10.546875 -22.125 10.328125 -22.15625 C 9.953125 -22.21875 9.5625 -22.3125 9.1875 -22.34375 C 8.421875 -22.40625 7.640625 -22.4375 6.84375 -22.46875 C 6.25 -22.5 5.640625 -22.53125 5.03125 -22.46875 C 4.4375 -22.40625 3.796875 -22.34375 3.203125 -22.34375 C 2.5625 -22.375 1.78125 -21.765625 1.640625 -21.109375 C 1.546875 -20.5 1.359375 -19.9375 1.359375 -19.328125 C 1.328125 -18.796875 1.234375 -18.25 1.234375 -17.71875 C 1.203125 -15.75 1.203125 -13.8125 1.203125 -11.875 Z M 6.3125 -10.515625 C 6.3125 -11.3125 6.28125 -12.078125 6.28125 -12.859375 C 6.28125 -13.3125 6.28125 -13.75 6.28125 -14.203125 C 6.3125 -14.484375 6.3125 -14.796875 6.34375 -15.109375 C 6.375 -15.4375 6.4375 -15.75 6.5 -16.0625 C 6.53125 -16.21875 6.53125 -16.375 6.5625 -16.546875 C 6.625 -16.796875 6.71875 -17.046875 6.78125 -17.265625 C 6.84375 -17.484375 7.03125 -17.625 7.25 -17.59375 C 7.515625 -17.5625 7.796875 -17.5625 8.046875 -17.484375 C 8.421875 -17.390625 8.8125 -17.234375 9.1875 -17.109375 C 9.25 -17.109375 9.3125 -17.046875 9.34375 -17.015625 C 10.078125 -16.375 10.703125 -15.71875 11.0625 -14.796875 C 11.34375 -14 11.46875 -13.21875 11.5 -12.390625 C 11.53125 -11.0625 11.40625 -9.796875 11.09375 -8.5 C 10.90625 -7.734375 10.578125 -7.03125 10.109375 -6.4375 C 9.921875 -6.203125 9.734375 -6.046875 9.5 -5.921875 C 8.875 -5.609375 8.203125 -5.328125 7.515625 -5.109375 C 7.34375 -5.0625 7.1875 -5.0625 7.0625 -5.0625 C 6.65625 -5.140625 6.4375 -5.390625 6.40625 -5.765625 C 6.40625 -6.28125 6.40625 -6.8125 6.40625 -7.3125 C 6.375 -8.390625 6.34375 -9.4375 6.3125 -10.515625 Z M 6.3125 -10.515625 "/></g></g></g><g fill="#00558a" fill-opacity="1"><g transform="translate(58.934505, 197.622645)"><g><path d="M 9.703125 -3.953125 C 9.703125 -3.953125 9.703125 -4 9.703125 -4 C 9.28125 -4 8.90625 -4 8.5 -4 C 8.171875 -4.03125 7.859375 -4.03125 7.546875 -4.0625 C 7.15625 -4.125 6.84375 -4.3125 6.8125 -4.75 C 6.78125 -5 6.71875 -5.296875 6.71875 -5.546875 C 6.6875 -6.34375 6.6875 -7.09375 6.78125 -7.890625 C 6.8125 -8.421875 6.78125 -8.96875 6.90625 -9.5 C 6.96875 -9.765625 7.0625 -9.921875 7.34375 -9.953125 C 7.671875 -9.984375 8.015625 -10.046875 8.359375 -10.078125 C 8.875 -10.109375 9.40625 -10.140625 9.953125 -10.203125 C 10.015625 -10.203125 10.078125 -10.203125 10.140625 -10.234375 C 10.421875 -10.234375 10.703125 -10.296875 11 -10.296875 C 11.34375 -10.296875 11.65625 -10.421875 11.953125 -10.640625 C 12.328125 -10.9375 12.515625 -11.3125 12.515625 -11.8125 C 12.515625 -12.078125 12.515625 -12.296875 12.453125 -12.546875 C 12.390625 -12.765625 12.390625 -12.984375 12.328125 -13.21875 C 12.203125 -13.8125 11.71875 -14.234375 11.09375 -14.234375 C 10.453125 -14.265625 9.796875 -14.203125 9.125 -14.265625 C 9 -14.265625 8.875 -14.265625 8.75 -14.265625 C 8.390625 -14.265625 8.015625 -14.234375 7.671875 -14.234375 C 7.546875 -14.234375 7.453125 -14.234375 7.34375 -14.265625 C 7.03125 -14.359375 6.90625 -14.578125 6.84375 -14.890625 C 6.84375 -14.984375 6.84375 -15.078125 6.84375 -15.171875 C 6.84375 -15.59375 6.84375 -16 6.875 -16.421875 C 6.875 -16.765625 7.0625 -16.984375 7.421875 -17.046875 C 7.671875 -17.109375 7.953125 -17.171875 8.203125 -17.203125 C 8.359375 -17.234375 8.53125 -17.234375 8.65625 -17.265625 C 9.0625 -17.359375 9.46875 -17.359375 9.890625 -17.359375 C 10.515625 -17.359375 11.15625 -17.296875 11.75 -17.453125 C 11.84375 -17.453125 11.921875 -17.453125 12.015625 -17.453125 C 12.328125 -17.484375 12.640625 -17.453125 12.921875 -17.5625 C 13.3125 -17.6875 13.625 -17.90625 13.90625 -18.15625 C 14.0625 -18.3125 14.171875 -18.46875 14.203125 -18.703125 C 14.359375 -19.515625 14.328125 -20.34375 14.125 -21.171875 C 14.0625 -21.515625 13.875 -21.828125 13.53125 -21.984375 C 13.40625 -22.046875 13.25 -22.125 13.09375 -22.15625 C 12.828125 -22.21875 12.578125 -22.3125 12.328125 -22.3125 C 11.75 -22.3125 11.1875 -22.3125 10.609375 -22.25 C 9.640625 -22.1875 8.65625 -22.21875 7.671875 -22.25 C 6.96875 -22.3125 6.28125 -22.34375 5.578125 -22.375 C 5.03125 -22.40625 4.5 -22.40625 3.953125 -22.4375 C 3.609375 -22.46875 3.265625 -22.40625 2.921875 -22.3125 C 2.65625 -22.21875 2.46875 -22.046875 2.34375 -21.828125 C 2.09375 -21.390625 1.96875 -20.90625 1.8125 -20.4375 C 1.75 -20.21875 1.671875 -20.03125 1.671875 -19.796875 C 1.609375 -19.296875 1.546875 -18.828125 1.546875 -18.34375 C 1.578125 -16.671875 1.609375 -15.015625 1.671875 -13.34375 C 1.671875 -13.28125 1.671875 -13.1875 1.671875 -13.09375 C 1.71875 -12.109375 1.8125 -11.09375 1.71875 -10.078125 C 1.640625 -9.59375 1.671875 -9.09375 1.640625 -8.625 C 1.578125 -7.390625 1.546875 -6.140625 1.484375 -4.90625 C 1.421875 -4 1.390625 -3.078125 1.328125 -2.125 C 1.265625 -1.515625 1.359375 -0.984375 1.546875 -0.4375 C 1.578125 -0.34375 1.609375 -0.28125 1.671875 -0.21875 C 1.90625 -0.03125 2.15625 0.125 2.40625 0.3125 C 2.4375 0.3125 2.5 0.3125 2.53125 0.3125 C 3.203125 0.34375 3.859375 0.375 4.53125 0.375 C 5.640625 0.34375 6.75 0.3125 7.890625 0.28125 C 8.359375 0.25 8.84375 0.3125 9.34375 0.28125 C 10.046875 0.28125 10.78125 0.25 11.46875 0.21875 C 11.75 0.21875 12.015625 0.25 12.265625 0.25 C 12.703125 0.25 13.125 0.25 13.5625 0.21875 C 13.8125 0.1875 14.03125 0.0625 14.171875 -0.1875 C 14.265625 -0.4375 14.390625 -0.703125 14.421875 -0.953125 C 14.546875 -1.78125 14.515625 -2.5625 14.171875 -3.359375 C 13.9375 -3.859375 13.53125 -4.125 12.953125 -4.09375 C 11.875 -4.0625 10.78125 -4.03125 9.703125 -3.953125 Z M 9.703125 -3.953125 "/></g></g></g><g fill="#00558a" fill-opacity="1"><g transform="translate(77.187479, 197.622645)"><g/></g></g><g fill="#00558a" fill-opacity="1"><g transform="translate(85.680447, 197.622645)"><g><path d="M 16.578125 -11.25 C 16.578125 -11.984375 16.546875 -12.734375 16.375 -13.46875 C 16.375 -13.59375 16.34375 -13.71875 16.34375 -13.84375 C 16.3125 -14.296875 16.28125 -14.765625 16.21875 -15.234375 C 16.15625 -15.75 15.96875 -16.21875 15.84375 -16.734375 C 15.59375 -17.59375 15.171875 -18.34375 14.703125 -19.109375 C 14.265625 -19.90625 13.625 -20.5 12.890625 -21.015625 C 12.203125 -21.515625 11.40625 -21.703125 10.578125 -21.828125 C 9.984375 -21.921875 9.375 -21.953125 8.75 -21.953125 C 7.796875 -21.984375 6.96875 -21.640625 6.140625 -21.234375 C 6.078125 -21.203125 6.046875 -21.171875 5.984375 -21.109375 C 5.828125 -20.984375 5.671875 -20.84375 5.515625 -20.75 C 4.90625 -20.34375 4.40625 -19.875 4 -19.265625 C 3.359375 -18.3125 2.890625 -17.265625 2.46875 -16.1875 C 2.1875 -15.40625 2 -14.578125 1.78125 -13.75 C 1.546875 -12.890625 1.515625 -12.046875 1.359375 -11.1875 C 1.265625 -10.578125 1.296875 -9.984375 1.328125 -9.34375 C 1.359375 -8.359375 1.515625 -7.390625 1.71875 -6.40625 C 1.875 -5.765625 2 -5.140625 2.125 -4.5 C 2.34375 -3.453125 2.8125 -2.53125 3.453125 -1.671875 C 3.796875 -1.203125 4.15625 -0.734375 4.65625 -0.40625 C 5.203125 -0.0625 5.765625 0.21875 6.34375 0.46875 C 6.8125 0.671875 7.34375 0.734375 7.859375 0.765625 C 8.390625 0.796875 8.90625 0.796875 9.4375 0.765625 C 10.015625 0.765625 10.578125 0.671875 11.15625 0.4375 C 11.46875 0.3125 11.78125 0.1875 12.109375 0.03125 C 12.140625 0 12.203125 -0.03125 12.234375 -0.0625 C 12.453125 -0.1875 12.671875 -0.1875 12.921875 -0.15625 C 13.0625 -0.125 13.15625 -0.0625 13.25 0.0625 C 13.3125 0.1875 13.375 0.28125 13.46875 0.40625 C 13.78125 0.859375 14.09375 1.328125 14.640625 1.578125 C 14.890625 1.75 15.203125 1.75 15.5 1.75 C 15.71875 1.75 15.84375 1.578125 16 1.453125 C 16.515625 1.140625 16.796875 0.640625 17.109375 0.125 C 17.203125 0 17.265625 -0.15625 17.328125 -0.28125 C 17.453125 -0.703125 17.421875 -1.109375 17.359375 -1.515625 C 17.359375 -1.78125 17.265625 -1.96875 17.078125 -2.1875 C 16.765625 -2.53125 16.453125 -2.953125 16.15625 -3.359375 C 15.9375 -3.640625 15.8125 -3.953125 15.8125 -4.3125 C 15.78125 -4.6875 15.8125 -5.109375 15.875 -5.484375 C 16.09375 -6.40625 16.25 -7.3125 16.3125 -8.234375 C 16.34375 -8.625 16.375 -9 16.421875 -9.34375 C 16.484375 -9.984375 16.515625 -10.609375 16.578125 -11.25 Z M 5.734375 -10.234375 C 5.765625 -11.34375 5.796875 -12.421875 6.015625 -13.5 C 6.171875 -14.296875 6.34375 -15.078125 6.59375 -15.84375 C 6.71875 -16.1875 6.84375 -16.546875 7.15625 -16.796875 C 7.640625 -17.203125 8.203125 -17.421875 8.8125 -17.390625 C 9.40625 -17.390625 9.984375 -17.234375 10.515625 -17.046875 C 11.03125 -16.828125 11.375 -16.421875 11.625 -15.90625 C 11.984375 -15.203125 12.140625 -14.484375 12.265625 -13.71875 C 12.453125 -12.703125 12.484375 -11.65625 12.484375 -10.640625 C 12.453125 -10.171875 12.328125 -9.734375 12.203125 -9.25 C 12.109375 -9 11.921875 -8.9375 11.6875 -9.125 C 11.5625 -9.21875 11.40625 -9.25 11.25 -9.28125 C 10.109375 -9.40625 9.3125 -8.625 9 -7.921875 C 8.78125 -7.453125 8.65625 -6.96875 8.6875 -6.46875 C 8.6875 -6.34375 8.71875 -6.203125 8.75 -6.109375 C 8.875 -5.703125 8.96875 -5.296875 9.21875 -4.9375 C 9.375 -4.71875 9.375 -4.40625 9.28125 -4.15625 C 9.21875 -4 9.09375 -3.890625 8.9375 -3.859375 C 8.8125 -3.859375 8.71875 -3.859375 8.59375 -3.859375 C 8.234375 -3.921875 7.890625 -4.0625 7.578125 -4.25 C 7.09375 -4.46875 6.90625 -4.875 6.6875 -5.296875 C 6.140625 -6.375 5.953125 -7.546875 5.796875 -8.71875 C 5.765625 -9.1875 5.765625 -9.734375 5.734375 -10.234375 Z M 5.734375 -10.234375 "/></g></g></g><g fill="#00558a" fill-opacity="1"><g transform="translate(107.355759, 197.622645)"><g><path d="M 14.796875 -14.359375 C 14.828125 -14.359375 14.828125 -14.359375 14.828125 -14.359375 C 14.828125 -15.8125 14.828125 -17.234375 14.828125 -18.703125 C 14.828125 -19.203125 14.828125 -19.671875 14.859375 -20.1875 C 14.890625 -20.65625 14.734375 -21.046875 14.515625 -21.453125 C 14.359375 -21.671875 14.171875 -21.859375 13.90625 -21.890625 C 13.625 -21.984375 13.34375 -22.046875 13.09375 -22.015625 C 12.734375 -21.984375 12.421875 -21.859375 12.109375 -21.765625 C 12.046875 -21.765625 11.984375 -21.703125 11.921875 -21.640625 C 11.46875 -21.046875 11.1875 -20.375 11.125 -19.609375 C 11.0625 -19.078125 11.03125 -18.53125 11 -18 C 10.90625 -16.890625 10.78125 -15.8125 10.703125 -14.703125 C 10.609375 -12.796875 10.578125 -10.9375 10.484375 -9.03125 C 10.421875 -7.828125 10.265625 -6.6875 9.890625 -5.546875 C 9.734375 -5 9.5 -4.5 9.1875 -4.0625 C 9.03125 -3.796875 8.8125 -3.640625 8.5625 -3.546875 C 8.109375 -3.390625 7.671875 -3.390625 7.21875 -3.515625 C 7.125 -3.546875 7.03125 -3.609375 6.9375 -3.640625 C 6.375 -4.09375 5.984375 -4.65625 5.734375 -5.296875 C 5.484375 -5.921875 5.359375 -6.59375 5.328125 -7.25 C 5.265625 -8.171875 5.234375 -9.125 5.234375 -10.046875 C 5.203125 -11.1875 5.234375 -12.328125 5.234375 -13.46875 C 5.234375 -13.71875 5.265625 -13.96875 5.265625 -14.234375 C 5.296875 -14.578125 5.328125 -14.921875 5.328125 -15.265625 C 5.328125 -15.46875 5.328125 -15.625 5.328125 -15.8125 C 5.359375 -16.953125 5.484375 -18.09375 5.421875 -19.234375 C 5.421875 -19.796875 5.359375 -20.375 5.171875 -20.875 C 5.0625 -21.109375 4.96875 -21.328125 4.78125 -21.515625 C 4.375 -21.984375 3.484375 -22.09375 2.890625 -21.765625 C 2.40625 -21.515625 2.0625 -21.109375 1.96875 -20.5625 C 1.8125 -20 1.671875 -19.421875 1.546875 -18.859375 C 1.515625 -18.765625 1.484375 -18.625 1.484375 -18.5 C 1.484375 -18.09375 1.453125 -17.6875 1.453125 -17.265625 C 1.390625 -15.40625 1.359375 -13.5625 1.296875 -11.71875 C 1.265625 -10.640625 1.328125 -9.5625 1.453125 -8.53125 C 1.484375 -8.140625 1.515625 -7.765625 1.546875 -7.390625 C 1.578125 -7.03125 1.609375 -6.65625 1.671875 -6.3125 C 1.78125 -5.640625 1.9375 -5 2.09375 -4.375 C 2.25 -3.859375 2.40625 -3.328125 2.65625 -2.859375 C 2.8125 -2.5625 2.953125 -2.25 3.078125 -1.96875 C 3.296875 -1.546875 3.546875 -1.109375 3.921875 -0.796875 C 4.40625 -0.40625 4.9375 -0.0625 5.546875 0.15625 C 5.921875 0.28125 6.375 0.40625 6.75 0.578125 C 7.21875 0.765625 7.734375 0.828125 8.234375 0.828125 C 8.78125 0.796875 9.28125 0.765625 9.796875 0.640625 C 10.078125 0.53125 10.359375 0.46875 10.609375 0.40625 C 11.1875 0.21875 11.71875 0 12.140625 -0.4375 C 12.203125 -0.5 12.296875 -0.578125 12.390625 -0.671875 C 12.515625 -0.796875 12.671875 -0.921875 12.796875 -1.046875 C 13.4375 -1.75 13.75 -2.59375 14 -3.453125 C 14.421875 -4.75 14.578125 -6.109375 14.671875 -7.453125 C 14.734375 -8.328125 14.765625 -9.1875 14.765625 -10.078125 C 14.796875 -11.5 14.796875 -12.921875 14.796875 -14.359375 Z M 14.796875 -14.359375 "/></g></g></g><g fill="#00558a" fill-opacity="1"><g transform="translate(125.862234, 197.622645)"><g><path d="M 9.703125 -3.953125 C 9.703125 -3.953125 9.703125 -4 9.703125 -4 C 9.28125 -4 8.90625 -4 8.5 -4 C 8.171875 -4.03125 7.859375 -4.03125 7.546875 -4.0625 C 7.15625 -4.125 6.84375 -4.3125 6.8125 -4.75 C 6.78125 -5 6.71875 -5.296875 6.71875 -5.546875 C 6.6875 -6.34375 6.6875 -7.09375 6.78125 -7.890625 C 6.8125 -8.421875 6.78125 -8.96875 6.90625 -9.5 C 6.96875 -9.765625 7.0625 -9.921875 7.34375 -9.953125 C 7.671875 -9.984375 8.015625 -10.046875 8.359375 -10.078125 C 8.875 -10.109375 9.40625 -10.140625 9.953125 -10.203125 C 10.015625 -10.203125 10.078125 -10.203125 10.140625 -10.234375 C 10.421875 -10.234375 10.703125 -10.296875 11 -10.296875 C 11.34375 -10.296875 11.65625 -10.421875 11.953125 -10.640625 C 12.328125 -10.9375 12.515625 -11.3125 12.515625 -11.8125 C 12.515625 -12.078125 12.515625 -12.296875 12.453125 -12.546875 C 12.390625 -12.765625 12.390625 -12.984375 12.328125 -13.21875 C 12.203125 -13.8125 11.71875 -14.234375 11.09375 -14.234375 C 10.453125 -14.265625 9.796875 -14.203125 9.125 -14.265625 C 9 -14.265625 8.875 -14.265625 8.75 -14.265625 C 8.390625 -14.265625 8.015625 -14.234375 7.671875 -14.234375 C 7.546875 -14.234375 7.453125 -14.234375 7.34375 -14.265625 C 7.03125 -14.359375 6.90625 -14.578125 6.84375 -14.890625 C 6.84375 -14.984375 6.84375 -15.078125 6.84375 -15.171875 C 6.84375 -15.59375 6.84375 -16 6.875 -16.421875 C 6.875 -16.765625 7.0625 -16.984375 7.421875 -17.046875 C 7.671875 -17.109375 7.953125 -17.171875 8.203125 -17.203125 C 8.359375 -17.234375 8.53125 -17.234375 8.65625 -17.265625 C 9.0625 -17.359375 9.46875 -17.359375 9.890625 -17.359375 C 10.515625 -17.359375 11.15625 -17.296875 11.75 -17.453125 C 11.84375 -17.453125 11.921875 -17.453125 12.015625 -17.453125 C 12.328125 -17.484375 12.640625 -17.453125 12.921875 -17.5625 C 13.3125 -17.6875 13.625 -17.90625 13.90625 -18.15625 C 14.0625 -18.3125 14.171875 -18.46875 14.203125 -18.703125 C 14.359375 -19.515625 14.328125 -20.34375 14.125 -21.171875 C 14.0625 -21.515625 13.875 -21.828125 13.53125 -21.984375 C 13.40625 -22.046875 13.25 -22.125 13.09375 -22.15625 C 12.828125 -22.21875 12.578125 -22.3125 12.328125 -22.3125 C 11.75 -22.3125 11.1875 -22.3125 10.609375 -22.25 C 9.640625 -22.1875 8.65625 -22.21875 7.671875 -22.25 C 6.96875 -22.3125 6.28125 -22.34375 5.578125 -22.375 C 5.03125 -22.40625 4.5 -22.40625 3.953125 -22.4375 C 3.609375 -22.46875 3.265625 -22.40625 2.921875 -22.3125 C 2.65625 -22.21875 2.46875 -22.046875 2.34375 -21.828125 C 2.09375 -21.390625 1.96875 -20.90625 1.8125 -20.4375 C 1.75 -20.21875 1.671875 -20.03125 1.671875 -19.796875 C 1.609375 -19.296875 1.546875 -18.828125 1.546875 -18.34375 C 1.578125 -16.671875 1.609375 -15.015625 1.671875 -13.34375 C 1.671875 -13.28125 1.671875 -13.1875 1.671875 -13.09375 C 1.71875 -12.109375 1.8125 -11.09375 1.71875 -10.078125 C 1.640625 -9.59375 1.671875 -9.09375 1.640625 -8.625 C 1.578125 -7.390625 1.546875 -6.140625 1.484375 -4.90625 C 1.421875 -4 1.390625 -3.078125 1.328125 -2.125 C 1.265625 -1.515625 1.359375 -0.984375 1.546875 -0.4375 C 1.578125 -0.34375 1.609375 -0.28125 1.671875 -0.21875 C 1.90625 -0.03125 2.15625 0.125 2.40625 0.3125 C 2.4375 0.3125 2.5 0.3125 2.53125 0.3125 C 3.203125 0.34375 3.859375 0.375 4.53125 0.375 C 5.640625 0.34375 6.75 0.3125 7.890625 0.28125 C 8.359375 0.25 8.84375 0.3125 9.34375 0.28125 C 10.046875 0.28125 10.78125 0.25 11.46875 0.21875 C 11.75 0.21875 12.015625 0.25 12.265625 0.25 C 12.703125 0.25 13.125 0.25 13.5625 0.21875 C 13.8125 0.1875 14.03125 0.0625 14.171875 -0.1875 C 14.265625 -0.4375 14.390625 -0.703125 14.421875 -0.953125 C 14.546875 -1.78125 14.515625 -2.5625 14.171875 -3.359375 C 13.9375 -3.859375 13.53125 -4.125 12.953125 -4.09375 C 11.875 -4.0625 10.78125 -4.03125 9.703125 -3.953125 Z M 9.703125 -3.953125 "/></g></g></g><g fill="#00558a" fill-opacity="1"><g transform="translate(144.115208, 197.622645)"><g><path d="M 1.484375 -3.640625 C 1.453125 -2.953125 1.546875 -2.28125 2 -1.71875 C 2 -1.671875 2.03125 -1.640625 2.03125 -1.609375 C 2.25 -1.203125 2.5625 -0.796875 3.015625 -0.578125 C 3.078125 -0.53125 3.140625 -0.46875 3.203125 -0.4375 C 3.296875 -0.375 3.390625 -0.3125 3.484375 -0.28125 C 3.859375 -0.125 4.25 -0.03125 4.625 0.15625 C 5.109375 0.40625 5.640625 0.578125 6.140625 0.734375 C 6.84375 0.984375 7.578125 0.984375 8.328125 0.828125 C 8.75 0.734375 9.15625 0.609375 9.5625 0.4375 C 10.265625 0.15625 10.875 -0.25 11.4375 -0.703125 C 11.953125 -1.078125 12.296875 -1.578125 12.640625 -2.09375 C 12.890625 -2.4375 13.125 -2.78125 13.3125 -3.171875 C 13.71875 -4.0625 13.96875 -4.96875 13.9375 -5.953125 C 13.90625 -6.65625 13.84375 -7.34375 13.78125 -8.015625 C 13.65625 -9.0625 13.1875 -9.953125 12.390625 -10.640625 C 12.234375 -10.8125 12.046875 -10.96875 11.84375 -11.09375 C 11.21875 -11.625 10.515625 -12.140625 9.796875 -12.546875 C 9.09375 -12.890625 8.359375 -13.25 7.671875 -13.53125 C 7.34375 -13.65625 7.0625 -13.8125 6.78125 -13.9375 C 6.3125 -14.203125 6.140625 -14.640625 5.921875 -15.078125 C 5.890625 -15.140625 5.890625 -15.203125 5.890625 -15.265625 C 5.859375 -15.75 5.984375 -16.125 6.25 -16.515625 C 6.46875 -16.828125 6.71875 -16.984375 7.0625 -17.046875 C 7.484375 -17.109375 7.921875 -17.078125 8.359375 -17.078125 C 8.71875 -17.078125 9.03125 -16.953125 9.34375 -16.828125 C 9.59375 -16.734375 9.859375 -16.609375 10.109375 -16.546875 C 10.609375 -16.375 11.125 -16.28125 11.59375 -16.609375 C 11.625 -16.609375 11.65625 -16.640625 11.6875 -16.640625 C 12.046875 -16.828125 12.359375 -17.078125 12.578125 -17.453125 C 12.703125 -17.65625 12.796875 -17.875 12.890625 -18.09375 C 12.953125 -18.1875 12.984375 -18.28125 12.984375 -18.375 C 13.09375 -18.984375 13.09375 -18.984375 12.859375 -19.546875 C 12.828125 -19.640625 12.796875 -19.703125 12.765625 -19.796875 C 12.734375 -19.84375 12.703125 -19.90625 12.671875 -19.9375 C 12.484375 -20.125 12.296875 -20.3125 12.109375 -20.4375 C 11.625 -20.78125 11.1875 -21.140625 10.671875 -21.390625 C 10.234375 -21.609375 9.796875 -21.796875 9.3125 -21.890625 C 8.390625 -22.046875 7.484375 -22.046875 6.5625 -21.890625 C 6.203125 -21.828125 5.859375 -21.734375 5.515625 -21.640625 C 5.296875 -21.578125 5.109375 -21.515625 4.90625 -21.390625 C 4.375 -21.078125 3.859375 -20.6875 3.453125 -20.21875 C 3.109375 -19.84375 2.6875 -19.515625 2.4375 -19.109375 C 2.25 -18.734375 2 -18.40625 1.8125 -18.03125 C 1.515625 -17.453125 1.390625 -16.859375 1.234375 -16.21875 C 1.234375 -16.1875 1.234375 -16.15625 1.234375 -16.125 C 1.234375 -15.59375 1.234375 -15.046875 1.265625 -14.515625 C 1.328125 -13.71875 1.515625 -12.953125 1.90625 -12.265625 C 2.1875 -11.71875 2.59375 -11.28125 3.015625 -10.90625 C 3.359375 -10.609375 3.734375 -10.359375 4.125 -10.140625 C 4.78125 -9.734375 5.421875 -9.3125 6.078125 -8.9375 C 6.78125 -8.53125 7.453125 -8.109375 8.171875 -7.828125 C 8.5 -7.703125 8.71875 -7.484375 8.9375 -7.25 C 9.15625 -7 9.3125 -6.6875 9.3125 -6.34375 C 9.3125 -5.671875 9.1875 -5.109375 8.78125 -4.59375 C 8.71875 -4.5 8.6875 -4.4375 8.625 -4.40625 C 8.203125 -4.15625 7.796875 -4.03125 7.34375 -4.125 C 7.1875 -4.15625 7 -4.15625 6.84375 -4.1875 C 6.5 -4.28125 6.140625 -4.34375 5.796875 -4.4375 C 5.734375 -4.46875 5.671875 -4.5 5.640625 -4.53125 C 5.203125 -4.8125 4.75 -5.140625 4.34375 -5.484375 C 4.15625 -5.640625 3.890625 -5.796875 3.640625 -5.796875 C 3.390625 -5.828125 3.140625 -5.828125 2.921875 -5.828125 C 2.8125 -5.796875 2.75 -5.765625 2.6875 -5.734375 C 2.34375 -5.515625 2.0625 -5.203125 1.8125 -4.875 C 1.578125 -4.5625 1.421875 -4.21875 1.484375 -3.796875 C 1.484375 -3.734375 1.484375 -3.671875 1.484375 -3.640625 Z M 1.484375 -3.640625 "/></g></g></g><g fill="#00558a" fill-opacity="1"><g transform="translate(162.558315, 197.622645)"><g><path d="M 4.625 -9.09375 C 4.625 -9.09375 4.59375 -9.09375 4.59375 -9.09375 C 4.59375 -9 4.59375 -8.90625 4.59375 -8.8125 C 4.5625 -6.875 4.5625 -4.9375 4.5625 -3.046875 C 4.5625 -2.40625 4.625 -1.8125 4.65625 -1.203125 C 4.71875 -0.734375 4.875 -0.3125 5.203125 0.03125 C 5.390625 0.28125 5.640625 0.46875 5.953125 0.46875 C 6.3125 0.46875 6.625 0.5 6.9375 0.46875 C 7.453125 0.40625 7.859375 0.15625 8.078125 -0.3125 C 8.359375 -0.921875 8.53125 -1.578125 8.53125 -2.25 C 8.5625 -4.15625 8.5625 -6.078125 8.59375 -7.984375 C 8.625 -10.171875 8.65625 -12.359375 8.6875 -14.515625 C 8.71875 -14.578125 8.71875 -14.640625 8.71875 -14.703125 C 8.75 -15.078125 8.8125 -15.5 8.84375 -15.90625 C 8.875 -16.21875 8.9375 -16.515625 8.96875 -16.828125 C 9 -16.953125 9.03125 -17.078125 9.09375 -17.171875 C 9.21875 -17.390625 9.375 -17.5625 9.671875 -17.5625 C 9.953125 -17.59375 10.265625 -17.59375 10.546875 -17.625 C 11 -17.6875 11.46875 -17.75 11.921875 -17.8125 C 12.046875 -17.84375 12.203125 -17.90625 12.296875 -18.03125 C 12.578125 -18.3125 12.765625 -18.65625 12.734375 -19.109375 C 12.734375 -19.296875 12.734375 -19.484375 12.734375 -19.671875 C 12.765625 -20.09375 12.703125 -20.5 12.515625 -20.875 C 12.421875 -21.046875 12.328125 -21.203125 12.203125 -21.296875 C 12.015625 -21.421875 11.75 -21.546875 11.53125 -21.640625 C 11.40625 -21.703125 11.28125 -21.734375 11.15625 -21.734375 C 10.328125 -21.765625 9.5 -21.828125 8.6875 -21.828125 C 7.25 -21.859375 5.828125 -21.859375 4.40625 -21.859375 C 3.671875 -21.859375 2.953125 -21.890625 2.25 -21.890625 C 2.15625 -21.890625 2.09375 -21.890625 2.03125 -21.859375 C 1.453125 -21.703125 1.015625 -21.390625 0.890625 -20.78125 C 0.859375 -20.5625 0.796875 -20.34375 0.734375 -20.125 C 0.640625 -19.546875 0.640625 -18.984375 0.765625 -18.4375 C 0.890625 -18.03125 1.328125 -17.6875 1.75 -17.65625 C 2.375 -17.65625 2.984375 -17.625 3.578125 -17.625 C 3.859375 -17.59375 4.0625 -17.484375 4.21875 -17.265625 C 4.34375 -17.078125 4.4375 -16.828125 4.46875 -16.578125 C 4.46875 -16.125 4.5 -15.6875 4.5 -15.234375 C 4.53125 -14.453125 4.5625 -13.625 4.59375 -12.796875 C 4.625 -11.5625 4.625 -10.328125 4.625 -9.09375 Z M 4.625 -9.09375 "/></g></g></g><g fill="#00558a" fill-opacity="1"><g transform="translate(178.276219, 197.622645)"><g/></g></g><g fill="#00558a" fill-opacity="1"><g transform="translate(186.769194, 197.622645)"><g><path d="M 15.78125 -5.546875 C 15.75 -5.546875 15.75 -5.546875 15.71875 -5.546875 C 15.71875 -6.3125 15.71875 -7.09375 15.71875 -7.890625 C 15.71875 -8.59375 15.71875 -9.28125 15.71875 -9.953125 C 15.71875 -10.296875 15.59375 -10.609375 15.34375 -10.84375 C 14.953125 -11.125 14.546875 -11.34375 14.0625 -11.34375 C 13.53125 -11.3125 13.03125 -11.28125 12.515625 -11.28125 C 11.6875 -11.28125 10.90625 -11.28125 10.109375 -11.21875 C 9.921875 -11.1875 9.765625 -11.1875 9.59375 -11.15625 C 9.09375 -11.0625 8.8125 -10.8125 8.71875 -10.296875 C 8.6875 -10.203125 8.6875 -10.109375 8.6875 -10.046875 C 8.6875 -9.28125 8.6875 -8.53125 8.71875 -7.765625 C 8.71875 -7.578125 8.8125 -7.453125 8.96875 -7.421875 C 9.125 -7.390625 9.25 -7.34375 9.40625 -7.34375 C 9.859375 -7.28125 10.328125 -7.25 10.8125 -7.25 C 11.0625 -7.21875 11.21875 -7.09375 11.3125 -6.875 C 11.375 -6.75 11.40625 -6.59375 11.40625 -6.4375 C 11.4375 -6.25 11.4375 -6.046875 11.4375 -5.859375 C 11.40625 -5.421875 11.34375 -4.96875 11.0625 -4.59375 C 10.84375 -4.34375 10.578125 -4.125 10.265625 -4 C 9.4375 -3.703125 8.625 -3.578125 7.734375 -3.828125 C 7.15625 -4 6.625 -4.25 6.28125 -4.78125 C 6.140625 -5 5.984375 -5.234375 5.859375 -5.453125 C 5.734375 -5.671875 5.640625 -5.921875 5.546875 -6.171875 C 5.515625 -6.25 5.515625 -6.34375 5.515625 -6.40625 C 5.484375 -6.59375 5.453125 -6.78125 5.390625 -6.9375 C 5.265625 -7.34375 5.203125 -7.796875 5.203125 -8.203125 C 5.171875 -9.15625 5.171875 -10.078125 5.296875 -11.03125 C 5.390625 -11.6875 5.390625 -12.390625 5.421875 -13.0625 C 5.421875 -13.1875 5.453125 -13.28125 5.453125 -13.40625 C 5.546875 -13.84375 5.640625 -14.328125 5.765625 -14.765625 C 5.953125 -15.40625 6.109375 -16.0625 6.5 -16.609375 C 6.875 -17.203125 7.34375 -17.75 8.046875 -18.0625 C 8.65625 -18.3125 9.25 -18.5 9.921875 -18.46875 C 10.359375 -18.4375 10.78125 -18.3125 11.1875 -18.125 C 11.21875 -18.09375 11.25 -18.0625 11.3125 -18.03125 C 11.5625 -17.78125 11.6875 -17.484375 11.71875 -17.109375 C 11.75 -16.828125 11.8125 -16.515625 11.84375 -16.21875 C 11.875 -15.90625 11.953125 -15.59375 12.171875 -15.3125 C 12.359375 -15.046875 12.609375 -14.890625 12.953125 -14.890625 C 13.5 -14.953125 14.03125 -14.984375 14.578125 -15.046875 C 14.765625 -15.046875 14.921875 -15.078125 15.078125 -15.140625 C 15.265625 -15.203125 15.40625 -15.375 15.4375 -15.5625 C 15.46875 -15.75 15.53125 -15.9375 15.53125 -16.125 C 15.5 -16.609375 15.5 -17.109375 15.46875 -17.625 C 15.40625 -18.25 15.34375 -18.890625 15.171875 -19.515625 C 15.046875 -20.125 14.703125 -20.5625 14.328125 -21.046875 C 14.296875 -21.109375 14.234375 -21.140625 14.171875 -21.171875 C 13.8125 -21.359375 13.46875 -21.546875 13.125 -21.734375 C 12.984375 -21.796875 12.890625 -21.828125 12.765625 -21.890625 C 12.671875 -21.890625 12.609375 -21.921875 12.515625 -21.984375 C 12.265625 -22.1875 11.953125 -22.28125 11.625 -22.34375 C 11.21875 -22.4375 10.8125 -22.53125 10.359375 -22.5 C 10.078125 -22.46875 9.828125 -22.5 9.5625 -22.5 C 9.34375 -22.5 9.15625 -22.5 8.9375 -22.5 C 8.109375 -22.4375 7.28125 -22.21875 6.53125 -21.828125 C 5.984375 -21.546875 5.515625 -21.265625 4.96875 -20.984375 C 4.90625 -20.953125 4.875 -20.875 4.8125 -20.84375 C 4.3125 -20.40625 3.828125 -19.90625 3.390625 -19.390625 C 3.296875 -19.296875 3.234375 -19.171875 3.203125 -19.078125 C 3.109375 -18.859375 3.015625 -18.625 2.859375 -18.4375 C 2.625 -18.15625 2.46875 -17.84375 2.40625 -17.484375 C 2.1875 -16.671875 1.9375 -15.8125 1.75 -14.953125 C 1.546875 -14 1.421875 -13.03125 1.390625 -12.046875 C 1.359375 -11.03125 1.296875 -10.015625 1.296875 -9 C 1.296875 -8.328125 1.265625 -7.671875 1.359375 -7 C 1.421875 -6.53125 1.484375 -6.046875 1.578125 -5.578125 C 1.609375 -5.265625 1.671875 -4.9375 1.78125 -4.625 C 1.8125 -4.4375 1.90625 -4.25 1.96875 -4.0625 C 2.09375 -3.515625 2.34375 -3.046875 2.65625 -2.59375 C 2.8125 -2.4375 2.984375 -2.25 3.109375 -2.09375 C 3.390625 -1.75 3.640625 -1.359375 3.953125 -1.046875 C 4.125 -0.859375 4.3125 -0.671875 4.53125 -0.53125 C 4.84375 -0.34375 5.203125 -0.1875 5.515625 -0.03125 C 5.640625 0.0625 5.796875 0.125 5.953125 0.15625 C 6.6875 0.3125 7.484375 0.40625 8.234375 0.46875 C 8.8125 0.53125 9.375 0.375 9.921875 0.21875 C 10.328125 0.125 10.734375 -0.03125 11.15625 -0.125 C 11.3125 -0.1875 11.46875 -0.21875 11.59375 -0.09375 C 11.78125 0.15625 12.046875 0.21875 12.328125 0.1875 C 13.21875 0.1875 14.09375 0.125 14.953125 0.125 C 15.171875 0.09375 15.34375 0.03125 15.4375 -0.15625 C 15.59375 -0.46875 15.71875 -0.796875 15.71875 -1.140625 C 15.71875 -2.59375 15.75 -4.0625 15.78125 -5.546875 Z M 15.78125 -5.546875 "/></g></g></g><g fill="#00558a" fill-opacity="1"><g transform="translate(206.131254, 197.622645)"><g><path d="M 8.625 -22.28125 C 8.171875 -22.28125 7.765625 -22.34375 7.34375 -22.15625 C 7.3125 -22.15625 7.25 -22.15625 7.21875 -22.15625 C 6.625 -22.015625 6.140625 -21.671875 5.890625 -21.140625 C 5.640625 -20.53125 5.484375 -19.90625 5.296875 -19.296875 C 5.171875 -18.796875 5.109375 -18.28125 4.96875 -17.8125 C 4.75 -16.953125 4.46875 -16.125 4.21875 -15.265625 C 4.09375 -14.859375 4 -14.484375 3.859375 -14.0625 C 3.703125 -13.5 3.546875 -12.921875 3.390625 -12.328125 C 3.265625 -11.75 3.109375 -11.1875 2.984375 -10.578125 C 2.71875 -9.640625 2.4375 -8.6875 2.1875 -7.703125 C 2 -6.90625 1.84375 -6.109375 1.640625 -5.328125 C 1.515625 -4.78125 1.421875 -4.25 1.265625 -3.703125 C 1.140625 -3.171875 0.953125 -2.625 0.796875 -2.125 C 0.640625 -1.71875 0.640625 -1.296875 0.671875 -0.890625 C 0.671875 -0.703125 0.734375 -0.4375 0.953125 -0.34375 C 1.203125 -0.21875 1.453125 -0.09375 1.71875 -0.03125 C 2.34375 0.09375 2.984375 0.21875 3.640625 0.1875 C 4 0.1875 4.28125 0.125 4.5625 -0.03125 C 4.6875 -0.09375 4.8125 -0.1875 4.9375 -0.28125 C 5.359375 -0.53125 5.640625 -0.921875 5.796875 -1.421875 C 5.859375 -1.640625 6.015625 -1.90625 6.140625 -2.125 C 6.3125 -2.34375 6.53125 -2.4375 6.8125 -2.40625 C 7 -2.40625 7.1875 -2.375 7.34375 -2.375 C 8.234375 -2.34375 9.125 -2.34375 10.015625 -2.3125 C 10.109375 -2.3125 10.203125 -2.28125 10.296875 -2.28125 C 10.609375 -2.15625 10.8125 -1.90625 10.875 -1.546875 C 10.9375 -1.203125 11.0625 -0.859375 11.3125 -0.609375 C 11.5 -0.34375 11.78125 -0.125 12.046875 0.09375 C 12.046875 0.09375 12.109375 0.09375 12.140625 0.125 C 13.03125 0.375 13.9375 0.34375 14.828125 0.09375 C 15.265625 -0.03125 15.71875 -0.21875 15.90625 -0.734375 C 16 -1.046875 16.09375 -1.359375 16.0625 -1.671875 C 15.96875 -2.125 15.84375 -2.53125 15.71875 -2.984375 C 15.53125 -3.671875 15.3125 -4.375 15.109375 -5.109375 C 14.796875 -6.34375 14.515625 -7.609375 14.203125 -8.84375 C 13.9375 -9.765625 13.65625 -10.671875 13.40625 -11.59375 C 13.28125 -12.109375 13.15625 -12.609375 13.03125 -13.125 C 12.953125 -13.3125 12.890625 -13.46875 12.859375 -13.65625 C 12.671875 -14.296875 12.515625 -14.921875 12.328125 -15.5625 C 12.203125 -15.9375 12.046875 -16.34375 12.078125 -16.796875 C 12.078125 -16.828125 12.078125 -16.859375 12.046875 -16.921875 C 11.953125 -17.421875 11.8125 -17.9375 11.6875 -18.4375 C 11.59375 -18.859375 11.4375 -19.234375 11.40625 -19.609375 C 11.34375 -20.125 11.1875 -20.625 11 -21.109375 C 10.96875 -21.203125 10.90625 -21.265625 10.84375 -21.359375 C 10.609375 -21.609375 10.328125 -21.828125 10.046875 -22.015625 C 9.796875 -22.21875 9.5 -22.3125 9.21875 -22.28125 C 9 -22.28125 8.8125 -22.28125 8.625 -22.28125 Z M 8.8125 -8.046875 C 8.5 -8.078125 8.171875 -8.109375 7.828125 -8.171875 C 7.515625 -8.203125 7.453125 -8.359375 7.546875 -8.6875 C 7.609375 -8.90625 7.703125 -9.125 7.765625 -9.3125 C 7.796875 -9.4375 7.859375 -9.53125 7.859375 -9.671875 C 7.953125 -10.390625 8.234375 -11.09375 8.359375 -11.78125 C 8.390625 -11.875 8.421875 -12.015625 8.453125 -12.078125 C 8.5625 -12.203125 8.65625 -12.203125 8.71875 -12.078125 C 8.75 -12.015625 8.75 -11.953125 8.78125 -11.875 C 8.875 -11.40625 8.9375 -10.96875 9.03125 -10.484375 C 9.125 -10.109375 9.25 -9.734375 9.375 -9.34375 C 9.4375 -9.15625 9.5 -9 9.53125 -8.8125 C 9.640625 -8.328125 9.375 -8.046875 8.90625 -8.046875 C 8.875 -8.046875 8.84375 -8.046875 8.8125 -8.046875 Z M 8.8125 -8.046875 "/></g></g></g><g fill="#00558a" fill-opacity="1"><g transform="translate(225.905264, 197.622645)"><g><path d="M 4.625 -9.09375 C 4.625 -9.09375 4.59375 -9.09375 4.59375 -9.09375 C 4.59375 -9 4.59375 -8.90625 4.59375 -8.8125 C 4.5625 -6.875 4.5625 -4.9375 4.5625 -3.046875 C 4.5625 -2.40625 4.625 -1.8125 4.65625 -1.203125 C 4.71875 -0.734375 4.875 -0.3125 5.203125 0.03125 C 5.390625 0.28125 5.640625 0.46875 5.953125 0.46875 C 6.3125 0.46875 6.625 0.5 6.9375 0.46875 C 7.453125 0.40625 7.859375 0.15625 8.078125 -0.3125 C 8.359375 -0.921875 8.53125 -1.578125 8.53125 -2.25 C 8.5625 -4.15625 8.5625 -6.078125 8.59375 -7.984375 C 8.625 -10.171875 8.65625 -12.359375 8.6875 -14.515625 C 8.71875 -14.578125 8.71875 -14.640625 8.71875 -14.703125 C 8.75 -15.078125 8.8125 -15.5 8.84375 -15.90625 C 8.875 -16.21875 8.9375 -16.515625 8.96875 -16.828125 C 9 -16.953125 9.03125 -17.078125 9.09375 -17.171875 C 9.21875 -17.390625 9.375 -17.5625 9.671875 -17.5625 C 9.953125 -17.59375 10.265625 -17.59375 10.546875 -17.625 C 11 -17.6875 11.46875 -17.75 11.921875 -17.8125 C 12.046875 -17.84375 12.203125 -17.90625 12.296875 -18.03125 C 12.578125 -18.3125 12.765625 -18.65625 12.734375 -19.109375 C 12.734375 -19.296875 12.734375 -19.484375 12.734375 -19.671875 C 12.765625 -20.09375 12.703125 -20.5 12.515625 -20.875 C 12.421875 -21.046875 12.328125 -21.203125 12.203125 -21.296875 C 12.015625 -21.421875 11.75 -21.546875 11.53125 -21.640625 C 11.40625 -21.703125 11.28125 -21.734375 11.15625 -21.734375 C 10.328125 -21.765625 9.5 -21.828125 8.6875 -21.828125 C 7.25 -21.859375 5.828125 -21.859375 4.40625 -21.859375 C 3.671875 -21.859375 2.953125 -21.890625 2.25 -21.890625 C 2.15625 -21.890625 2.09375 -21.890625 2.03125 -21.859375 C 1.453125 -21.703125 1.015625 -21.390625 0.890625 -20.78125 C 0.859375 -20.5625 0.796875 -20.34375 0.734375 -20.125 C 0.640625 -19.546875 0.640625 -18.984375 0.765625 -18.4375 C 0.890625 -18.03125 1.328125 -17.6875 1.75 -17.65625 C 2.375 -17.65625 2.984375 -17.625 3.578125 -17.625 C 3.859375 -17.59375 4.0625 -17.484375 4.21875 -17.265625 C 4.34375 -17.078125 4.4375 -16.828125 4.46875 -16.578125 C 4.46875 -16.125 4.5 -15.6875 4.5 -15.234375 C 4.53125 -14.453125 4.5625 -13.625 4.59375 -12.796875 C 4.625 -11.5625 4.625 -10.328125 4.625 -9.09375 Z M 4.625 -9.09375 "/></g></g></g><g fill="#00558a" fill-opacity="1"><g transform="translate(241.623181, 197.622645)"><g><path d="M 14.859375 -10.875 C 14.859375 -10.875 14.890625 -10.875 14.890625 -10.875 C 14.859375 -11.4375 14.859375 -12.015625 14.828125 -12.546875 C 14.796875 -14.359375 14.734375 -16.125 14.703125 -17.90625 C 14.671875 -18.890625 14.640625 -19.875 14.640625 -20.875 C 14.640625 -21.171875 14.578125 -21.390625 14.453125 -21.640625 C 14.171875 -22.25 13.65625 -22.4375 13.0625 -22.5 C 12.453125 -22.53125 11.875 -22.40625 11.28125 -22.28125 C 10.9375 -22.1875 10.609375 -21.859375 10.578125 -21.484375 C 10.546875 -21.109375 10.515625 -20.71875 10.484375 -20.34375 C 10.484375 -18.703125 10.484375 -17.046875 10.484375 -15.40625 C 10.484375 -15.234375 10.484375 -15.046875 10.484375 -14.890625 C 10.453125 -14.515625 10.234375 -14.265625 9.859375 -14.234375 C 9.5 -14.171875 9.15625 -14.09375 8.8125 -14.09375 C 7.953125 -14.0625 7.125 -14.03125 6.3125 -14.125 C 5.859375 -14.171875 5.578125 -14.515625 5.578125 -14.921875 C 5.578125 -15.78125 5.640625 -16.671875 5.671875 -17.5625 C 5.703125 -18.859375 5.671875 -20.15625 5.671875 -21.453125 C 5.671875 -21.671875 5.578125 -21.796875 5.421875 -21.921875 C 5.234375 -22.046875 4.96875 -22.15625 4.71875 -22.1875 C 4.40625 -22.1875 4.09375 -22.15625 3.796875 -22.28125 C 3.765625 -22.28125 3.703125 -22.28125 3.671875 -22.28125 C 3.265625 -22.28125 2.859375 -22.25 2.4375 -22.15625 C 2.0625 -22.046875 1.84375 -21.859375 1.671875 -21.515625 C 1.484375 -21.046875 1.359375 -20.53125 1.359375 -20.03125 C 1.328125 -19.015625 1.296875 -18 1.296875 -16.984375 C 1.265625 -15.234375 1.265625 -13.5 1.265625 -11.78125 C 1.265625 -10.8125 1.296875 -9.796875 1.328125 -8.8125 C 1.359375 -7.421875 1.390625 -6.015625 1.359375 -4.65625 C 1.359375 -3.296875 1.296875 -1.96875 1.265625 -0.640625 C 1.265625 -0.25 1.421875 0.0625 1.71875 0.28125 C 2.0625 0.53125 2.4375 0.703125 2.890625 0.671875 C 3.484375 0.671875 4.09375 0.578125 4.6875 0.53125 C 4.90625 0.5 5.03125 0.375 5.140625 0.1875 C 5.296875 -0.15625 5.421875 -0.53125 5.453125 -0.953125 C 5.484375 -1.546875 5.515625 -2.1875 5.515625 -2.8125 C 5.515625 -4.125 5.546875 -5.421875 5.546875 -6.71875 C 5.546875 -7.3125 5.515625 -7.953125 5.515625 -8.5625 C 5.515625 -8.90625 5.640625 -9.1875 5.859375 -9.4375 C 5.921875 -9.5 6.015625 -9.59375 6.109375 -9.59375 C 6.5 -9.703125 6.875 -9.796875 7.25 -9.828125 C 8.046875 -9.859375 8.8125 -9.859375 9.59375 -9.890625 C 9.953125 -9.890625 10.171875 -9.734375 10.328125 -9.40625 C 10.484375 -9.09375 10.578125 -8.78125 10.546875 -8.390625 C 10.546875 -7.765625 10.546875 -7.09375 10.578125 -6.46875 C 10.609375 -4.75 10.640625 -3.015625 10.734375 -1.296875 C 10.78125 -0.953125 10.8125 -0.640625 10.9375 -0.3125 C 11.03125 0 11.25 0.28125 11.625 0.3125 C 12.546875 0.375 13.46875 0.5 14.390625 0.375 C 14.609375 0.375 14.734375 0.28125 14.796875 0.125 C 14.953125 -0.15625 15.046875 -0.4375 15.046875 -0.765625 C 15.015625 -2.59375 14.984375 -4.4375 14.953125 -6.3125 C 14.921875 -7.828125 14.890625 -9.34375 14.859375 -10.875 Z M 14.859375 -10.875 "/></g></g></g><g fill="#00558a" fill-opacity="1"><g transform="translate(260.319789, 197.622645)"><g><path d="M 9.703125 -3.953125 C 9.703125 -3.953125 9.703125 -4 9.703125 -4 C 9.28125 -4 8.90625 -4 8.5 -4 C 8.171875 -4.03125 7.859375 -4.03125 7.546875 -4.0625 C 7.15625 -4.125 6.84375 -4.3125 6.8125 -4.75 C 6.78125 -5 6.71875 -5.296875 6.71875 -5.546875 C 6.6875 -6.34375 6.6875 -7.09375 6.78125 -7.890625 C 6.8125 -8.421875 6.78125 -8.96875 6.90625 -9.5 C 6.96875 -9.765625 7.0625 -9.921875 7.34375 -9.953125 C 7.671875 -9.984375 8.015625 -10.046875 8.359375 -10.078125 C 8.875 -10.109375 9.40625 -10.140625 9.953125 -10.203125 C 10.015625 -10.203125 10.078125 -10.203125 10.140625 -10.234375 C 10.421875 -10.234375 10.703125 -10.296875 11 -10.296875 C 11.34375 -10.296875 11.65625 -10.421875 11.953125 -10.640625 C 12.328125 -10.9375 12.515625 -11.3125 12.515625 -11.8125 C 12.515625 -12.078125 12.515625 -12.296875 12.453125 -12.546875 C 12.390625 -12.765625 12.390625 -12.984375 12.328125 -13.21875 C 12.203125 -13.8125 11.71875 -14.234375 11.09375 -14.234375 C 10.453125 -14.265625 9.796875 -14.203125 9.125 -14.265625 C 9 -14.265625 8.875 -14.265625 8.75 -14.265625 C 8.390625 -14.265625 8.015625 -14.234375 7.671875 -14.234375 C 7.546875 -14.234375 7.453125 -14.234375 7.34375 -14.265625 C 7.03125 -14.359375 6.90625 -14.578125 6.84375 -14.890625 C 6.84375 -14.984375 6.84375 -15.078125 6.84375 -15.171875 C 6.84375 -15.59375 6.84375 -16 6.875 -16.421875 C 6.875 -16.765625 7.0625 -16.984375 7.421875 -17.046875 C 7.671875 -17.109375 7.953125 -17.171875 8.203125 -17.203125 C 8.359375 -17.234375 8.53125 -17.234375 8.65625 -17.265625 C 9.0625 -17.359375 9.46875 -17.359375 9.890625 -17.359375 C 10.515625 -17.359375 11.15625 -17.296875 11.75 -17.453125 C 11.84375 -17.453125 11.921875 -17.453125 12.015625 -17.453125 C 12.328125 -17.484375 12.640625 -17.453125 12.921875 -17.5625 C 13.3125 -17.6875 13.625 -17.90625 13.90625 -18.15625 C 14.0625 -18.3125 14.171875 -18.46875 14.203125 -18.703125 C 14.359375 -19.515625 14.328125 -20.34375 14.125 -21.171875 C 14.0625 -21.515625 13.875 -21.828125 13.53125 -21.984375 C 13.40625 -22.046875 13.25 -22.125 13.09375 -22.15625 C 12.828125 -22.21875 12.578125 -22.3125 12.328125 -22.3125 C 11.75 -22.3125 11.1875 -22.3125 10.609375 -22.25 C 9.640625 -22.1875 8.65625 -22.21875 7.671875 -22.25 C 6.96875 -22.3125 6.28125 -22.34375 5.578125 -22.375 C 5.03125 -22.40625 4.5 -22.40625 3.953125 -22.4375 C 3.609375 -22.46875 3.265625 -22.40625 2.921875 -22.3125 C 2.65625 -22.21875 2.46875 -22.046875 2.34375 -21.828125 C 2.09375 -21.390625 1.96875 -20.90625 1.8125 -20.4375 C 1.75 -20.21875 1.671875 -20.03125 1.671875 -19.796875 C 1.609375 -19.296875 1.546875 -18.828125 1.546875 -18.34375 C 1.578125 -16.671875 1.609375 -15.015625 1.671875 -13.34375 C 1.671875 -13.28125 1.671875 -13.1875 1.671875 -13.09375 C 1.71875 -12.109375 1.8125 -11.09375 1.71875 -10.078125 C 1.640625 -9.59375 1.671875 -9.09375 1.640625 -8.625 C 1.578125 -7.390625 1.546875 -6.140625 1.484375 -4.90625 C 1.421875 -4 1.390625 -3.078125 1.328125 -2.125 C 1.265625 -1.515625 1.359375 -0.984375 1.546875 -0.4375 C 1.578125 -0.34375 1.609375 -0.28125 1.671875 -0.21875 C 1.90625 -0.03125 2.15625 0.125 2.40625 0.3125 C 2.4375 0.3125 2.5 0.3125 2.53125 0.3125 C 3.203125 0.34375 3.859375 0.375 4.53125 0.375 C 5.640625 0.34375 6.75 0.3125 7.890625 0.28125 C 8.359375 0.25 8.84375 0.3125 9.34375 0.28125 C 10.046875 0.28125 10.78125 0.25 11.46875 0.21875 C 11.75 0.21875 12.015625 0.25 12.265625 0.25 C 12.703125 0.25 13.125 0.25 13.5625 0.21875 C 13.8125 0.1875 14.03125 0.0625 14.171875 -0.1875 C 14.265625 -0.4375 14.390625 -0.703125 14.421875 -0.953125 C 14.546875 -1.78125 14.515625 -2.5625 14.171875 -3.359375 C 13.9375 -3.859375 13.53125 -4.125 12.953125 -4.09375 C 11.875 -4.0625 10.78125 -4.03125 9.703125 -3.953125 Z M 9.703125 -3.953125 "/></g></g></g><g fill="#00558a" fill-opacity="1"><g transform="translate(278.572763, 197.622645)"><g><path d="M 6.140625 -2.8125 C 6.140625 -3.390625 6.109375 -3.953125 6.109375 -4.53125 C 6.109375 -4.84375 6.171875 -5.171875 6.28125 -5.453125 C 6.34375 -5.640625 6.46875 -5.734375 6.65625 -5.734375 C 6.84375 -5.703125 7.0625 -5.734375 7.25 -5.734375 C 7.703125 -5.796875 7.984375 -5.546875 8.109375 -5.140625 C 8.171875 -4.875 8.296875 -4.65625 8.390625 -4.4375 C 8.421875 -4.34375 8.5 -4.25 8.5625 -4.125 C 8.78125 -3.578125 9.0625 -3.109375 9.34375 -2.625 C 9.5625 -2.28125 9.796875 -1.96875 9.984375 -1.609375 C 10.140625 -1.328125 10.234375 -1.015625 10.359375 -0.703125 C 10.515625 -0.34375 10.8125 -0.125 11.09375 0.0625 C 11.5 0.28125 11.984375 0.375 12.421875 0.4375 C 12.703125 0.46875 13.03125 0.4375 13.3125 0.4375 C 13.46875 0.4375 13.65625 0.40625 13.8125 0.40625 C 14.09375 0.40625 14.390625 0.4375 14.640625 0.1875 C 14.921875 -0.09375 15.203125 -0.40625 15.140625 -0.859375 C 15.109375 -1.203125 15.078125 -1.515625 15.015625 -1.84375 C 14.953125 -2.125 14.921875 -2.40625 14.796875 -2.625 C 14.515625 -3.171875 14.296875 -3.703125 14.09375 -4.28125 C 14.0625 -4.3125 14.03125 -4.375 14.03125 -4.4375 C 13.84375 -4.875 13.65625 -5.296875 13.46875 -5.734375 C 13.3125 -6.015625 13.1875 -6.34375 13.03125 -6.65625 C 12.703125 -7.1875 12.796875 -7.796875 13.28125 -8.203125 C 13.375 -8.296875 13.46875 -8.390625 13.53125 -8.5 C 13.84375 -8.96875 14.171875 -9.46875 14.328125 -10.046875 C 14.609375 -10.90625 14.859375 -11.78125 14.890625 -12.703125 C 14.890625 -13.28125 14.890625 -13.8125 14.890625 -14.390625 C 14.890625 -15.875 14.609375 -17.265625 14.0625 -18.625 C 13.9375 -18.890625 13.875 -19.140625 13.71875 -19.359375 C 13.09375 -20.375 12.296875 -21.203125 11.125 -21.578125 C 10.8125 -21.671875 10.453125 -21.734375 10.109375 -21.734375 C 9.25 -21.734375 8.359375 -21.703125 7.484375 -21.703125 C 6.65625 -21.703125 5.828125 -21.734375 4.96875 -21.734375 C 4.78125 -21.734375 4.5625 -21.765625 4.34375 -21.734375 C 3.921875 -21.734375 3.515625 -21.671875 3.078125 -21.703125 C 2.78125 -21.734375 2.5 -21.640625 2.28125 -21.421875 C 1.90625 -21.078125 1.71875 -20.625 1.515625 -20.15625 C 1.515625 -20.125 1.515625 -20.09375 1.515625 -20.0625 C 1.453125 -19.359375 1.359375 -18.65625 1.296875 -17.9375 C 1.265625 -17.109375 1.265625 -16.28125 1.265625 -15.46875 C 1.296875 -14.265625 1.359375 -13.0625 1.390625 -11.84375 C 1.453125 -10.234375 1.484375 -8.65625 1.546875 -7.03125 C 1.578125 -5.765625 1.609375 -4.46875 1.640625 -3.203125 C 1.671875 -2.40625 1.671875 -1.609375 1.71875 -0.828125 C 1.71875 -0.46875 1.875 -0.15625 2.09375 0.09375 C 2.46875 0.53125 2.984375 0.734375 3.546875 0.765625 C 3.859375 0.796875 4.1875 0.796875 4.5 0.765625 C 4.90625 0.765625 5.265625 0.578125 5.546875 0.3125 C 5.921875 -0.0625 6.140625 -0.5 6.140625 -1.046875 C 6.140625 -1.640625 6.140625 -2.21875 6.140625 -2.8125 Z M 6.140625 -13.53125 C 6.140625 -14.453125 6.140625 -15.34375 6.140625 -16.21875 C 6.171875 -16.609375 6.28125 -16.921875 6.5625 -17.140625 C 6.78125 -17.359375 7.09375 -17.453125 7.421875 -17.484375 C 7.609375 -17.484375 7.828125 -17.484375 8.015625 -17.484375 C 8.59375 -17.484375 9.0625 -17.265625 9.4375 -16.828125 C 9.640625 -16.578125 9.828125 -16.28125 9.953125 -15.96875 C 10.046875 -15.65625 10.203125 -15.375 10.234375 -15.015625 C 10.265625 -14.765625 10.296875 -14.515625 10.296875 -14.265625 C 10.296875 -13.5625 10.359375 -12.828125 10.234375 -12.140625 C 10.140625 -11.65625 9.921875 -11.25 9.640625 -10.90625 C 9.40625 -10.671875 9.1875 -10.453125 8.875 -10.328125 C 8.53125 -10.140625 8.140625 -10.078125 7.796875 -9.953125 C 7.734375 -9.921875 7.640625 -9.921875 7.578125 -9.921875 C 7.34375 -9.921875 7.125 -9.921875 6.9375 -9.921875 C 6.4375 -9.921875 6.109375 -10.234375 6.109375 -10.734375 C 6.109375 -10.9375 6.109375 -11.125 6.109375 -11.3125 C 6.140625 -12.078125 6.140625 -12.796875 6.171875 -13.53125 C 6.171875 -13.53125 6.171875 -13.53125 6.140625 -13.53125 Z M 6.140625 -13.53125 "/></g></g></g><g fill="#00558a" fill-opacity="1"><g transform="translate(297.966508, 197.622645)"><g><path d="M 5.421875 -18.5 C 5.421875 -19.390625 5.453125 -20 5.421875 -20.625 C 5.421875 -21.046875 5.296875 -21.453125 5.0625 -21.828125 C 4.9375 -22.046875 4.75 -22.1875 4.53125 -22.1875 C 3.890625 -22.21875 3.265625 -22.21875 2.625 -22.25 C 2.34375 -22.25 2.125 -22.125 2 -21.890625 C 1.75 -21.515625 1.515625 -21.140625 1.453125 -20.6875 C 1.390625 -20.25 1.359375 -19.84375 1.359375 -19.390625 C 1.265625 -17.875 1.296875 -16.34375 1.390625 -14.796875 C 1.453125 -13.9375 1.484375 -13.09375 1.484375 -12.234375 C 1.484375 -10.421875 1.484375 -8.625 1.484375 -6.78125 C 1.484375 -6.28125 1.453125 -5.734375 1.453125 -5.203125 C 1.421875 -4.125 1.359375 -3.046875 1.328125 -1.9375 C 1.328125 -1.453125 1.359375 -1.015625 1.578125 -0.609375 C 1.671875 -0.375 1.84375 -0.15625 2 0 C 2.3125 0.3125 2.75 0.375 3.171875 0.375 C 3.359375 0.40625 3.578125 0.375 3.765625 0.375 C 4.21875 0.375 4.5625 0.21875 4.8125 -0.15625 C 4.90625 -0.3125 5 -0.4375 5.0625 -0.609375 C 5.171875 -0.765625 5.234375 -0.953125 5.234375 -1.109375 C 5.296875 -1.390625 5.296875 -1.71875 5.328125 -2 C 5.359375 -2.625 5.390625 -3.234375 5.421875 -3.859375 C 5.453125 -4.5625 5.453125 -5.265625 5.484375 -5.921875 C 5.515625 -7.15625 5.578125 -8.359375 5.609375 -9.5625 C 5.609375 -11.125 5.609375 -12.640625 5.609375 -14.203125 C 5.578125 -14.953125 5.578125 -15.71875 5.546875 -16.515625 C 5.515625 -17.265625 5.453125 -18.03125 5.421875 -18.5 Z M 5.421875 -18.5 "/></g></g></g><g fill="#00558a" fill-opacity="1"><g transform="translate(307.093237, 197.622645)"><g><path d="M 5.671875 -5.359375 C 5.671875 -5.359375 5.640625 -5.359375 5.609375 -5.359375 C 5.609375 -6.65625 5.578125 -7.953125 5.578125 -9.25 C 5.578125 -9.375 5.578125 -9.46875 5.609375 -9.59375 C 5.640625 -9.796875 5.734375 -9.859375 5.921875 -9.890625 C 6.109375 -9.890625 6.25 -9.796875 6.34375 -9.640625 C 7.03125 -8.5625 7.765625 -7.453125 8.453125 -6.375 C 8.90625 -5.671875 9.375 -5 9.765625 -4.3125 C 10.078125 -3.796875 10.390625 -3.296875 10.703125 -2.78125 C 11.0625 -2.25 11.5 -1.78125 11.921875 -1.265625 C 12.171875 -0.984375 12.421875 -0.734375 12.671875 -0.4375 C 12.859375 -0.21875 13.09375 -0.09375 13.34375 0 C 14.09375 0.21875 14.859375 0.28125 15.59375 -0.0625 C 15.75 -0.15625 15.875 -0.21875 15.9375 -0.40625 C 16.0625 -0.890625 16.15625 -1.359375 16.15625 -1.875 C 16.15625 -2.25 16.125 -2.625 16.125 -3.046875 C 16.09375 -4.375 16.0625 -5.734375 16.03125 -7.0625 C 16 -7.390625 16 -7.671875 16 -7.984375 C 15.9375 -9.0625 15.875 -10.140625 15.84375 -11.25 C 15.78125 -12.390625 15.75 -13.5625 15.71875 -14.734375 C 15.6875 -14.953125 15.65625 -15.203125 15.65625 -15.4375 C 15.65625 -17.140625 15.625 -18.859375 15.59375 -20.5625 C 15.59375 -21.109375 15.375 -21.578125 14.921875 -21.890625 C 14.390625 -22.28125 13.78125 -22.375 13.125 -22.34375 C 13.0625 -22.3125 12.984375 -22.3125 12.890625 -22.3125 C 12.484375 -22.34375 12.203125 -22.15625 11.984375 -21.828125 C 11.6875 -21.421875 11.5 -20.953125 11.40625 -20.46875 C 11.375 -20.15625 11.34375 -19.875 11.34375 -19.546875 C 11.375 -18.65625 11.40625 -17.8125 11.4375 -16.953125 C 11.46875 -16.28125 11.46875 -15.65625 11.5 -15.015625 C 11.53125 -13.90625 11.59375 -12.796875 11.625 -11.6875 C 11.65625 -11.46875 11.59375 -11.21875 11.46875 -11.03125 C 11.375 -10.84375 11.25 -10.78125 11.0625 -10.84375 C 10.96875 -10.875 10.875 -10.96875 10.84375 -11.03125 C 10.609375 -11.40625 10.390625 -11.78125 10.203125 -12.171875 C 9.796875 -12.953125 9.375 -13.71875 9 -14.515625 C 8.8125 -14.859375 8.625 -15.234375 8.421875 -15.625 C 8.203125 -16.0625 7.984375 -16.515625 7.765625 -16.953125 C 7.484375 -17.5625 7.1875 -18.1875 6.875 -18.796875 C 6.53125 -19.484375 6.140625 -20.1875 5.765625 -20.90625 C 5.578125 -21.328125 5.296875 -21.609375 4.90625 -21.796875 C 4.34375 -22.125 3.703125 -22.21875 3.078125 -22.28125 C 2.984375 -22.28125 2.921875 -22.28125 2.859375 -22.25 C 2.375 -22.1875 2.0625 -21.890625 1.84375 -21.453125 C 1.671875 -21.078125 1.515625 -20.65625 1.484375 -20.21875 C 1.453125 -19.796875 1.390625 -19.359375 1.359375 -18.953125 C 1.328125 -18.5 1.265625 -18.09375 1.265625 -17.65625 C 1.265625 -15.8125 1.328125 -13.9375 1.328125 -12.109375 C 1.328125 -10.296875 1.328125 -8.5 1.328125 -6.6875 C 1.328125 -6.5 1.359375 -6.28125 1.359375 -6.046875 C 1.390625 -5.578125 1.421875 -5.140625 1.421875 -4.65625 C 1.453125 -3.453125 1.484375 -2.28125 1.515625 -1.078125 C 1.515625 -0.5 1.9375 -0.03125 2.5 0.0625 C 3.015625 0.125 3.515625 0.21875 4.03125 0.125 C 4.375 0.03125 4.71875 -0.03125 5.03125 -0.09375 C 5.203125 -0.125 5.296875 -0.21875 5.359375 -0.34375 C 5.546875 -0.703125 5.671875 -1.078125 5.671875 -1.453125 C 5.671875 -2.75 5.671875 -4.0625 5.671875 -5.359375 Z M 5.671875 -5.359375 "/></g></g></g><g fill="#00558a" fill-opacity="1"><g transform="translate(326.962313, 197.622645)"><g><path d="M 12.109375 -11.375 C 11.6875 -11.34375 11.25 -11.4375 10.8125 -11.34375 C 10.421875 -11.25 10.109375 -11.0625 9.859375 -10.8125 C 9.5625 -10.515625 9.40625 -10.171875 9.3125 -9.796875 C 9.1875 -9.25 9.09375 -8.6875 9.28125 -8.140625 C 9.46875 -7.671875 9.765625 -7.3125 10.203125 -7.15625 C 10.453125 -7.0625 10.734375 -7.03125 11 -7 C 11.34375 -6.9375 11.53125 -6.78125 11.5625 -6.4375 C 11.625 -5.984375 11.53125 -5.546875 11.40625 -5.109375 C 11.375 -5.03125 11.375 -5 11.3125 -4.9375 C 11.0625 -4.59375 10.734375 -4.3125 10.265625 -4.25 C 10.203125 -4.21875 10.171875 -4.21875 10.109375 -4.1875 C 9.796875 -4.03125 9.4375 -4.03125 9.09375 -4 C 8.5625 -3.953125 8.015625 -4.09375 7.484375 -4.21875 C 7.25 -4.28125 7.0625 -4.40625 6.9375 -4.5625 C 6.625 -4.90625 6.40625 -5.359375 6.28125 -5.796875 C 6.109375 -6.375 5.984375 -6.90625 5.859375 -7.484375 C 5.796875 -7.671875 5.796875 -7.859375 5.796875 -8.046875 C 5.765625 -8.5625 5.765625 -9.09375 5.765625 -9.59375 C 5.765625 -9.671875 5.765625 -9.703125 5.765625 -9.765625 C 5.734375 -10.078125 5.734375 -10.390625 5.765625 -10.734375 C 5.828125 -11.25 5.921875 -11.75 5.921875 -12.265625 C 5.953125 -13.09375 6.109375 -13.90625 6.34375 -14.703125 C 6.625 -15.71875 7.15625 -16.578125 7.890625 -17.328125 C 8.296875 -17.75 8.8125 -17.90625 9.3125 -18 C 9.828125 -18.0625 10.359375 -18.03125 10.875 -18 C 11.15625 -18 11.375 -17.875 11.5 -17.625 C 11.59375 -17.359375 11.6875 -17.109375 11.71875 -16.828125 C 11.75 -16.578125 11.84375 -16.34375 11.984375 -16.125 C 12.046875 -16.03125 12.109375 -15.90625 12.171875 -15.78125 C 12.328125 -15.53125 12.546875 -15.34375 12.828125 -15.265625 C 13.34375 -15.109375 13.875 -15.015625 14.421875 -15.046875 C 14.953125 -15.109375 15.34375 -15.375 15.5 -15.875 C 15.6875 -16.3125 15.8125 -16.796875 15.78125 -17.296875 C 15.75 -17.484375 15.78125 -17.71875 15.75 -17.90625 C 15.75 -18.59375 15.65625 -19.328125 15.34375 -20 C 15.203125 -20.3125 15.078125 -20.625 14.828125 -20.875 C 14.703125 -21.015625 14.609375 -21.171875 14.484375 -21.296875 C 14.265625 -21.484375 14.0625 -21.671875 13.84375 -21.828125 C 13.53125 -22.015625 13.1875 -22.1875 12.828125 -22.34375 C 12.734375 -22.40625 12.671875 -22.40625 12.578125 -22.4375 C 11.921875 -22.65625 11.21875 -22.8125 10.515625 -22.875 C 9.796875 -22.9375 9.09375 -22.90625 8.390625 -22.65625 C 8.296875 -22.625 8.171875 -22.59375 8.046875 -22.53125 C 7.421875 -22.3125 6.75 -22.15625 6.171875 -21.796875 C 5.921875 -21.671875 5.734375 -21.546875 5.515625 -21.421875 C 5.140625 -21.171875 4.71875 -20.953125 4.375 -20.65625 C 3.703125 -20.125 3.234375 -19.453125 2.890625 -18.703125 C 2.3125 -17.453125 1.875 -16.15625 1.609375 -14.796875 C 1.484375 -14.125 1.390625 -13.46875 1.390625 -12.796875 C 1.390625 -12.328125 1.328125 -11.84375 1.328125 -11.375 C 1.296875 -10.421875 1.265625 -9.4375 1.265625 -8.5 C 1.265625 -7.828125 1.296875 -7.1875 1.390625 -6.5625 C 1.484375 -5.671875 1.640625 -4.75 1.90625 -3.890625 C 2.21875 -2.859375 2.6875 -1.9375 3.515625 -1.234375 C 3.734375 -1.046875 3.921875 -0.890625 4.125 -0.703125 C 4.6875 -0.15625 5.359375 0.21875 6.078125 0.40625 C 6.28125 0.4375 6.46875 0.4375 6.65625 0.5 C 7.484375 0.703125 8.265625 0.640625 9.0625 0.375 C 9.15625 0.34375 9.25 0.3125 9.34375 0.28125 C 9.953125 0.09375 10.515625 -0.03125 11.03125 -0.4375 C 11.03125 -0.4375 11.0625 -0.4375 11.0625 -0.46875 C 11.3125 -0.609375 11.53125 -0.46875 11.5625 -0.21875 C 11.5625 -0.15625 11.53125 -0.03125 11.59375 0 C 11.78125 0.21875 11.984375 0.46875 12.296875 0.5 C 12.671875 0.578125 13.03125 0.609375 13.40625 0.671875 C 13.875 0.734375 14.390625 0.671875 14.859375 0.640625 C 15.046875 0.640625 15.171875 0.578125 15.3125 0.4375 C 15.65625 0.125 15.84375 -0.3125 15.875 -0.765625 C 15.90625 -1.296875 15.90625 -1.84375 15.90625 -2.375 C 15.90625 -2.6875 15.90625 -3.015625 15.90625 -3.328125 C 15.9375 -3.484375 15.96875 -3.640625 15.96875 -3.796875 C 16 -4.625 16.0625 -5.453125 16.0625 -6.28125 C 16.03125 -7.390625 16 -8.453125 15.96875 -9.5625 C 15.9375 -10.109375 15.8125 -10.578125 15.5 -11.0625 C 15.34375 -11.28125 15.140625 -11.375 14.921875 -11.4375 C 14.640625 -11.46875 14.359375 -11.5 14.09375 -11.46875 C 13.4375 -11.46875 12.765625 -11.40625 12.109375 -11.375 Z M 12.109375 -11.375 "/></g></g></g><g fill="#00558a" fill-opacity="1"><g transform="translate(346.672955, 197.622645)"><g><path d="M 1.484375 -3.640625 C 1.453125 -2.953125 1.546875 -2.28125 2 -1.71875 C 2 -1.671875 2.03125 -1.640625 2.03125 -1.609375 C 2.25 -1.203125 2.5625 -0.796875 3.015625 -0.578125 C 3.078125 -0.53125 3.140625 -0.46875 3.203125 -0.4375 C 3.296875 -0.375 3.390625 -0.3125 3.484375 -0.28125 C 3.859375 -0.125 4.25 -0.03125 4.625 0.15625 C 5.109375 0.40625 5.640625 0.578125 6.140625 0.734375 C 6.84375 0.984375 7.578125 0.984375 8.328125 0.828125 C 8.75 0.734375 9.15625 0.609375 9.5625 0.4375 C 10.265625 0.15625 10.875 -0.25 11.4375 -0.703125 C 11.953125 -1.078125 12.296875 -1.578125 12.640625 -2.09375 C 12.890625 -2.4375 13.125 -2.78125 13.3125 -3.171875 C 13.71875 -4.0625 13.96875 -4.96875 13.9375 -5.953125 C 13.90625 -6.65625 13.84375 -7.34375 13.78125 -8.015625 C 13.65625 -9.0625 13.1875 -9.953125 12.390625 -10.640625 C 12.234375 -10.8125 12.046875 -10.96875 11.84375 -11.09375 C 11.21875 -11.625 10.515625 -12.140625 9.796875 -12.546875 C 9.09375 -12.890625 8.359375 -13.25 7.671875 -13.53125 C 7.34375 -13.65625 7.0625 -13.8125 6.78125 -13.9375 C 6.3125 -14.203125 6.140625 -14.640625 5.921875 -15.078125 C 5.890625 -15.140625 5.890625 -15.203125 5.890625 -15.265625 C 5.859375 -15.75 5.984375 -16.125 6.25 -16.515625 C 6.46875 -16.828125 6.71875 -16.984375 7.0625 -17.046875 C 7.484375 -17.109375 7.921875 -17.078125 8.359375 -17.078125 C 8.71875 -17.078125 9.03125 -16.953125 9.34375 -16.828125 C 9.59375 -16.734375 9.859375 -16.609375 10.109375 -16.546875 C 10.609375 -16.375 11.125 -16.28125 11.59375 -16.609375 C 11.625 -16.609375 11.65625 -16.640625 11.6875 -16.640625 C 12.046875 -16.828125 12.359375 -17.078125 12.578125 -17.453125 C 12.703125 -17.65625 12.796875 -17.875 12.890625 -18.09375 C 12.953125 -18.1875 12.984375 -18.28125 12.984375 -18.375 C 13.09375 -18.984375 13.09375 -18.984375 12.859375 -19.546875 C 12.828125 -19.640625 12.796875 -19.703125 12.765625 -19.796875 C 12.734375 -19.84375 12.703125 -19.90625 12.671875 -19.9375 C 12.484375 -20.125 12.296875 -20.3125 12.109375 -20.4375 C 11.625 -20.78125 11.1875 -21.140625 10.671875 -21.390625 C 10.234375 -21.609375 9.796875 -21.796875 9.3125 -21.890625 C 8.390625 -22.046875 7.484375 -22.046875 6.5625 -21.890625 C 6.203125 -21.828125 5.859375 -21.734375 5.515625 -21.640625 C 5.296875 -21.578125 5.109375 -21.515625 4.90625 -21.390625 C 4.375 -21.078125 3.859375 -20.6875 3.453125 -20.21875 C 3.109375 -19.84375 2.6875 -19.515625 2.4375 -19.109375 C 2.25 -18.734375 2 -18.40625 1.8125 -18.03125 C 1.515625 -17.453125 1.390625 -16.859375 1.234375 -16.21875 C 1.234375 -16.1875 1.234375 -16.15625 1.234375 -16.125 C 1.234375 -15.59375 1.234375 -15.046875 1.265625 -14.515625 C 1.328125 -13.71875 1.515625 -12.953125 1.90625 -12.265625 C 2.1875 -11.71875 2.59375 -11.28125 3.015625 -10.90625 C 3.359375 -10.609375 3.734375 -10.359375 4.125 -10.140625 C 4.78125 -9.734375 5.421875 -9.3125 6.078125 -8.9375 C 6.78125 -8.53125 7.453125 -8.109375 8.171875 -7.828125 C 8.5 -7.703125 8.71875 -7.484375 8.9375 -7.25 C 9.15625 -7 9.3125 -6.6875 9.3125 -6.34375 C 9.3125 -5.671875 9.1875 -5.109375 8.78125 -4.59375 C 8.71875 -4.5 8.6875 -4.4375 8.625 -4.40625 C 8.203125 -4.15625 7.796875 -4.03125 7.34375 -4.125 C 7.1875 -4.15625 7 -4.15625 6.84375 -4.1875 C 6.5 -4.28125 6.140625 -4.34375 5.796875 -4.4375 C 5.734375 -4.46875 5.671875 -4.5 5.640625 -4.53125 C 5.203125 -4.8125 4.75 -5.140625 4.34375 -5.484375 C 4.15625 -5.640625 3.890625 -5.796875 3.640625 -5.796875 C 3.390625 -5.828125 3.140625 -5.828125 2.921875 -5.828125 C 2.8125 -5.796875 2.75 -5.765625 2.6875 -5.734375 C 2.34375 -5.515625 2.0625 -5.203125 1.8125 -4.875 C 1.578125 -4.5625 1.421875 -4.21875 1.484375 -3.796875 C 1.484375 -3.734375 1.484375 -3.671875 1.484375 -3.640625 Z M 1.484375 -3.640625 "/></g></g></g></svg>