<svg xmlns="http://www.w3.org/2000/svg" xmlns:xlink="http://www.w3.org/1999/xlink" width="500" zoomAndPan="magnify" viewBox="0 0 375 374.999991" height="500" preserveAspectRatio="xMidYMid meet" version="1.0"><defs><clipPath id="e4b259c5a6"><path d="M 69.265625 20.234375 L 305.734375 20.234375 L 305.734375 256.707031 L 69.265625 256.707031 Z M 69.265625 20.234375 " clip-rule="nonzero"/></clipPath><clipPath id="7d942d3d8a"><path d="M 187.5 20.234375 C 122.199219 20.234375 69.265625 73.171875 69.265625 138.472656 C 69.265625 203.769531 122.199219 256.707031 187.5 256.707031 C 252.800781 256.707031 305.734375 203.769531 305.734375 138.472656 C 305.734375 73.171875 252.800781 20.234375 187.5 20.234375 Z M 187.5 20.234375 " clip-rule="nonzero"/></clipPath></defs><path fill="#00558a" d="M 227.503906 90.457031 C 207.089844 90.457031 190.527344 104.964844 190.527344 122.851562 C 190.527344 104.964844 173.988281 90.457031 153.558594 90.457031 C 136.449219 90.457031 118.441406 104.765625 117.40625 121.835938 C 116.023438 144.621094 132.664062 165.945312 148.109375 180.785156 C 159.1875 191.421875 171.675781 201.300781 184.398438 209.882812 C 184.90625 210.230469 189.777344 213.960938 190.527344 213.539062 C 220.851562 196.550781 264.492188 161.636719 264.492188 122.855469 C 264.492188 104.960938 247.929688 90.457031 227.503906 90.457031 Z M 227.503906 90.457031 " fill-opacity="1" fill-rule="nonzero"/><path fill="#ffffff" d="M 190.371094 218.542969 C 188.359375 218.542969 186.539062 217.613281 181.914062 214.222656 L 181.574219 213.972656 C 168.042969 204.847656 155.609375 194.878906 144.667969 184.371094 C 122.070312 162.660156 111.230469 141.519531 112.441406 121.535156 C 113.589844 102.667969 133.183594 85.484375 153.558594 85.484375 C 169.515625 85.484375 183.421875 93.46875 190.507812 105.183594 C 192.480469 101.910156 195.019531 98.890625 198.082031 96.207031 C 205.976562 89.292969 216.421875 85.484375 227.5 85.484375 C 227.5 85.484375 227.5 85.484375 227.503906 85.484375 C 238.589844 85.484375 249.039062 89.292969 256.933594 96.207031 C 265.015625 103.28125 269.464844 112.746094 269.464844 122.855469 C 269.464844 172.503906 205.730469 210.71875 192.957031 217.875 C 192.1875 218.308594 191.289062 218.542969 190.371094 218.542969 Z M 153.558594 95.429688 C 138.359375 95.429688 123.203125 108.410156 122.371094 122.136719 C 121.089844 143.238281 137.535156 163.726562 151.554688 177.199219 C 161.9375 187.167969 174.257812 197.046875 187.179688 205.761719 C 187.292969 205.835938 187.503906 205.988281 187.796875 206.203125 C 188.890625 207.003906 189.691406 207.566406 190.277344 207.960938 C 222.726562 189.253906 259.519531 156.300781 259.519531 122.855469 C 259.519531 115.65625 256.273438 108.847656 250.382812 103.6875 C 244.300781 98.363281 236.179688 95.429688 227.503906 95.429688 C 227.503906 95.429688 227.5 95.429688 227.5 95.429688 C 218.832031 95.429688 210.714844 98.363281 204.636719 103.6875 C 198.742188 108.847656 195.496094 115.65625 195.496094 122.855469 C 195.496094 125.601562 193.269531 127.828125 190.523438 127.828125 C 187.777344 127.828125 185.550781 125.601562 185.550781 122.855469 C 185.554688 107.730469 171.199219 95.429688 153.558594 95.429688 Z M 153.558594 95.429688 " fill-opacity="1" fill-rule="nonzero"/><path fill="#00558a" d="M 282.726562 48.199219 C 232.023438 -2.492188 149.824219 -2.492188 99.121094 48.199219 C 52.878906 94.425781 48.808594 166.839844 86.886719 217.679688 C 86.875 217.679688 86.875 217.679688 86.875 217.679688 L 190.90625 372.628906 L 291.988281 221.511719 C 311.5 197.359375 321.070312 167.847656 320.710938 138.429688 C 320.308594 105.722656 307.667969 73.15625 282.726562 48.199219 Z M 267.769531 216.859375 C 266.320312 218.320312 264.835938 219.714844 263.320312 221.066406 C 239.957031 241.976562 209.71875 251.011719 180.4375 248.195312 C 156.941406 245.917969 134.0625 236.039062 115.78125 218.535156 C 115.207031 217.984375 114.628906 217.421875 114.0625 216.859375 C 71.632812 174.414062 71.632812 105.601562 114.0625 63.15625 C 156.511719 20.710938 225.332031 20.710938 267.765625 63.15625 C 288.648438 84.039062 299.238281 111.3125 299.574219 138.679688 C 299.925781 166.933594 289.332031 195.292969 267.769531 216.859375 Z M 267.769531 216.859375 " fill-opacity="1" fill-rule="nonzero"/><path fill="#ffffff" d="M 190.90625 377.601562 C 189.246094 377.601562 187.699219 376.773438 186.777344 375.398438 L 82.746094 220.449219 C 82.734375 220.429688 82.722656 220.414062 82.710938 220.394531 C 63.59375 194.742188 54.261719 162.964844 56.421875 130.875 C 58.617188 98.363281 72.53125 67.75 95.605469 44.683594 C 121.070312 19.230469 154.917969 5.210938 190.925781 5.210938 C 226.929688 5.210938 260.78125 19.226562 286.242188 44.683594 C 311.242188 69.695312 325.246094 102.964844 325.683594 138.367188 C 326.066406 169.640625 315.527344 200.207031 295.996094 224.460938 L 195.039062 375.390625 C 194.117188 376.769531 192.566406 377.597656 190.910156 377.601562 C 190.90625 377.601562 190.90625 377.601562 190.90625 377.601562 Z M 91.183594 215.179688 L 190.898438 363.695312 L 287.855469 218.746094 C 287.9375 218.621094 288.027344 218.5 288.121094 218.386719 C 306.285156 195.902344 316.09375 167.527344 315.738281 138.488281 C 315.332031 105.695312 302.359375 74.878906 279.210938 51.714844 C 255.628906 28.136719 224.273438 15.152344 190.925781 15.152344 C 157.574219 15.152344 126.21875 28.136719 102.636719 51.714844 C 59.003906 95.335938 53.941406 165.402344 90.867188 214.695312 C 90.984375 214.851562 91.089844 215.015625 91.183594 215.179688 Z M 190.898438 253.667969 C 187.257812 253.667969 183.582031 253.492188 179.960938 253.144531 C 154.320312 250.660156 130.941406 239.933594 112.34375 222.128906 C 111.746094 221.558594 111.144531 220.96875 110.554688 220.382812 C 66.246094 176.0625 66.246094 103.957031 110.546875 59.640625 C 132.015625 38.171875 160.5625 26.351562 190.921875 26.351562 C 221.28125 26.351562 249.820312 38.171875 271.285156 59.640625 C 292.367188 80.726562 304.179688 108.777344 304.546875 138.621094 C 304.929688 169.511719 293.113281 198.546875 271.285156 220.378906 C 269.886719 221.789062 268.355469 223.238281 266.628906 224.777344 C 245.8125 243.40625 218.917969 253.667969 190.898438 253.667969 Z M 190.921875 36.292969 C 163.214844 36.292969 137.171875 47.082031 117.582031 66.671875 C 77.15625 107.109375 77.15625 172.90625 117.582031 213.34375 C 118.113281 213.878906 118.664062 214.414062 119.214844 214.9375 C 136.1875 231.191406 157.523438 240.980469 180.917969 243.246094 C 184.214844 243.566406 187.574219 243.726562 190.894531 243.726562 C 216.464844 243.726562 241.007812 234.363281 260.003906 217.363281 C 261.578125 215.957031 262.960938 214.648438 264.234375 213.363281 C 284.171875 193.421875 294.953125 166.929688 294.601562 138.742188 C 294.269531 111.507812 283.492188 85.914062 264.253906 66.671875 C 244.667969 47.082031 218.625 36.292969 190.921875 36.292969 Z M 190.921875 36.292969 " fill-opacity="1" fill-rule="nonzero"/><path fill="#ffffff" d="M 272.632812 177.726562 C 272.167969 177.726562 271.695312 177.636719 271.242188 177.441406 C 269.4375 176.671875 268.597656 174.585938 269.367188 172.78125 C 269.492188 172.488281 269.667969 172.128906 269.890625 171.683594 C 270.761719 169.929688 272.582031 166.277344 274.75 157.460938 C 275.21875 155.558594 277.144531 154.390625 279.046875 154.863281 C 280.953125 155.332031 282.117188 157.253906 281.648438 159.160156 C 279.292969 168.734375 277.238281 172.863281 276.25 174.847656 C 276.101562 175.140625 275.984375 175.375 275.902344 175.566406 C 275.324219 176.917969 274.015625 177.726562 272.632812 177.726562 Z M 272.632812 177.726562 " fill-opacity="1" fill-rule="nonzero"/><path fill="#ffffff" d="M 282.144531 139.828125 C 282.0625 139.828125 281.980469 139.824219 281.898438 139.820312 C 279.941406 139.683594 278.460938 137.988281 278.597656 136.03125 C 282.089844 85.121094 231.726562 65.617188 231.21875 65.425781 C 229.382812 64.738281 228.449219 62.691406 229.140625 60.855469 C 229.828125 59.019531 231.882812 58.089844 233.710938 58.777344 C 234.273438 58.988281 289.535156 80.386719 285.683594 136.519531 C 285.554688 138.394531 283.996094 139.828125 282.144531 139.828125 Z M 282.144531 139.828125 " fill-opacity="1" fill-rule="nonzero"/><path fill="#00558a" d="M 146.933594 278.761719 L 169.203125 312.636719 " fill-opacity="1" fill-rule="nonzero"/><path fill="#ffffff" d="M 169.203125 316.1875 C 168.050781 316.1875 166.917969 315.625 166.234375 314.589844 L 143.964844 280.714844 C 142.886719 279.078125 143.34375 276.875 144.984375 275.796875 C 146.621094 274.71875 148.824219 275.171875 149.902344 276.8125 L 172.167969 310.683594 C 173.246094 312.324219 172.792969 314.527344 171.152344 315.605469 C 170.550781 316 169.875 316.1875 169.203125 316.1875 Z M 169.203125 316.1875 " fill-opacity="1" fill-rule="nonzero"/><path fill="#00558a" d="M 133.976562 257.613281 L 136.75 261.945312 " fill-opacity="1" fill-rule="nonzero"/><path fill="#ffffff" d="M 136.753906 265.496094 C 135.582031 265.496094 134.4375 264.917969 133.757812 263.859375 L 130.988281 259.527344 C 129.929688 257.875 130.414062 255.679688 132.066406 254.621094 C 133.710938 253.566406 135.910156 254.042969 136.96875 255.695312 L 139.742188 260.027344 C 140.800781 261.679688 140.316406 263.875 138.664062 264.933594 C 138.074219 265.316406 137.410156 265.496094 136.753906 265.496094 Z M 136.753906 265.496094 " fill-opacity="1" fill-rule="nonzero"/><g clip-path="url(#e4b259c5a6)"><g clip-path="url(#7d942d3d8a)"><path fill="#00558a" d="M 69.265625 20.234375 L 305.734375 20.234375 L 305.734375 256.707031 L 69.265625 256.707031 Z M 69.265625 20.234375 " fill-opacity="1" fill-rule="nonzero"/></g></g><path fill="#ffffff" d="M 280.398438 160.113281 C 278.582031 144.394531 276.03125 128.753906 273.742188 113.085938 C 273.492188 111.304688 273.160156 109.539062 272.753906 107.785156 C 272.34375 106.035156 271.855469 104.304688 271.292969 102.59375 C 270.726562 100.886719 270.089844 99.207031 269.371094 97.554688 C 268.65625 95.902344 267.871094 94.289062 267.007812 92.707031 C 266.148438 91.128906 265.21875 89.589844 264.222656 88.089844 C 263.222656 86.59375 262.160156 85.144531 261.03125 83.742188 C 259.902344 82.34375 258.710938 80.992188 257.464844 79.699219 C 256.214844 78.40625 254.90625 77.167969 253.546875 75.992188 C 252.1875 74.8125 250.777344 73.699219 249.316406 72.648438 C 247.855469 71.597656 246.351562 70.613281 244.800781 69.699219 C 243.25 68.78125 241.664062 67.9375 240.039062 67.164062 C 238.414062 66.390625 236.757812 65.691406 235.070312 65.066406 C 233.382812 64.441406 231.671875 63.894531 229.933594 63.425781 C 228.199219 62.953125 226.445312 62.5625 224.671875 62.246094 C 222.898438 61.933594 221.117188 61.703125 219.324219 61.546875 C 217.53125 61.394531 215.734375 61.320312 213.9375 61.328125 C 206.082031 61.328125 198.230469 61.328125 190.382812 61.328125 C 190.398438 60.910156 190.445312 60.496094 190.527344 60.085938 C 191.082031 57.59375 192.300781 55.492188 194.1875 53.773438 C 195.101562 52.96875 196.113281 52.324219 197.226562 51.835938 C 197.644531 51.632812 197.660156 51.628906 197.265625 51.835938 C 197.703125 51.675781 198.140625 51.535156 198.589844 51.410156 C 199.261719 51.222656 199.929688 51.074219 200.628906 50.941406 C 200.855469 50.925781 201.082031 50.886719 201.300781 50.824219 C 201.539062 50.796875 201.777344 50.765625 202.015625 50.746094 C 202.847656 50.667969 203.695312 50.605469 204.515625 50.554688 C 206.066406 50.460938 207.613281 50.402344 209.164062 50.304688 C 216.257812 49.851562 223.503906 48.355469 228.214844 42.539062 C 229.359375 40.9375 230.308594 39.234375 231.070312 37.425781 C 231.832031 35.613281 232.382812 33.742188 232.726562 31.808594 C 233.070312 29.875 233.199219 27.925781 233.105469 25.964844 C 233.015625 24.003906 232.710938 22.074219 232.1875 20.183594 C 232.066406 19.757812 231.90625 19.351562 231.707031 18.957031 C 231.507812 18.566406 231.273438 18.199219 231 17.851562 C 230.730469 17.503906 230.425781 17.1875 230.09375 16.902344 C 229.757812 16.613281 229.402344 16.359375 229.019531 16.144531 C 228.636719 15.925781 228.238281 15.746094 227.820312 15.605469 C 227.402344 15.46875 226.976562 15.367188 226.539062 15.3125 C 226.101562 15.253906 225.664062 15.242188 225.226562 15.269531 C 224.785156 15.296875 224.355469 15.367188 223.929688 15.480469 C 223.507812 15.605469 223.101562 15.769531 222.710938 15.972656 C 222.324219 16.171875 221.957031 16.410156 221.613281 16.683594 C 221.265625 16.957031 220.953125 17.257812 220.667969 17.589844 C 220.382812 17.925781 220.128906 18.28125 219.914062 18.664062 C 219.695312 19.046875 219.515625 19.445312 219.375 19.859375 C 219.234375 20.277344 219.136719 20.699219 219.078125 21.136719 C 219.019531 21.570312 219.003906 22.007812 219.027344 22.445312 C 219.050781 22.882812 219.121094 23.316406 219.226562 23.742188 C 219.691406 26.378906 219.652344 29.007812 219.109375 31.628906 C 218.878906 32.539062 218.453125 33.351562 217.835938 34.058594 C 217.21875 34.769531 216.476562 35.300781 215.605469 35.65625 C 215.539062 35.628906 214.066406 36.167969 213.859375 36.222656 C 213.300781 36.359375 212.742188 36.464844 212.179688 36.558594 C 212.207031 36.535156 210.769531 36.734375 210.558594 36.753906 C 209.734375 36.820312 208.910156 36.871094 208.082031 36.917969 C 204.503906 37.035156 200.945312 37.367188 197.40625 37.90625 C 195.578125 38.234375 193.8125 38.757812 192.101562 39.476562 C 190.390625 40.195312 188.78125 41.097656 187.269531 42.175781 C 185.761719 43.253906 184.386719 44.484375 183.152344 45.867188 C 181.917969 47.253906 180.847656 48.753906 179.945312 50.378906 C 178.121094 53.789062 177.15625 57.425781 177.058594 61.292969 C 171.601562 61.292969 166.148438 61.273438 160.699219 61.367188 C 156.820312 61.402344 152.976562 61.753906 149.15625 62.417969 C 147.664062 62.699219 146.1875 63.035156 144.722656 63.425781 C 143.253906 63.820312 141.804688 64.265625 140.375 64.769531 C 138.941406 65.273438 137.53125 65.828125 136.140625 66.4375 C 134.753906 67.046875 133.386719 67.710938 132.050781 68.421875 C 130.710938 69.136719 129.398438 69.902344 128.117188 70.714844 C 126.835938 71.527344 125.589844 72.386719 124.371094 73.296875 C 123.15625 74.203125 121.976562 75.15625 120.835938 76.15625 C 119.691406 77.152344 118.585938 78.191406 117.523438 79.273438 C 116.457031 80.355469 115.4375 81.476562 114.457031 82.636719 C 113.476562 83.792969 112.542969 84.988281 111.65625 86.21875 C 110.769531 87.449219 109.925781 88.710938 109.136719 90.007812 C 108.34375 91.300781 107.601562 92.625 106.910156 93.972656 C 106.214844 95.324219 105.578125 96.699219 104.988281 98.097656 C 104.402344 99.5 103.867188 100.917969 103.390625 102.359375 C 102.910156 103.796875 102.484375 105.253906 102.117188 106.726562 C 101.75 108.199219 101.4375 109.679688 101.179688 111.175781 C 98.664062 127.097656 96.492188 143.078125 94.324219 159.054688 C 93.976562 161.308594 93.886719 163.574219 94.054688 165.851562 C 94.222656 168.125 94.644531 170.355469 95.320312 172.53125 C 95.996094 174.710938 96.910156 176.789062 98.058594 178.757812 C 99.210938 180.730469 100.566406 182.546875 102.128906 184.207031 C 102.5625 184.691406 103.007812 185.15625 103.46875 185.609375 C 103.929688 186.066406 104.40625 186.503906 104.894531 186.925781 C 105.382812 187.351562 105.882812 187.761719 106.398438 188.152344 C 106.910156 188.546875 107.433594 188.921875 107.972656 189.285156 C 108.507812 189.644531 109.054688 189.988281 109.613281 190.316406 C 110.171875 190.640625 110.742188 190.953125 111.316406 191.242188 C 111.894531 191.535156 112.480469 191.808594 113.074219 192.0625 C 113.667969 192.320312 114.269531 192.558594 114.878906 192.773438 C 115.488281 192.992188 116.101562 193.191406 116.722656 193.371094 C 117.34375 193.554688 117.972656 193.714844 118.601562 193.855469 C 119.234375 193.996094 119.867188 194.117188 120.507812 194.222656 C 121.144531 194.324219 121.785156 194.40625 122.429688 194.46875 C 123.074219 194.53125 123.71875 194.574219 124.367188 194.597656 C 125.011719 194.617188 125.660156 194.621094 126.304688 194.605469 C 126.953125 194.585938 127.597656 194.550781 128.242188 194.492188 C 128.886719 194.433594 129.527344 194.359375 130.167969 194.261719 C 130.804688 194.164062 131.441406 194.046875 132.074219 193.910156 C 132.707031 193.773438 133.332031 193.617188 133.957031 193.445312 C 134.578125 193.269531 135.195312 193.074219 135.804688 192.859375 C 136.417969 192.648438 137.019531 192.414062 137.617188 192.164062 C 138.210938 191.914062 138.800781 191.644531 139.378906 191.359375 C 139.960938 191.070312 140.53125 190.765625 141.089844 190.445312 C 141.652344 190.121094 142.203125 189.785156 142.742188 189.425781 C 143.28125 189.070312 143.808594 188.699219 144.324219 188.308594 C 144.84375 187.921875 145.347656 187.515625 145.839844 187.097656 C 146.332031 186.675781 146.808594 186.242188 147.273438 185.789062 C 147.738281 185.339844 148.1875 184.878906 148.625 184.398438 C 149.0625 183.921875 149.480469 183.433594 149.886719 182.929688 C 150.292969 182.425781 150.683594 181.910156 151.058594 181.382812 C 151.429688 180.851562 151.789062 180.3125 152.128906 179.765625 C 152.46875 179.214844 152.792969 178.65625 153.097656 178.085938 C 153.402344 177.515625 153.691406 176.9375 153.960938 176.347656 C 157.300781 169.492188 160.761719 162.699219 164.140625 155.867188 C 164.296875 155.457031 164.558594 155.136719 164.929688 154.90625 C 165.300781 154.671875 165.703125 154.578125 166.140625 154.617188 C 180.242188 154.65625 194.34375 154.65625 208.445312 154.617188 C 208.882812 154.566406 209.289062 154.65625 209.664062 154.882812 C 210.039062 155.109375 210.304688 155.425781 210.460938 155.835938 C 213.820312 162.621094 217.269531 169.351562 220.570312 176.164062 C 220.964844 177.039062 221.398438 177.890625 221.871094 178.722656 C 222.34375 179.558594 222.851562 180.367188 223.398438 181.152344 C 223.945312 181.941406 224.527344 182.699219 225.144531 183.433594 C 225.761719 184.167969 226.410156 184.871094 227.089844 185.542969 C 227.773438 186.21875 228.480469 186.859375 229.222656 187.46875 C 229.960938 188.078125 230.726562 188.648438 231.519531 189.1875 C 232.3125 189.726562 233.128906 190.226562 233.964844 190.691406 C 234.804688 191.15625 235.660156 191.578125 236.539062 191.964844 C 237.417969 192.351562 238.308594 192.695312 239.21875 192.996094 C 240.125 193.300781 241.046875 193.5625 241.980469 193.78125 C 242.914062 194 243.851562 194.175781 244.800781 194.308594 C 245.75 194.4375 246.703125 194.527344 247.660156 194.574219 C 248.617188 194.617188 249.574219 194.621094 250.53125 194.578125 C 251.488281 194.535156 252.441406 194.449219 253.390625 194.316406 C 254.339844 194.1875 255.28125 194.015625 256.214844 193.796875 C 257.148438 193.582031 258.070312 193.324219 258.976562 193.023438 C 259.824219 192.753906 260.65625 192.453125 261.476562 192.113281 C 262.296875 191.773438 263.097656 191.402344 263.886719 190.992188 C 264.671875 190.585938 265.441406 190.144531 266.191406 189.667969 C 266.941406 189.195312 267.667969 188.691406 268.375 188.152344 C 269.078125 187.617188 269.761719 187.050781 270.417969 186.453125 C 271.074219 185.859375 271.707031 185.238281 272.308594 184.585938 C 272.914062 183.9375 273.488281 183.265625 274.035156 182.566406 C 274.578125 181.867188 275.09375 181.144531 275.578125 180.402344 C 276.0625 179.660156 276.511719 178.894531 276.929688 178.113281 C 277.347656 177.332031 277.730469 176.535156 278.082031 175.71875 C 278.429688 174.902344 278.746094 174.074219 279.023438 173.234375 C 279.300781 172.390625 279.542969 171.539062 279.746094 170.675781 C 279.953125 169.8125 280.121094 168.945312 280.25 168.066406 C 280.378906 167.191406 280.472656 166.308594 280.527344 165.421875 C 280.582031 164.539062 280.597656 163.652344 280.578125 162.765625 C 280.554688 161.878906 280.496094 160.996094 280.398438 160.113281 Z M 167.261719 114.613281 L 153.980469 114.613281 L 153.980469 127.847656 L 140.796875 127.847656 L 140.796875 114.6875 L 127.367188 114.6875 C 127.367188 110.320312 127.339844 106.238281 127.425781 102.152344 C 127.425781 101.867188 128.292969 101.367188 128.769531 101.355469 C 132.0625 101.289062 135.359375 101.324219 138.65625 101.324219 L 140.667969 101.324219 L 140.667969 88.175781 L 153.914062 88.175781 L 153.914062 101.324219 C 157.96875 101.324219 161.71875 101.386719 165.460938 101.296875 C 166.914062 101.257812 167.351562 101.683594 167.308594 103.148438 C 167.183594 106.894531 167.261719 110.644531 167.261719 114.613281 Z M 227.363281 81.394531 C 227.945312 81.398438 228.519531 81.460938 229.089844 81.578125 C 229.660156 81.695312 230.210938 81.867188 230.746094 82.09375 C 231.28125 82.320312 231.789062 82.597656 232.269531 82.925781 C 232.75 83.25 233.195312 83.621094 233.601562 84.035156 C 234.011719 84.449219 234.375 84.902344 234.691406 85.386719 C 235.011719 85.875 235.277344 86.386719 235.496094 86.925781 C 235.714844 87.464844 235.878906 88.019531 235.984375 88.589844 C 236.09375 89.160156 236.144531 89.738281 236.136719 90.320312 C 236.132812 90.898438 236.070312 91.476562 235.949219 92.042969 C 235.832031 92.613281 235.660156 93.164062 235.429688 93.699219 C 235.203125 94.234375 234.925781 94.742188 234.59375 95.222656 C 234.265625 95.703125 233.894531 96.144531 233.480469 96.550781 C 233.0625 96.957031 232.613281 97.320312 232.125 97.636719 C 231.636719 97.953125 231.125 98.21875 230.585938 98.4375 C 230.046875 98.652344 229.488281 98.8125 228.917969 98.921875 C 228.347656 99.027344 227.769531 99.074219 227.191406 99.070312 C 226.609375 99.0625 226.035156 98.996094 225.464844 98.875 C 224.894531 98.753906 224.34375 98.582031 223.8125 98.351562 C 223.277344 98.121094 222.769531 97.839844 222.292969 97.511719 C 221.8125 97.183594 221.371094 96.808594 220.964844 96.390625 C 220.558594 95.976562 220.199219 95.523438 219.882812 95.035156 C 219.566406 94.546875 219.300781 94.03125 219.085938 93.492188 C 218.875 92.953125 218.714844 92.394531 218.609375 91.824219 C 218.503906 91.253906 218.457031 90.675781 218.464844 90.09375 C 218.472656 89.519531 218.535156 88.949219 218.65625 88.382812 C 218.773438 87.820312 218.945312 87.273438 219.171875 86.742188 C 219.402344 86.210938 219.675781 85.710938 220.003906 85.234375 C 220.328125 84.757812 220.699219 84.316406 221.109375 83.914062 C 221.523438 83.511719 221.96875 83.152344 222.453125 82.835938 C 222.933594 82.523438 223.445312 82.257812 223.980469 82.042969 C 224.515625 81.828125 225.066406 81.667969 225.632812 81.558594 C 226.199219 81.453125 226.769531 81.402344 227.347656 81.410156 Z M 209.566406 116.835938 C 208.988281 116.835938 208.410156 116.78125 207.839844 116.671875 C 207.269531 116.5625 206.714844 116.394531 206.179688 116.175781 C 205.640625 115.953125 205.128906 115.683594 204.644531 115.363281 C 204.160156 115.042969 203.710938 114.675781 203.300781 114.269531 C 202.886719 113.859375 202.519531 113.414062 202.195312 112.933594 C 201.871094 112.449219 201.59375 111.941406 201.371094 111.40625 C 201.144531 110.867188 200.976562 110.316406 200.859375 109.746094 C 200.746094 109.175781 200.6875 108.601562 200.683594 108.019531 C 200.679688 107.441406 200.734375 106.863281 200.847656 106.292969 C 200.957031 105.722656 201.125 105.167969 201.34375 104.632812 C 201.566406 104.09375 201.835938 103.582031 202.15625 103.097656 C 202.476562 102.613281 202.84375 102.167969 203.253906 101.753906 C 203.660156 101.339844 204.105469 100.972656 204.589844 100.648438 C 205.070312 100.324219 205.582031 100.050781 206.117188 99.824219 C 206.652344 99.601562 207.207031 99.429688 207.773438 99.316406 C 208.34375 99.199219 208.917969 99.140625 209.5 99.140625 C 210.082031 99.136719 210.65625 99.191406 211.226562 99.304688 C 211.796875 99.414062 212.351562 99.582031 212.890625 99.800781 C 213.425781 100.023438 213.9375 100.292969 214.421875 100.613281 C 214.90625 100.9375 215.355469 101.300781 215.765625 101.710938 C 216.179688 102.121094 216.546875 102.566406 216.871094 103.046875 C 217.195312 103.53125 217.46875 104.039062 217.695312 104.578125 C 217.917969 105.113281 218.085938 105.664062 218.203125 106.234375 C 218.316406 106.804688 218.375 107.378906 218.378906 107.960938 C 218.375 108.539062 218.316406 109.113281 218.199219 109.679688 C 218.085938 110.25 217.917969 110.800781 217.695312 111.335938 C 217.472656 111.867188 217.203125 112.378906 216.878906 112.859375 C 216.558594 113.339844 216.195312 113.789062 215.785156 114.199219 C 215.378906 114.609375 214.933594 114.976562 214.457031 115.300781 C 213.976562 115.625 213.46875 115.902344 212.9375 116.128906 C 212.402344 116.355469 211.851562 116.527344 211.285156 116.644531 C 210.71875 116.765625 210.148438 116.828125 209.566406 116.835938 Z M 227.363281 134.582031 C 226.78125 134.585938 226.207031 134.535156 225.636719 134.425781 C 225.066406 134.316406 224.511719 134.152344 223.972656 133.933594 C 223.433594 133.714844 222.921875 133.445312 222.4375 133.125 C 221.953125 132.804688 221.503906 132.441406 221.089844 132.035156 C 220.675781 131.625 220.308594 131.179688 219.980469 130.699219 C 219.65625 130.21875 219.378906 129.710938 219.152344 129.175781 C 218.925781 128.640625 218.753906 128.089844 218.636719 127.519531 C 218.519531 126.949219 218.460938 126.375 218.457031 125.792969 C 218.453125 125.214844 218.507812 124.636719 218.617188 124.066406 C 218.726562 123.496094 218.890625 122.941406 219.109375 122.40625 C 219.328125 121.867188 219.597656 121.355469 219.914062 120.871094 C 220.234375 120.382812 220.597656 119.933594 221.007812 119.519531 C 221.414062 119.109375 221.859375 118.738281 222.339844 118.414062 C 222.820312 118.085938 223.328125 117.808594 223.863281 117.585938 C 224.398438 117.359375 224.953125 117.1875 225.519531 117.070312 C 226.089844 116.953125 226.664062 116.890625 227.246094 116.886719 C 227.828125 116.882812 228.402344 116.9375 228.972656 117.046875 C 229.542969 117.15625 230.097656 117.320312 230.636719 117.539062 C 231.175781 117.757812 231.6875 118.027344 232.171875 118.347656 C 232.65625 118.667969 233.105469 119.03125 233.519531 119.4375 C 233.933594 119.847656 234.300781 120.289062 234.628906 120.773438 C 234.953125 121.253906 235.230469 121.761719 235.457031 122.296875 C 235.679688 122.832031 235.851562 123.382812 235.96875 123.953125 C 236.085938 124.519531 236.148438 125.097656 236.152344 125.675781 C 236.15625 126.257812 236.101562 126.832031 235.992188 127.402344 C 235.882812 127.976562 235.71875 128.527344 235.5 129.066406 C 235.28125 129.605469 235.011719 130.117188 234.691406 130.601562 C 234.375 131.085938 234.011719 131.535156 233.601562 131.949219 C 233.195312 132.363281 232.75 132.734375 232.269531 133.058594 C 231.789062 133.386719 231.28125 133.660156 230.746094 133.886719 C 230.210938 134.113281 229.65625 134.285156 229.089844 134.402344 C 228.519531 134.519531 227.945312 134.578125 227.363281 134.582031 Z M 244.96875 116.835938 C 244.390625 116.828125 243.816406 116.769531 243.25 116.652344 C 242.683594 116.535156 242.132812 116.363281 241.601562 116.136719 C 241.066406 115.910156 240.558594 115.636719 240.082031 115.3125 C 239.601562 114.988281 239.160156 114.617188 238.75 114.207031 C 238.34375 113.792969 237.980469 113.347656 237.660156 112.863281 C 237.34375 112.378906 237.074219 111.871094 236.855469 111.335938 C 236.636719 110.796875 236.472656 110.246094 236.359375 109.679688 C 236.25 109.109375 236.195312 108.535156 236.195312 107.957031 C 236.199219 107.378906 236.257812 106.804688 236.371094 106.234375 C 236.488281 105.667969 236.65625 105.117188 236.878906 104.582031 C 237.101562 104.046875 237.375 103.539062 237.695312 103.058594 C 238.019531 102.578125 238.386719 102.132812 238.796875 101.726562 C 239.207031 101.316406 239.652344 100.949219 240.132812 100.628906 C 240.613281 100.308594 241.125 100.035156 241.65625 99.8125 C 242.191406 99.59375 242.746094 99.425781 243.3125 99.3125 C 243.878906 99.199219 244.453125 99.140625 245.03125 99.140625 C 245.613281 99.140625 246.1875 99.195312 246.753906 99.308594 C 247.324219 99.417969 247.875 99.585938 248.410156 99.804688 C 248.945312 100.027344 249.453125 100.296875 249.9375 100.617188 C 250.417969 100.9375 250.867188 101.300781 251.277344 101.707031 C 251.6875 102.117188 252.054688 102.5625 252.378906 103.039062 C 252.703125 103.519531 252.976562 104.027344 253.203125 104.5625 C 253.425781 105.097656 253.597656 105.648438 253.710938 106.214844 C 253.828125 106.78125 253.886719 107.355469 253.890625 107.933594 C 253.894531 108.519531 253.84375 109.101562 253.730469 109.675781 C 253.621094 110.25 253.453125 110.8125 253.230469 111.351562 C 253.007812 111.894531 252.734375 112.410156 252.410156 112.898438 C 252.082031 113.386719 251.714844 113.835938 251.300781 114.25 C 250.882812 114.664062 250.433594 115.035156 249.945312 115.359375 C 249.457031 115.683594 248.941406 115.957031 248.398438 116.179688 C 247.855469 116.398438 247.296875 116.566406 246.71875 116.675781 C 246.144531 116.789062 245.5625 116.839844 244.976562 116.835938 Z M 244.96875 116.835938 " fill-opacity="1" fill-rule="nonzero"/></svg>