<svg xmlns="http://www.w3.org/2000/svg" xmlns:xlink="http://www.w3.org/1999/xlink" width="500" zoomAndPan="magnify" viewBox="0 0 375 374.999991" height="500" preserveAspectRatio="xMidYMid meet" version="1.0"><defs><g/></defs><g fill="#00558a" fill-opacity="1"><g transform="translate(19.205279, 162.390836)"><g><path d="M 17.03125 -45.625 C 16.375 -45.5625 15.734375 -45.5625 15.078125 -45.5 C 13.78125 -45.3125 12.484375 -45.171875 11.375 -44.453125 C 10.984375 -44.265625 10.53125 -44.0625 10.140625 -43.8125 C 8.84375 -42.96875 7.546875 -42.125 6.5625 -40.8125 C 5.65625 -39.578125 4.75 -38.421875 4.15625 -37.046875 C 3.25 -34.96875 2.796875 -32.765625 2.921875 -30.484375 C 2.984375 -29.578125 3.125 -28.671875 3.3125 -27.8125 C 3.4375 -27.109375 3.703125 -26.390625 4.03125 -25.671875 C 4.484375 -24.703125 5 -23.796875 5.78125 -23.078125 C 6.375 -22.5625 6.953125 -21.96875 7.609375 -21.453125 C 8.25 -20.9375 8.96875 -20.34375 9.6875 -19.890625 C 11.109375 -19.109375 12.546875 -18.390625 14.046875 -17.75 C 15.734375 -17.09375 17.21875 -16.0625 18.71875 -14.953125 C 19.171875 -14.5625 19.5625 -14.109375 19.828125 -13.515625 C 20.078125 -12.875 20.15625 -12.21875 20.015625 -11.5 C 20.015625 -11.25 19.953125 -11.046875 19.828125 -10.796875 C 19.3125 -9.75 18.453125 -9.171875 17.484375 -8.78125 C 16.578125 -8.390625 15.59375 -8.125 14.625 -8.390625 C 13.390625 -8.703125 12.09375 -9.09375 10.984375 -9.8125 C 10.265625 -10.265625 9.625 -10.859375 8.90625 -11.375 C 8.390625 -11.765625 7.796875 -12.03125 7.15625 -12.15625 C 6.5 -12.28125 5.84375 -12.28125 5.328125 -11.765625 C 4.75 -11.25 4.15625 -10.71875 3.640625 -10.203125 C 3.25 -9.875 3.0625 -9.421875 2.921875 -8.90625 C 2.53125 -7.546875 2.53125 -6.234375 3.25 -5.0625 C 3.96875 -3.828125 4.9375 -2.859375 6.171875 -2.078125 C 6.4375 -1.890625 6.765625 -1.6875 7.015625 -1.5 C 8.1875 -0.65625 9.5625 -0.0625 10.921875 0.390625 C 11.703125 0.578125 12.609375 0.78125 13.453125 0.90625 C 14.890625 1.109375 16.3125 1.109375 17.75 0.84375 C 18.453125 0.65625 19.171875 0.578125 19.828125 0.328125 C 21.390625 -0.265625 22.75 -1.234375 24.046875 -2.203125 C 25.09375 -3.0625 25.8125 -4.09375 26.578125 -5.140625 C 28.203125 -7.34375 28.984375 -9.8125 29.1875 -12.484375 C 29.3125 -14.5625 28.984375 -16.515625 28.28125 -18.453125 C 27.6875 -19.765625 26.96875 -21 25.8125 -21.90625 C 25.15625 -22.421875 24.640625 -23.015625 23.984375 -23.53125 C 22.75 -24.5625 21.3125 -25.28125 19.890625 -26 C 19.171875 -26.328125 18.390625 -26.578125 17.6875 -26.96875 C 16.1875 -27.75 14.75 -28.59375 13.453125 -29.640625 C 13 -29.96875 12.609375 -30.421875 12.34375 -31 C 12.03125 -31.65625 11.953125 -32.3125 12.03125 -32.953125 C 12.09375 -33.28125 12.09375 -33.609375 12.28125 -33.859375 C 12.609375 -34.25 12.8125 -34.640625 13.1875 -34.96875 C 13.71875 -35.484375 14.296875 -35.875 15.078125 -35.875 C 15.984375 -35.9375 16.90625 -35.9375 17.8125 -35.875 C 18.921875 -35.75 20.015625 -35.484375 21 -34.78125 C 21.25 -34.515625 21.578125 -34.3125 21.96875 -34.1875 C 22.75 -34 23.59375 -34.0625 24.375 -34.390625 C 25.21875 -34.640625 25.8125 -35.359375 26.390625 -36.078125 C 26.71875 -36.53125 27.046875 -36.984375 27.109375 -37.640625 C 27.234375 -38.421875 27.234375 -39.1875 27.109375 -40.046875 C 27.046875 -40.4375 26.78125 -40.8125 26.515625 -41.140625 C 25.734375 -42.0625 24.828125 -42.703125 23.921875 -43.359375 C 22.625 -44.328125 21.1875 -44.921875 19.625 -45.234375 C 18.78125 -45.5 17.9375 -45.625 17.03125 -45.625 Z M 17.03125 -45.625 "/></g></g></g><g fill="#00558a" fill-opacity="1"><g transform="translate(57.159268, 162.390836)"><g><path d="M 11.109375 -37.953125 C 11.109375 -39.78125 11.1875 -41.015625 11.109375 -42.3125 C 11.109375 -43.15625 10.859375 -44 10.40625 -44.78125 C 10.140625 -45.234375 9.75 -45.5 9.296875 -45.5 C 8 -45.5625 6.6875 -45.5625 5.390625 -45.625 C 4.8125 -45.625 4.359375 -45.375 4.09375 -44.921875 C 3.578125 -44.140625 3.125 -43.359375 2.984375 -42.4375 C 2.859375 -41.53125 2.796875 -40.6875 2.796875 -39.78125 C 2.59375 -36.65625 2.671875 -33.546875 2.859375 -30.359375 C 2.984375 -28.59375 3.0625 -26.84375 3.0625 -25.09375 C 3.0625 -21.390625 3.0625 -17.6875 3.0625 -13.90625 C 3.0625 -12.875 2.984375 -11.765625 2.984375 -10.65625 C 2.921875 -8.453125 2.796875 -6.234375 2.734375 -3.96875 C 2.734375 -2.984375 2.796875 -2.078125 3.25 -1.234375 C 3.4375 -0.78125 3.765625 -0.328125 4.09375 0 C 4.75 0.65625 5.65625 0.78125 6.5 0.78125 C 6.890625 0.84375 7.34375 0.78125 7.734375 0.78125 C 8.640625 0.78125 9.359375 0.453125 9.875 -0.328125 C 10.078125 -0.65625 10.265625 -0.90625 10.40625 -1.234375 C 10.59375 -1.5625 10.71875 -1.953125 10.71875 -2.28125 C 10.859375 -2.859375 10.859375 -3.515625 10.921875 -4.09375 C 10.984375 -5.390625 11.046875 -6.625 11.109375 -7.9375 C 11.1875 -9.359375 11.1875 -10.796875 11.25 -12.15625 C 11.3125 -14.6875 11.4375 -17.15625 11.5 -19.625 C 11.5 -22.8125 11.5 -25.9375 11.5 -29.125 C 11.4375 -30.6875 11.4375 -32.234375 11.375 -33.859375 C 11.3125 -35.421875 11.1875 -36.984375 11.109375 -37.953125 Z M 11.109375 -37.953125 "/></g></g></g><g fill="#00558a" fill-opacity="1"><g transform="translate(75.877167, 162.390836)"><g><path d="M 2.46875 -24.375 C 2.53125 -20.546875 2.53125 -16.765625 2.59375 -13 C 2.59375 -12.609375 2.671875 -12.21875 2.671875 -11.828125 C 2.796875 -9.9375 2.921875 -8 3.0625 -6.109375 C 3.125 -5.0625 3.125 -4.09375 3.1875 -3.0625 C 3.25 -2.796875 3.25 -2.53125 3.3125 -2.28125 C 3.640625 -1.234375 4.359375 -0.515625 5.265625 0 C 5.390625 0.125 5.65625 0.125 5.78125 0.125 C 6.375 0.1875 6.953125 0.1875 7.546875 0.1875 C 9.234375 0.1875 10.921875 0.1875 12.609375 0.125 C 13.328125 0.125 13.96875 0.0625 14.625 0.0625 C 15.734375 0 16.828125 0 17.9375 -0.125 C 18.78125 -0.1875 19.5625 -0.1875 20.34375 -0.390625 C 21.0625 -0.515625 21.703125 -0.84375 22.359375 -1.109375 C 23.921875 -1.8125 25.484375 -2.59375 26.78125 -3.828125 C 27.234375 -4.21875 27.75 -4.609375 28.140625 -5.140625 C 29.25 -6.5625 30.21875 -8.125 30.9375 -9.8125 C 31.265625 -10.65625 31.65625 -11.5 31.78125 -12.421875 C 31.78125 -12.734375 31.84375 -13.0625 31.984375 -13.453125 C 32.375 -15.078125 32.890625 -16.703125 33.015625 -18.390625 C 33.15625 -19.828125 33.21875 -21.3125 33.28125 -22.75 C 33.34375 -25.21875 33.078125 -27.625 33.015625 -30.09375 C 33.015625 -30.15625 33.015625 -30.296875 33.015625 -30.421875 C 32.828125 -31.53125 32.6875 -32.5625 32.5625 -33.671875 C 32.5 -34 32.375 -34.390625 32.3125 -34.703125 C 32.171875 -35.03125 32.109375 -35.359375 31.984375 -35.6875 C 31.65625 -36.53125 31.390625 -37.4375 31 -38.21875 C 30.6875 -39 30.21875 -39.71875 29.765625 -40.4375 C 29.125 -41.46875 28.28125 -42.3125 27.234375 -43.03125 C 25.9375 -43.9375 24.4375 -44.453125 23.015625 -45.046875 C 22.875 -45.109375 22.6875 -45.109375 22.5625 -45.171875 C 22.09375 -45.234375 21.640625 -45.375 21.1875 -45.4375 C 20.40625 -45.5625 19.625 -45.765625 18.84375 -45.828125 C 17.296875 -45.953125 15.671875 -46.015625 14.046875 -46.078125 C 12.8125 -46.15625 11.5625 -46.21875 10.328125 -46.078125 C 9.09375 -45.953125 7.796875 -45.828125 6.5625 -45.828125 C 5.265625 -45.890625 3.640625 -44.65625 3.375 -43.296875 C 3.1875 -42.0625 2.796875 -40.890625 2.796875 -39.65625 C 2.734375 -38.546875 2.53125 -37.4375 2.53125 -36.328125 C 2.46875 -32.3125 2.46875 -28.34375 2.46875 -24.375 Z M 12.9375 -21.578125 C 12.9375 -23.203125 12.875 -24.765625 12.875 -26.390625 C 12.875 -27.296875 12.875 -28.203125 12.875 -29.125 C 12.9375 -29.703125 12.9375 -30.359375 13 -31 C 13.0625 -31.65625 13.1875 -32.3125 13.328125 -32.953125 C 13.390625 -33.28125 13.390625 -33.609375 13.453125 -33.9375 C 13.578125 -34.453125 13.78125 -34.96875 13.90625 -35.421875 C 14.046875 -35.875 14.4375 -36.140625 14.890625 -36.078125 C 15.40625 -36.015625 15.984375 -36.015625 16.515625 -35.875 C 17.296875 -35.6875 18.0625 -35.359375 18.84375 -35.09375 C 18.984375 -35.09375 19.109375 -34.96875 19.171875 -34.90625 C 20.671875 -33.609375 21.96875 -32.234375 22.6875 -30.359375 C 23.265625 -28.734375 23.53125 -27.109375 23.59375 -25.421875 C 23.65625 -22.6875 23.40625 -20.078125 22.75 -17.421875 C 22.359375 -15.859375 21.703125 -14.4375 20.734375 -13.1875 C 20.34375 -12.734375 19.953125 -12.421875 19.5 -12.15625 C 18.203125 -11.5 16.828125 -10.921875 15.40625 -10.46875 C 15.078125 -10.40625 14.75 -10.40625 14.5 -10.40625 C 13.65625 -10.53125 13.1875 -11.046875 13.125 -11.828125 C 13.125 -12.875 13.125 -13.96875 13.125 -15.015625 C 13.0625 -17.21875 13 -19.375 12.9375 -21.578125 Z M 12.9375 -21.578125 "/></g></g></g><g fill="#00558a" fill-opacity="1"><g transform="translate(115.390817, 162.390836)"><g><path d="M 19.890625 -8.125 C 19.890625 -8.125 19.890625 -8.1875 19.890625 -8.1875 C 19.046875 -8.1875 18.265625 -8.1875 17.421875 -8.1875 C 16.765625 -8.25 16.125 -8.25 15.46875 -8.3125 C 14.6875 -8.453125 14.046875 -8.84375 13.96875 -9.75 C 13.90625 -10.265625 13.78125 -10.859375 13.78125 -11.375 C 13.71875 -13 13.71875 -14.5625 13.90625 -16.1875 C 13.96875 -17.296875 13.90625 -18.390625 14.171875 -19.5 C 14.296875 -20.015625 14.5 -20.34375 15.078125 -20.40625 C 15.734375 -20.46875 16.4375 -20.609375 17.15625 -20.671875 C 18.203125 -20.734375 19.3125 -20.796875 20.40625 -20.9375 C 20.546875 -20.9375 20.671875 -20.9375 20.796875 -21 C 21.390625 -21 21.96875 -21.125 22.5625 -21.125 C 23.265625 -21.125 23.921875 -21.390625 24.5 -21.84375 C 25.28125 -22.421875 25.671875 -23.203125 25.671875 -24.25 C 25.671875 -24.765625 25.671875 -25.21875 25.546875 -25.734375 C 25.421875 -26.1875 25.421875 -26.65625 25.28125 -27.109375 C 25.03125 -28.34375 24.046875 -29.1875 22.75 -29.1875 C 21.453125 -29.25 20.078125 -29.125 18.71875 -29.25 C 18.453125 -29.25 18.203125 -29.25 17.9375 -29.25 C 17.21875 -29.25 16.4375 -29.1875 15.734375 -29.1875 C 15.46875 -29.1875 15.28125 -29.1875 15.078125 -29.25 C 14.4375 -29.4375 14.171875 -29.90625 14.046875 -30.546875 C 14.046875 -30.75 14.046875 -30.9375 14.046875 -31.140625 C 14.046875 -31.984375 14.046875 -32.828125 14.109375 -33.671875 C 14.109375 -34.390625 14.5 -34.84375 15.203125 -34.96875 C 15.734375 -35.09375 16.3125 -35.234375 16.828125 -35.296875 C 17.15625 -35.359375 17.484375 -35.359375 17.75 -35.421875 C 18.59375 -35.625 19.4375 -35.625 20.28125 -35.625 C 21.578125 -35.625 22.875 -35.484375 24.109375 -35.8125 C 24.3125 -35.8125 24.4375 -35.8125 24.640625 -35.8125 C 25.28125 -35.875 25.9375 -35.8125 26.515625 -36.015625 C 27.296875 -36.265625 27.953125 -36.71875 28.53125 -37.25 C 28.859375 -37.5625 29.0625 -37.890625 29.125 -38.34375 C 29.4375 -40.046875 29.375 -41.734375 28.984375 -43.421875 C 28.859375 -44.140625 28.46875 -44.78125 27.75 -45.109375 C 27.5 -45.234375 27.171875 -45.375 26.84375 -45.4375 C 26.328125 -45.5625 25.8125 -45.765625 25.28125 -45.765625 C 24.109375 -45.765625 22.9375 -45.765625 21.78125 -45.625 C 19.765625 -45.5 17.75 -45.5625 15.734375 -45.625 C 14.296875 -45.765625 12.875 -45.828125 11.4375 -45.890625 C 10.328125 -45.953125 9.234375 -45.953125 8.125 -46.015625 C 7.40625 -46.078125 6.6875 -45.953125 5.984375 -45.765625 C 5.453125 -45.5625 5.0625 -45.234375 4.8125 -44.78125 C 4.296875 -43.875 4.03125 -42.90625 3.703125 -41.921875 C 3.578125 -41.46875 3.4375 -41.078125 3.4375 -40.625 C 3.3125 -39.578125 3.1875 -38.609375 3.1875 -37.640625 C 3.25 -34.1875 3.3125 -30.8125 3.4375 -27.359375 C 3.4375 -27.234375 3.4375 -27.046875 3.4375 -26.84375 C 3.515625 -24.828125 3.703125 -22.75 3.515625 -20.671875 C 3.375 -19.6875 3.4375 -18.65625 3.375 -17.6875 C 3.25 -15.140625 3.1875 -12.609375 3.0625 -10.078125 C 2.921875 -8.1875 2.859375 -6.3125 2.734375 -4.359375 C 2.59375 -3.125 2.796875 -2.015625 3.1875 -0.90625 C 3.25 -0.71875 3.3125 -0.578125 3.4375 -0.453125 C 3.90625 -0.0625 4.421875 0.265625 4.9375 0.65625 C 5 0.65625 5.140625 0.65625 5.203125 0.65625 C 6.5625 0.71875 7.9375 0.78125 9.296875 0.78125 C 11.5625 0.71875 13.84375 0.65625 16.1875 0.578125 C 17.15625 0.515625 18.140625 0.65625 19.171875 0.578125 C 20.609375 0.578125 22.09375 0.515625 23.53125 0.453125 C 24.109375 0.453125 24.640625 0.515625 25.15625 0.515625 C 26.0625 0.515625 26.90625 0.515625 27.8125 0.453125 C 28.34375 0.390625 28.796875 0.125 29.0625 -0.390625 C 29.25 -0.90625 29.515625 -1.4375 29.578125 -1.953125 C 29.828125 -3.640625 29.765625 -5.265625 29.0625 -6.890625 C 28.59375 -7.9375 27.75 -8.453125 26.578125 -8.390625 C 24.375 -8.3125 22.09375 -8.25 19.890625 -8.125 Z M 19.890625 -8.125 "/></g></g></g><g fill="#00558a" fill-opacity="1"><g transform="translate(152.824892, 162.390836)"><g/></g></g><g fill="#00558a" fill-opacity="1"><g transform="translate(170.24306, 162.390836)"><g><path d="M 34 -23.078125 C 34 -24.5625 33.9375 -26.125 33.609375 -27.625 C 33.609375 -27.890625 33.546875 -28.140625 33.546875 -28.40625 C 33.46875 -29.3125 33.40625 -30.296875 33.28125 -31.265625 C 33.15625 -32.3125 32.765625 -33.28125 32.5 -34.3125 C 31.984375 -36.078125 31.140625 -37.640625 30.15625 -39.1875 C 29.25 -40.8125 27.953125 -42.0625 26.453125 -43.09375 C 25.03125 -44.140625 23.40625 -44.53125 21.703125 -44.78125 C 20.46875 -44.984375 19.234375 -45.046875 17.9375 -45.046875 C 15.984375 -45.109375 14.296875 -44.390625 12.609375 -43.546875 C 12.484375 -43.484375 12.421875 -43.421875 12.28125 -43.296875 C 11.953125 -43.03125 11.640625 -42.765625 11.3125 -42.578125 C 10.078125 -41.734375 9.03125 -40.75 8.1875 -39.515625 C 6.890625 -37.5625 5.921875 -35.421875 5.0625 -33.21875 C 4.484375 -31.59375 4.09375 -29.90625 3.640625 -28.203125 C 3.1875 -26.453125 3.125 -24.703125 2.796875 -22.9375 C 2.59375 -21.703125 2.671875 -20.46875 2.734375 -19.171875 C 2.796875 -17.15625 3.125 -15.140625 3.515625 -13.125 C 3.828125 -11.828125 4.09375 -10.53125 4.359375 -9.234375 C 4.8125 -7.078125 5.78125 -5.203125 7.078125 -3.4375 C 7.796875 -2.46875 8.515625 -1.5 9.5625 -0.84375 C 10.65625 -0.125 11.828125 0.453125 13 0.96875 C 13.96875 1.359375 15.078125 1.5 16.125 1.5625 C 17.21875 1.625 18.265625 1.625 19.375 1.5625 C 20.546875 1.5625 21.703125 1.359375 22.875 0.90625 C 23.53125 0.65625 24.1875 0.390625 24.828125 0.0625 C 24.890625 0 25.03125 -0.0625 25.09375 -0.125 C 25.546875 -0.390625 26 -0.390625 26.515625 -0.328125 C 26.78125 -0.265625 26.96875 -0.125 27.171875 0.125 C 27.296875 0.390625 27.4375 0.578125 27.625 0.84375 C 28.28125 1.75 28.921875 2.734375 30.03125 3.25 C 30.546875 3.578125 31.203125 3.578125 31.78125 3.578125 C 32.234375 3.578125 32.5 3.25 32.828125 2.984375 C 33.859375 2.34375 34.453125 1.296875 35.09375 0.265625 C 35.296875 0 35.421875 -0.328125 35.5625 -0.578125 C 35.8125 -1.4375 35.75 -2.28125 35.625 -3.125 C 35.625 -3.640625 35.421875 -4.03125 35.03125 -4.484375 C 34.390625 -5.203125 33.734375 -6.046875 33.15625 -6.890625 C 32.6875 -7.46875 32.4375 -8.125 32.4375 -8.84375 C 32.375 -9.625 32.4375 -10.46875 32.5625 -11.25 C 33.015625 -13.125 33.34375 -15.015625 33.46875 -16.90625 C 33.546875 -17.6875 33.609375 -18.453125 33.671875 -19.171875 C 33.796875 -20.46875 33.859375 -21.78125 34 -23.078125 Z M 11.765625 -21 C 11.828125 -23.265625 11.890625 -25.484375 12.34375 -27.6875 C 12.671875 -29.3125 13 -30.9375 13.515625 -32.5 C 13.78125 -33.21875 14.046875 -33.9375 14.6875 -34.453125 C 15.671875 -35.296875 16.828125 -35.75 18.0625 -35.6875 C 19.3125 -35.6875 20.46875 -35.359375 21.578125 -34.96875 C 22.625 -34.515625 23.328125 -33.671875 23.859375 -32.625 C 24.5625 -31.203125 24.890625 -29.703125 25.15625 -28.140625 C 25.546875 -26.0625 25.609375 -23.921875 25.609375 -21.84375 C 25.546875 -20.859375 25.28125 -19.953125 25.03125 -18.984375 C 24.828125 -18.453125 24.4375 -18.328125 23.984375 -18.71875 C 23.71875 -18.921875 23.40625 -18.984375 23.078125 -19.046875 C 20.734375 -19.3125 19.109375 -17.6875 18.453125 -16.25 C 18 -15.28125 17.75 -14.296875 17.8125 -13.265625 C 17.8125 -13 17.875 -12.734375 17.9375 -12.546875 C 18.203125 -11.703125 18.390625 -10.859375 18.921875 -10.140625 C 19.234375 -9.6875 19.234375 -9.03125 19.046875 -8.515625 C 18.921875 -8.1875 18.65625 -8 18.328125 -7.9375 C 18.0625 -7.9375 17.875 -7.9375 17.609375 -7.9375 C 16.90625 -8.0625 16.1875 -8.3125 15.53125 -8.703125 C 14.5625 -9.171875 14.171875 -10.015625 13.71875 -10.859375 C 12.609375 -13.0625 12.21875 -15.46875 11.890625 -17.875 C 11.828125 -18.84375 11.828125 -19.953125 11.765625 -21 Z M 11.765625 -21 "/></g></g></g><g fill="#00558a" fill-opacity="1"><g transform="translate(214.695702, 162.390836)"><g><path d="M 30.359375 -29.4375 C 30.421875 -29.4375 30.421875 -29.4375 30.421875 -29.4375 C 30.421875 -32.4375 30.421875 -35.359375 30.421875 -38.34375 C 30.421875 -39.390625 30.421875 -40.359375 30.484375 -41.40625 C 30.546875 -42.375 30.21875 -43.15625 29.765625 -44 C 29.4375 -44.453125 29.0625 -44.84375 28.53125 -44.921875 C 27.953125 -45.109375 27.359375 -45.234375 26.84375 -45.171875 C 26.125 -45.109375 25.484375 -44.84375 24.828125 -44.65625 C 24.703125 -44.65625 24.5625 -44.53125 24.4375 -44.390625 C 23.53125 -43.15625 22.9375 -41.796875 22.8125 -40.234375 C 22.6875 -39.125 22.625 -38.03125 22.5625 -36.921875 C 22.359375 -34.640625 22.09375 -32.4375 21.96875 -30.15625 C 21.78125 -26.265625 21.703125 -22.421875 21.515625 -18.53125 C 21.390625 -16.0625 21.0625 -13.71875 20.28125 -11.375 C 19.953125 -10.265625 19.5 -9.234375 18.84375 -8.3125 C 18.53125 -7.796875 18.0625 -7.46875 17.546875 -7.28125 C 16.640625 -6.953125 15.734375 -6.953125 14.8125 -7.21875 C 14.625 -7.28125 14.4375 -7.40625 14.234375 -7.46875 C 13.0625 -8.390625 12.28125 -9.5625 11.765625 -10.859375 C 11.25 -12.15625 10.984375 -13.515625 10.921875 -14.890625 C 10.796875 -16.765625 10.71875 -18.71875 10.71875 -20.609375 C 10.65625 -22.9375 10.71875 -25.28125 10.71875 -27.625 C 10.71875 -28.140625 10.796875 -28.671875 10.796875 -29.1875 C 10.859375 -29.90625 10.921875 -30.609375 10.921875 -31.328125 C 10.921875 -31.71875 10.921875 -32.046875 10.921875 -32.4375 C 10.984375 -34.78125 11.25 -37.109375 11.109375 -39.453125 C 11.109375 -40.625 10.984375 -41.796875 10.59375 -42.828125 C 10.40625 -43.296875 10.203125 -43.75 9.8125 -44.140625 C 8.96875 -45.109375 7.15625 -45.3125 5.921875 -44.65625 C 4.9375 -44.140625 4.21875 -43.296875 4.03125 -42.1875 C 3.703125 -41.015625 3.4375 -39.84375 3.1875 -38.671875 C 3.125 -38.484375 3.0625 -38.21875 3.0625 -37.953125 C 3.0625 -37.109375 2.984375 -36.265625 2.984375 -35.421875 C 2.859375 -31.59375 2.796875 -27.8125 2.671875 -24.046875 C 2.59375 -21.84375 2.734375 -19.625 2.984375 -17.484375 C 3.0625 -16.703125 3.125 -15.921875 3.1875 -15.140625 C 3.25 -14.4375 3.3125 -13.65625 3.4375 -12.9375 C 3.640625 -11.5625 3.96875 -10.265625 4.296875 -8.96875 C 4.609375 -7.9375 4.9375 -6.828125 5.453125 -5.84375 C 5.78125 -5.265625 6.046875 -4.609375 6.3125 -4.03125 C 6.765625 -3.1875 7.28125 -2.28125 8.0625 -1.625 C 9.03125 -0.84375 10.140625 -0.125 11.375 0.328125 C 12.15625 0.578125 13.0625 0.84375 13.84375 1.171875 C 14.8125 1.5625 15.859375 1.6875 16.90625 1.6875 C 18 1.625 19.046875 1.5625 20.078125 1.296875 C 20.671875 1.109375 21.25 0.96875 21.78125 0.84375 C 22.9375 0.453125 24.046875 0 24.890625 -0.90625 C 25.03125 -1.046875 25.21875 -1.171875 25.421875 -1.359375 C 25.671875 -1.625 26 -1.890625 26.265625 -2.140625 C 27.5625 -3.578125 28.203125 -5.328125 28.734375 -7.078125 C 29.578125 -9.75 29.90625 -12.546875 30.09375 -15.28125 C 30.21875 -17.09375 30.296875 -18.84375 30.296875 -20.671875 C 30.359375 -23.59375 30.359375 -26.515625 30.359375 -29.4375 Z M 30.359375 -29.4375 "/></g></g></g><g fill="#00558a" fill-opacity="1"><g transform="translate(252.649691, 162.390836)"><g><path d="M 19.890625 -8.125 C 19.890625 -8.125 19.890625 -8.1875 19.890625 -8.1875 C 19.046875 -8.1875 18.265625 -8.1875 17.421875 -8.1875 C 16.765625 -8.25 16.125 -8.25 15.46875 -8.3125 C 14.6875 -8.453125 14.046875 -8.84375 13.96875 -9.75 C 13.90625 -10.265625 13.78125 -10.859375 13.78125 -11.375 C 13.71875 -13 13.71875 -14.5625 13.90625 -16.1875 C 13.96875 -17.296875 13.90625 -18.390625 14.171875 -19.5 C 14.296875 -20.015625 14.5 -20.34375 15.078125 -20.40625 C 15.734375 -20.46875 16.4375 -20.609375 17.15625 -20.671875 C 18.203125 -20.734375 19.3125 -20.796875 20.40625 -20.9375 C 20.546875 -20.9375 20.671875 -20.9375 20.796875 -21 C 21.390625 -21 21.96875 -21.125 22.5625 -21.125 C 23.265625 -21.125 23.921875 -21.390625 24.5 -21.84375 C 25.28125 -22.421875 25.671875 -23.203125 25.671875 -24.25 C 25.671875 -24.765625 25.671875 -25.21875 25.546875 -25.734375 C 25.421875 -26.1875 25.421875 -26.65625 25.28125 -27.109375 C 25.03125 -28.34375 24.046875 -29.1875 22.75 -29.1875 C 21.453125 -29.25 20.078125 -29.125 18.71875 -29.25 C 18.453125 -29.25 18.203125 -29.25 17.9375 -29.25 C 17.21875 -29.25 16.4375 -29.1875 15.734375 -29.1875 C 15.46875 -29.1875 15.28125 -29.1875 15.078125 -29.25 C 14.4375 -29.4375 14.171875 -29.90625 14.046875 -30.546875 C 14.046875 -30.75 14.046875 -30.9375 14.046875 -31.140625 C 14.046875 -31.984375 14.046875 -32.828125 14.109375 -33.671875 C 14.109375 -34.390625 14.5 -34.84375 15.203125 -34.96875 C 15.734375 -35.09375 16.3125 -35.234375 16.828125 -35.296875 C 17.15625 -35.359375 17.484375 -35.359375 17.75 -35.421875 C 18.59375 -35.625 19.4375 -35.625 20.28125 -35.625 C 21.578125 -35.625 22.875 -35.484375 24.109375 -35.8125 C 24.3125 -35.8125 24.4375 -35.8125 24.640625 -35.8125 C 25.28125 -35.875 25.9375 -35.8125 26.515625 -36.015625 C 27.296875 -36.265625 27.953125 -36.71875 28.53125 -37.25 C 28.859375 -37.5625 29.0625 -37.890625 29.125 -38.34375 C 29.4375 -40.046875 29.375 -41.734375 28.984375 -43.421875 C 28.859375 -44.140625 28.46875 -44.78125 27.75 -45.109375 C 27.5 -45.234375 27.171875 -45.375 26.84375 -45.4375 C 26.328125 -45.5625 25.8125 -45.765625 25.28125 -45.765625 C 24.109375 -45.765625 22.9375 -45.765625 21.78125 -45.625 C 19.765625 -45.5 17.75 -45.5625 15.734375 -45.625 C 14.296875 -45.765625 12.875 -45.828125 11.4375 -45.890625 C 10.328125 -45.953125 9.234375 -45.953125 8.125 -46.015625 C 7.40625 -46.078125 6.6875 -45.953125 5.984375 -45.765625 C 5.453125 -45.5625 5.0625 -45.234375 4.8125 -44.78125 C 4.296875 -43.875 4.03125 -42.90625 3.703125 -41.921875 C 3.578125 -41.46875 3.4375 -41.078125 3.4375 -40.625 C 3.3125 -39.578125 3.1875 -38.609375 3.1875 -37.640625 C 3.25 -34.1875 3.3125 -30.8125 3.4375 -27.359375 C 3.4375 -27.234375 3.4375 -27.046875 3.4375 -26.84375 C 3.515625 -24.828125 3.703125 -22.75 3.515625 -20.671875 C 3.375 -19.6875 3.4375 -18.65625 3.375 -17.6875 C 3.25 -15.140625 3.1875 -12.609375 3.0625 -10.078125 C 2.921875 -8.1875 2.859375 -6.3125 2.734375 -4.359375 C 2.59375 -3.125 2.796875 -2.015625 3.1875 -0.90625 C 3.25 -0.71875 3.3125 -0.578125 3.4375 -0.453125 C 3.90625 -0.0625 4.421875 0.265625 4.9375 0.65625 C 5 0.65625 5.140625 0.65625 5.203125 0.65625 C 6.5625 0.71875 7.9375 0.78125 9.296875 0.78125 C 11.5625 0.71875 13.84375 0.65625 16.1875 0.578125 C 17.15625 0.515625 18.140625 0.65625 19.171875 0.578125 C 20.609375 0.578125 22.09375 0.515625 23.53125 0.453125 C 24.109375 0.453125 24.640625 0.515625 25.15625 0.515625 C 26.0625 0.515625 26.90625 0.515625 27.8125 0.453125 C 28.34375 0.390625 28.796875 0.125 29.0625 -0.390625 C 29.25 -0.90625 29.515625 -1.4375 29.578125 -1.953125 C 29.828125 -3.640625 29.765625 -5.265625 29.0625 -6.890625 C 28.59375 -7.9375 27.75 -8.453125 26.578125 -8.390625 C 24.375 -8.3125 22.09375 -8.25 19.890625 -8.125 Z M 19.890625 -8.125 "/></g></g></g><g fill="#00558a" fill-opacity="1"><g transform="translate(290.083766, 162.390836)"><g><path d="M 3.0625 -7.46875 C 2.984375 -6.046875 3.1875 -4.6875 4.09375 -3.515625 C 4.09375 -3.4375 4.15625 -3.375 4.15625 -3.3125 C 4.609375 -2.46875 5.265625 -1.625 6.171875 -1.171875 C 6.3125 -1.109375 6.4375 -0.96875 6.5625 -0.90625 C 6.765625 -0.78125 6.953125 -0.65625 7.15625 -0.578125 C 7.9375 -0.265625 8.703125 -0.0625 9.484375 0.328125 C 10.46875 0.84375 11.5625 1.171875 12.609375 1.5 C 14.046875 2.015625 15.53125 2.015625 17.09375 1.6875 C 17.9375 1.5 18.78125 1.234375 19.625 0.90625 C 21.0625 0.328125 22.296875 -0.515625 23.46875 -1.4375 C 24.5 -2.203125 25.21875 -3.25 25.9375 -4.296875 C 26.453125 -5 26.90625 -5.71875 27.296875 -6.5 C 28.140625 -8.3125 28.671875 -10.203125 28.59375 -12.21875 C 28.53125 -13.65625 28.40625 -15.078125 28.28125 -16.4375 C 28.015625 -18.59375 27.046875 -20.40625 25.421875 -21.84375 C 25.09375 -22.171875 24.703125 -22.484375 24.3125 -22.75 C 23.015625 -23.859375 21.578125 -24.890625 20.078125 -25.734375 C 18.65625 -26.453125 17.15625 -27.171875 15.734375 -27.75 C 15.078125 -28.015625 14.5 -28.34375 13.90625 -28.59375 C 12.9375 -29.125 12.609375 -30.03125 12.15625 -30.9375 C 12.09375 -31.0625 12.09375 -31.203125 12.09375 -31.328125 C 12.03125 -32.3125 12.28125 -33.078125 12.8125 -33.859375 C 13.265625 -34.515625 13.78125 -34.84375 14.5 -34.96875 C 15.34375 -35.09375 16.25 -35.03125 17.15625 -35.03125 C 17.875 -35.03125 18.53125 -34.78125 19.171875 -34.515625 C 19.6875 -34.3125 20.21875 -34.0625 20.734375 -33.9375 C 21.78125 -33.609375 22.8125 -33.40625 23.796875 -34.0625 C 23.859375 -34.0625 23.921875 -34.125 23.984375 -34.125 C 24.703125 -34.515625 25.34375 -35.03125 25.8125 -35.8125 C 26.0625 -36.203125 26.265625 -36.65625 26.453125 -37.109375 C 26.578125 -37.3125 26.65625 -37.5 26.65625 -37.703125 C 26.84375 -38.9375 26.84375 -38.9375 26.390625 -40.109375 C 26.328125 -40.296875 26.265625 -40.4375 26.1875 -40.625 C 26.125 -40.6875 26.0625 -40.8125 26 -40.890625 C 25.609375 -41.28125 25.21875 -41.671875 24.828125 -41.921875 C 23.859375 -42.640625 22.9375 -43.359375 21.90625 -43.875 C 21 -44.328125 20.078125 -44.71875 19.109375 -44.921875 C 17.21875 -45.234375 15.34375 -45.234375 13.453125 -44.921875 C 12.734375 -44.78125 12.03125 -44.59375 11.3125 -44.390625 C 10.859375 -44.265625 10.46875 -44.140625 10.078125 -43.875 C 8.96875 -43.21875 7.9375 -42.4375 7.078125 -41.46875 C 6.375 -40.6875 5.53125 -40.046875 5 -39.1875 C 4.609375 -38.421875 4.09375 -37.765625 3.703125 -36.984375 C 3.125 -35.8125 2.859375 -34.578125 2.53125 -33.28125 C 2.53125 -33.21875 2.53125 -33.15625 2.53125 -33.078125 C 2.53125 -31.984375 2.53125 -30.875 2.59375 -29.765625 C 2.734375 -28.140625 3.125 -26.578125 3.90625 -25.15625 C 4.484375 -24.046875 5.328125 -23.140625 6.171875 -22.359375 C 6.890625 -21.78125 7.671875 -21.25 8.453125 -20.796875 C 9.8125 -19.953125 11.109375 -19.109375 12.484375 -18.328125 C 13.90625 -17.484375 15.28125 -16.640625 16.765625 -16.0625 C 17.421875 -15.796875 17.875 -15.34375 18.328125 -14.890625 C 18.78125 -14.359375 19.109375 -13.71875 19.109375 -13 C 19.109375 -11.640625 18.84375 -10.46875 18 -9.421875 C 17.875 -9.234375 17.8125 -9.09375 17.6875 -9.03125 C 16.828125 -8.515625 15.984375 -8.25 15.078125 -8.453125 C 14.75 -8.515625 14.359375 -8.515625 14.046875 -8.578125 C 13.328125 -8.78125 12.609375 -8.90625 11.890625 -9.09375 C 11.765625 -9.171875 11.640625 -9.234375 11.5625 -9.296875 C 10.65625 -9.875 9.75 -10.53125 8.90625 -11.25 C 8.515625 -11.5625 8 -11.890625 7.46875 -11.890625 C 6.953125 -11.953125 6.4375 -11.953125 5.984375 -11.953125 C 5.78125 -11.890625 5.65625 -11.828125 5.53125 -11.765625 C 4.8125 -11.3125 4.21875 -10.65625 3.703125 -10.015625 C 3.25 -9.359375 2.921875 -8.640625 3.0625 -7.796875 C 3.0625 -7.671875 3.0625 -7.546875 3.0625 -7.46875 Z M 3.0625 -7.46875 "/></g></g></g><g fill="#00558a" fill-opacity="1"><g transform="translate(327.907762, 162.390836)"><g><path d="M 9.484375 -18.65625 C 9.484375 -18.65625 9.421875 -18.65625 9.421875 -18.65625 C 9.421875 -18.453125 9.421875 -18.265625 9.421875 -18.0625 C 9.359375 -14.109375 9.359375 -10.140625 9.359375 -6.234375 C 9.359375 -4.9375 9.484375 -3.703125 9.5625 -2.46875 C 9.6875 -1.5 10.015625 -0.65625 10.65625 0.0625 C 11.046875 0.578125 11.5625 0.96875 12.21875 0.96875 C 12.9375 0.96875 13.578125 1.046875 14.234375 0.96875 C 15.28125 0.84375 16.125 0.328125 16.578125 -0.65625 C 17.15625 -1.890625 17.484375 -3.25 17.484375 -4.609375 C 17.546875 -8.515625 17.546875 -12.484375 17.609375 -16.375 C 17.6875 -20.859375 17.75 -25.34375 17.8125 -29.765625 C 17.875 -29.90625 17.875 -30.03125 17.875 -30.15625 C 17.9375 -30.9375 18.0625 -31.78125 18.140625 -32.625 C 18.203125 -33.28125 18.328125 -33.859375 18.390625 -34.515625 C 18.453125 -34.78125 18.53125 -35.03125 18.65625 -35.234375 C 18.921875 -35.6875 19.234375 -36.015625 19.828125 -36.015625 C 20.40625 -36.078125 21.0625 -36.078125 21.640625 -36.140625 C 22.5625 -36.265625 23.53125 -36.40625 24.4375 -36.53125 C 24.703125 -36.59375 25.03125 -36.71875 25.21875 -36.984375 C 25.8125 -37.5625 26.1875 -38.28125 26.125 -39.1875 C 26.125 -39.578125 26.125 -39.96875 26.125 -40.359375 C 26.1875 -41.203125 26.0625 -42.0625 25.671875 -42.828125 C 25.484375 -43.15625 25.28125 -43.484375 25.03125 -43.6875 C 24.640625 -43.9375 24.109375 -44.203125 23.65625 -44.390625 C 23.40625 -44.53125 23.140625 -44.59375 22.875 -44.59375 C 21.1875 -44.65625 19.5 -44.78125 17.8125 -44.78125 C 14.890625 -44.84375 11.953125 -44.84375 9.03125 -44.84375 C 7.546875 -44.84375 6.046875 -44.921875 4.609375 -44.921875 C 4.421875 -44.921875 4.296875 -44.921875 4.15625 -44.84375 C 2.984375 -44.53125 2.078125 -43.875 1.8125 -42.640625 C 1.75 -42.1875 1.625 -41.734375 1.5 -41.28125 C 1.296875 -40.109375 1.296875 -38.9375 1.5625 -37.828125 C 1.8125 -36.984375 2.734375 -36.265625 3.578125 -36.203125 C 4.875 -36.203125 6.109375 -36.140625 7.34375 -36.140625 C 7.9375 -36.078125 8.3125 -35.875 8.640625 -35.421875 C 8.90625 -35.03125 9.09375 -34.515625 9.171875 -34 C 9.171875 -33.078125 9.234375 -32.171875 9.234375 -31.265625 C 9.296875 -29.640625 9.359375 -27.953125 9.421875 -26.265625 C 9.484375 -23.71875 9.484375 -21.1875 9.484375 -18.65625 Z M 9.484375 -18.65625 "/></g></g></g><g fill="#00558a" fill-opacity="1"><g transform="translate(6.818851, 252.066334)"><g><path d="M 32.375 -11.375 C 32.3125 -11.375 32.3125 -11.375 32.234375 -11.375 C 32.234375 -12.9375 32.234375 -14.5625 32.234375 -16.1875 C 32.234375 -17.609375 32.234375 -19.046875 32.234375 -20.40625 C 32.234375 -21.125 31.984375 -21.78125 31.453125 -22.234375 C 30.6875 -22.8125 29.828125 -23.265625 28.859375 -23.265625 C 27.75 -23.203125 26.71875 -23.140625 25.671875 -23.140625 C 23.984375 -23.140625 22.359375 -23.140625 20.734375 -23.015625 C 20.34375 -22.9375 20.015625 -22.9375 19.6875 -22.875 C 18.65625 -22.6875 18.0625 -22.171875 17.875 -21.125 C 17.8125 -20.9375 17.8125 -20.734375 17.8125 -20.609375 C 17.8125 -19.046875 17.8125 -17.484375 17.875 -15.921875 C 17.875 -15.53125 18.0625 -15.28125 18.390625 -15.203125 C 18.71875 -15.140625 18.984375 -15.078125 19.3125 -15.078125 C 20.21875 -14.953125 21.1875 -14.890625 22.171875 -14.890625 C 22.6875 -14.8125 23.015625 -14.5625 23.203125 -14.109375 C 23.328125 -13.84375 23.40625 -13.515625 23.40625 -13.1875 C 23.46875 -12.8125 23.46875 -12.421875 23.46875 -12.03125 C 23.40625 -11.109375 23.265625 -10.203125 22.6875 -9.421875 C 22.234375 -8.90625 21.703125 -8.453125 21.0625 -8.1875 C 19.375 -7.609375 17.6875 -7.34375 15.859375 -7.859375 C 14.6875 -8.1875 13.578125 -8.703125 12.875 -9.8125 C 12.609375 -10.265625 12.28125 -10.71875 12.03125 -11.1875 C 11.765625 -11.640625 11.5625 -12.15625 11.375 -12.671875 C 11.3125 -12.8125 11.3125 -13 11.3125 -13.125 C 11.25 -13.515625 11.1875 -13.90625 11.046875 -14.234375 C 10.796875 -15.078125 10.65625 -15.984375 10.65625 -16.828125 C 10.59375 -18.78125 10.59375 -20.671875 10.859375 -22.625 C 11.046875 -23.984375 11.046875 -25.421875 11.109375 -26.78125 C 11.109375 -27.046875 11.1875 -27.234375 11.1875 -27.5 C 11.375 -28.40625 11.5625 -29.375 11.828125 -30.296875 C 12.21875 -31.59375 12.546875 -32.953125 13.328125 -34.0625 C 14.109375 -35.296875 15.078125 -36.40625 16.515625 -37.046875 C 17.75 -37.5625 18.984375 -37.953125 20.34375 -37.890625 C 21.25 -37.828125 22.09375 -37.5625 22.9375 -37.1875 C 23.015625 -37.109375 23.078125 -37.046875 23.203125 -36.984375 C 23.71875 -36.46875 23.984375 -35.875 24.046875 -35.09375 C 24.109375 -34.515625 24.25 -33.859375 24.3125 -33.28125 C 24.375 -32.625 24.5 -31.984375 24.953125 -31.390625 C 25.34375 -30.875 25.875 -30.546875 26.578125 -30.546875 C 27.6875 -30.6875 28.796875 -30.75 29.90625 -30.875 C 30.296875 -30.875 30.609375 -30.9375 30.9375 -31.0625 C 31.328125 -31.203125 31.59375 -31.53125 31.65625 -31.921875 C 31.71875 -32.3125 31.84375 -32.6875 31.84375 -33.078125 C 31.78125 -34.0625 31.78125 -35.09375 31.71875 -36.140625 C 31.59375 -37.4375 31.453125 -38.734375 31.140625 -40.046875 C 30.875 -41.28125 30.15625 -42.1875 29.375 -43.15625 C 29.3125 -43.296875 29.1875 -43.359375 29.0625 -43.421875 C 28.34375 -43.8125 27.625 -44.203125 26.90625 -44.59375 C 26.65625 -44.71875 26.453125 -44.78125 26.1875 -44.921875 C 26 -44.921875 25.875 -44.984375 25.671875 -45.109375 C 25.15625 -45.5 24.5 -45.6875 23.859375 -45.828125 C 23.015625 -46.015625 22.171875 -46.21875 21.25 -46.15625 C 20.671875 -46.078125 20.15625 -46.15625 19.625 -46.15625 C 19.171875 -46.15625 18.78125 -46.15625 18.328125 -46.15625 C 16.640625 -46.015625 14.953125 -45.5625 13.390625 -44.78125 C 12.28125 -44.203125 11.3125 -43.609375 10.203125 -43.03125 C 10.078125 -42.96875 10.015625 -42.828125 9.875 -42.765625 C 8.84375 -41.859375 7.859375 -40.8125 6.953125 -39.78125 C 6.765625 -39.578125 6.625 -39.328125 6.5625 -39.125 C 6.375 -38.671875 6.171875 -38.21875 5.84375 -37.828125 C 5.390625 -37.25 5.0625 -36.59375 4.9375 -35.875 C 4.484375 -34.1875 3.96875 -32.4375 3.578125 -30.6875 C 3.1875 -28.734375 2.921875 -26.71875 2.859375 -24.703125 C 2.796875 -22.625 2.671875 -20.546875 2.671875 -18.453125 C 2.671875 -17.09375 2.59375 -15.734375 2.796875 -14.359375 C 2.921875 -13.390625 3.0625 -12.421875 3.25 -11.4375 C 3.3125 -10.796875 3.4375 -10.140625 3.640625 -9.484375 C 3.703125 -9.09375 3.90625 -8.703125 4.03125 -8.3125 C 4.296875 -7.21875 4.8125 -6.234375 5.453125 -5.328125 C 5.78125 -5 6.109375 -4.609375 6.375 -4.296875 C 6.953125 -3.578125 7.46875 -2.796875 8.125 -2.140625 C 8.453125 -1.75 8.84375 -1.359375 9.296875 -1.109375 C 9.9375 -0.71875 10.65625 -0.390625 11.3125 -0.0625 C 11.5625 0.125 11.890625 0.265625 12.21875 0.328125 C 13.71875 0.65625 15.34375 0.84375 16.90625 0.96875 C 18.0625 1.109375 19.234375 0.78125 20.34375 0.453125 C 21.1875 0.265625 22.03125 -0.0625 22.875 -0.265625 C 23.203125 -0.390625 23.53125 -0.453125 23.796875 -0.1875 C 24.1875 0.328125 24.703125 0.453125 25.28125 0.390625 C 27.109375 0.390625 28.921875 0.265625 30.6875 0.265625 C 31.140625 0.1875 31.453125 0.0625 31.65625 -0.328125 C 31.984375 -0.96875 32.234375 -1.625 32.234375 -2.34375 C 32.234375 -5.328125 32.3125 -8.3125 32.375 -11.375 Z M 32.375 -11.375 "/></g></g></g><g fill="#00558a" fill-opacity="1"><g transform="translate(46.527461, 252.066334)"><g><path d="M 17.6875 -45.6875 C 16.765625 -45.6875 15.921875 -45.828125 15.078125 -45.4375 C 15.015625 -45.4375 14.890625 -45.4375 14.8125 -45.4375 C 13.578125 -45.171875 12.609375 -44.453125 12.09375 -43.359375 C 11.5625 -42.125 11.25 -40.8125 10.859375 -39.578125 C 10.59375 -38.546875 10.46875 -37.5 10.203125 -36.53125 C 9.75 -34.78125 9.171875 -33.078125 8.640625 -31.328125 C 8.390625 -30.484375 8.1875 -29.703125 7.9375 -28.859375 C 7.609375 -27.6875 7.28125 -26.515625 6.953125 -25.28125 C 6.6875 -24.109375 6.375 -22.9375 6.109375 -21.703125 C 5.59375 -19.765625 5 -17.8125 4.484375 -15.796875 C 4.09375 -14.171875 3.765625 -12.546875 3.375 -10.921875 C 3.125 -9.8125 2.921875 -8.703125 2.59375 -7.609375 C 2.34375 -6.5 1.953125 -5.390625 1.625 -4.359375 C 1.296875 -3.515625 1.296875 -2.671875 1.359375 -1.8125 C 1.359375 -1.4375 1.5 -0.90625 1.953125 -0.71875 C 2.46875 -0.453125 2.984375 -0.1875 3.515625 -0.0625 C 4.8125 0.1875 6.109375 0.453125 7.46875 0.390625 C 8.1875 0.390625 8.78125 0.265625 9.359375 -0.0625 C 9.625 -0.1875 9.875 -0.390625 10.140625 -0.578125 C 10.984375 -1.109375 11.5625 -1.890625 11.890625 -2.921875 C 12.03125 -3.375 12.34375 -3.90625 12.609375 -4.359375 C 12.9375 -4.8125 13.390625 -5 13.96875 -4.9375 C 14.359375 -4.9375 14.75 -4.875 15.078125 -4.875 C 16.90625 -4.8125 18.71875 -4.8125 20.546875 -4.75 C 20.734375 -4.75 20.9375 -4.6875 21.125 -4.6875 C 21.78125 -4.421875 22.171875 -3.90625 22.296875 -3.1875 C 22.421875 -2.46875 22.6875 -1.75 23.203125 -1.234375 C 23.59375 -0.71875 24.1875 -0.265625 24.703125 0.1875 C 24.703125 0.1875 24.828125 0.1875 24.890625 0.265625 C 26.71875 0.78125 28.59375 0.71875 30.421875 0.1875 C 31.328125 -0.0625 32.234375 -0.453125 32.625 -1.5 C 32.828125 -2.140625 33.015625 -2.796875 32.953125 -3.4375 C 32.765625 -4.359375 32.5 -5.203125 32.234375 -6.109375 C 31.84375 -7.546875 31.390625 -8.96875 31 -10.46875 C 30.359375 -13 29.765625 -15.59375 29.125 -18.140625 C 28.59375 -20.015625 28.015625 -21.90625 27.5 -23.796875 C 27.234375 -24.828125 26.96875 -25.875 26.71875 -26.90625 C 26.578125 -27.296875 26.453125 -27.625 26.390625 -28.015625 C 26 -29.3125 25.671875 -30.609375 25.28125 -31.921875 C 25.03125 -32.6875 24.703125 -33.546875 24.765625 -34.453125 C 24.765625 -34.515625 24.765625 -34.578125 24.703125 -34.703125 C 24.5 -35.75 24.25 -36.796875 23.984375 -37.828125 C 23.796875 -38.671875 23.46875 -39.453125 23.40625 -40.234375 C 23.265625 -41.28125 22.9375 -42.3125 22.5625 -43.296875 C 22.484375 -43.484375 22.359375 -43.609375 22.234375 -43.8125 C 21.78125 -44.328125 21.1875 -44.78125 20.609375 -45.171875 C 20.078125 -45.5625 19.5 -45.765625 18.921875 -45.6875 C 18.453125 -45.6875 18.0625 -45.6875 17.6875 -45.6875 Z M 18.0625 -16.515625 C 17.421875 -16.578125 16.765625 -16.640625 16.0625 -16.765625 C 15.40625 -16.828125 15.28125 -17.15625 15.46875 -17.8125 C 15.59375 -18.265625 15.796875 -18.71875 15.921875 -19.109375 C 15.984375 -19.375 16.125 -19.5625 16.125 -19.828125 C 16.3125 -21.3125 16.90625 -22.75 17.15625 -24.1875 C 17.21875 -24.375 17.296875 -24.640625 17.359375 -24.765625 C 17.546875 -25.03125 17.75 -25.03125 17.875 -24.765625 C 17.9375 -24.640625 17.9375 -24.5 18 -24.375 C 18.203125 -23.40625 18.328125 -22.484375 18.53125 -21.515625 C 18.71875 -20.734375 18.984375 -19.953125 19.234375 -19.171875 C 19.375 -18.78125 19.5 -18.453125 19.5625 -18.0625 C 19.765625 -17.09375 19.234375 -16.515625 18.265625 -16.515625 C 18.203125 -16.515625 18.140625 -16.515625 18.0625 -16.515625 Z M 18.0625 -16.515625 "/></g></g></g><g fill="#00558a" fill-opacity="1"><g transform="translate(87.080911, 252.066334)"><g><path d="M 9.484375 -18.65625 C 9.484375 -18.65625 9.421875 -18.65625 9.421875 -18.65625 C 9.421875 -18.453125 9.421875 -18.265625 9.421875 -18.0625 C 9.359375 -14.109375 9.359375 -10.140625 9.359375 -6.234375 C 9.359375 -4.9375 9.484375 -3.703125 9.5625 -2.46875 C 9.6875 -1.5 10.015625 -0.65625 10.65625 0.0625 C 11.046875 0.578125 11.5625 0.96875 12.21875 0.96875 C 12.9375 0.96875 13.578125 1.046875 14.234375 0.96875 C 15.28125 0.84375 16.125 0.328125 16.578125 -0.65625 C 17.15625 -1.890625 17.484375 -3.25 17.484375 -4.609375 C 17.546875 -8.515625 17.546875 -12.484375 17.609375 -16.375 C 17.6875 -20.859375 17.75 -25.34375 17.8125 -29.765625 C 17.875 -29.90625 17.875 -30.03125 17.875 -30.15625 C 17.9375 -30.9375 18.0625 -31.78125 18.140625 -32.625 C 18.203125 -33.28125 18.328125 -33.859375 18.390625 -34.515625 C 18.453125 -34.78125 18.53125 -35.03125 18.65625 -35.234375 C 18.921875 -35.6875 19.234375 -36.015625 19.828125 -36.015625 C 20.40625 -36.078125 21.0625 -36.078125 21.640625 -36.140625 C 22.5625 -36.265625 23.53125 -36.40625 24.4375 -36.53125 C 24.703125 -36.59375 25.03125 -36.71875 25.21875 -36.984375 C 25.8125 -37.5625 26.1875 -38.28125 26.125 -39.1875 C 26.125 -39.578125 26.125 -39.96875 26.125 -40.359375 C 26.1875 -41.203125 26.0625 -42.0625 25.671875 -42.828125 C 25.484375 -43.15625 25.28125 -43.484375 25.03125 -43.6875 C 24.640625 -43.9375 24.109375 -44.203125 23.65625 -44.390625 C 23.40625 -44.53125 23.140625 -44.59375 22.875 -44.59375 C 21.1875 -44.65625 19.5 -44.78125 17.8125 -44.78125 C 14.890625 -44.84375 11.953125 -44.84375 9.03125 -44.84375 C 7.546875 -44.84375 6.046875 -44.921875 4.609375 -44.921875 C 4.421875 -44.921875 4.296875 -44.921875 4.15625 -44.84375 C 2.984375 -44.53125 2.078125 -43.875 1.8125 -42.640625 C 1.75 -42.1875 1.625 -41.734375 1.5 -41.28125 C 1.296875 -40.109375 1.296875 -38.9375 1.5625 -37.828125 C 1.8125 -36.984375 2.734375 -36.265625 3.578125 -36.203125 C 4.875 -36.203125 6.109375 -36.140625 7.34375 -36.140625 C 7.9375 -36.078125 8.3125 -35.875 8.640625 -35.421875 C 8.90625 -35.03125 9.09375 -34.515625 9.171875 -34 C 9.171875 -33.078125 9.234375 -32.171875 9.234375 -31.265625 C 9.296875 -29.640625 9.359375 -27.953125 9.421875 -26.265625 C 9.484375 -23.71875 9.484375 -21.1875 9.484375 -18.65625 Z M 9.484375 -18.65625 "/></g></g></g><g fill="#00558a" fill-opacity="1"><g transform="translate(119.316061, 252.066334)"><g><path d="M 30.484375 -22.296875 C 30.484375 -22.296875 30.546875 -22.296875 30.546875 -22.296875 C 30.484375 -23.46875 30.484375 -24.640625 30.421875 -25.734375 C 30.359375 -29.4375 30.21875 -33.078125 30.15625 -36.71875 C 30.09375 -38.734375 30.03125 -40.75 30.03125 -42.828125 C 30.03125 -43.421875 29.90625 -43.875 29.640625 -44.390625 C 29.0625 -45.625 28.015625 -46.015625 26.78125 -46.15625 C 25.546875 -46.21875 24.375 -45.953125 23.140625 -45.6875 C 22.421875 -45.5 21.78125 -44.84375 21.703125 -44.0625 C 21.640625 -43.296875 21.578125 -42.515625 21.515625 -41.734375 C 21.515625 -38.34375 21.515625 -34.96875 21.515625 -31.59375 C 21.515625 -31.265625 21.515625 -30.875 21.515625 -30.546875 C 21.453125 -29.765625 21 -29.25 20.21875 -29.1875 C 19.5 -29.0625 18.78125 -28.921875 18.0625 -28.921875 C 16.3125 -28.859375 14.625 -28.796875 12.9375 -28.984375 C 12.03125 -29.0625 11.4375 -29.765625 11.4375 -30.609375 C 11.4375 -32.375 11.5625 -34.1875 11.640625 -36.015625 C 11.703125 -38.671875 11.640625 -41.34375 11.640625 -44 C 11.640625 -44.453125 11.4375 -44.71875 11.109375 -44.984375 C 10.71875 -45.234375 10.203125 -45.4375 9.6875 -45.5 C 9.03125 -45.5 8.390625 -45.4375 7.796875 -45.6875 C 7.734375 -45.6875 7.609375 -45.6875 7.546875 -45.6875 C 6.6875 -45.6875 5.84375 -45.625 5 -45.4375 C 4.21875 -45.234375 3.765625 -44.84375 3.4375 -44.140625 C 3.0625 -43.15625 2.796875 -42.125 2.796875 -41.078125 C 2.734375 -39 2.671875 -36.921875 2.671875 -34.84375 C 2.59375 -31.265625 2.59375 -27.6875 2.59375 -24.1875 C 2.59375 -22.171875 2.671875 -20.078125 2.734375 -18.0625 C 2.796875 -15.203125 2.859375 -12.34375 2.796875 -9.5625 C 2.796875 -6.765625 2.671875 -4.03125 2.59375 -1.296875 C 2.59375 -0.515625 2.921875 0.125 3.515625 0.578125 C 4.21875 1.109375 5 1.4375 5.921875 1.359375 C 7.15625 1.359375 8.390625 1.171875 9.625 1.109375 C 10.078125 1.046875 10.328125 0.78125 10.53125 0.390625 C 10.859375 -0.328125 11.109375 -1.109375 11.1875 -1.953125 C 11.25 -3.1875 11.3125 -4.484375 11.3125 -5.78125 C 11.3125 -8.453125 11.375 -11.109375 11.375 -13.78125 C 11.375 -15.015625 11.3125 -16.3125 11.3125 -17.546875 C 11.3125 -18.265625 11.5625 -18.84375 12.03125 -19.375 C 12.15625 -19.5 12.34375 -19.6875 12.546875 -19.6875 C 13.328125 -19.890625 14.109375 -20.078125 14.890625 -20.15625 C 16.515625 -20.21875 18.0625 -20.21875 19.6875 -20.28125 C 20.40625 -20.28125 20.859375 -19.953125 21.1875 -19.3125 C 21.515625 -18.65625 21.703125 -18 21.640625 -17.21875 C 21.640625 -15.921875 21.640625 -14.5625 21.703125 -13.265625 C 21.78125 -9.75 21.84375 -6.171875 22.03125 -2.671875 C 22.09375 -1.953125 22.171875 -1.296875 22.421875 -0.65625 C 22.625 0 23.078125 0.578125 23.859375 0.65625 C 25.734375 0.78125 27.625 1.046875 29.515625 0.78125 C 29.96875 0.78125 30.21875 0.578125 30.359375 0.265625 C 30.6875 -0.328125 30.875 -0.90625 30.875 -1.5625 C 30.8125 -5.328125 30.75 -9.09375 30.6875 -12.9375 C 30.609375 -16.0625 30.546875 -19.171875 30.484375 -22.296875 Z M 30.484375 -22.296875 "/></g></g></g><g fill="#00558a" fill-opacity="1"><g transform="translate(157.659971, 252.066334)"><g><path d="M 19.890625 -8.125 C 19.890625 -8.125 19.890625 -8.1875 19.890625 -8.1875 C 19.046875 -8.1875 18.265625 -8.1875 17.421875 -8.1875 C 16.765625 -8.25 16.125 -8.25 15.46875 -8.3125 C 14.6875 -8.453125 14.046875 -8.84375 13.96875 -9.75 C 13.90625 -10.265625 13.78125 -10.859375 13.78125 -11.375 C 13.71875 -13 13.71875 -14.5625 13.90625 -16.1875 C 13.96875 -17.296875 13.90625 -18.390625 14.171875 -19.5 C 14.296875 -20.015625 14.5 -20.34375 15.078125 -20.40625 C 15.734375 -20.46875 16.4375 -20.609375 17.15625 -20.671875 C 18.203125 -20.734375 19.3125 -20.796875 20.40625 -20.9375 C 20.546875 -20.9375 20.671875 -20.9375 20.796875 -21 C 21.390625 -21 21.96875 -21.125 22.5625 -21.125 C 23.265625 -21.125 23.921875 -21.390625 24.5 -21.84375 C 25.28125 -22.421875 25.671875 -23.203125 25.671875 -24.25 C 25.671875 -24.765625 25.671875 -25.21875 25.546875 -25.734375 C 25.421875 -26.1875 25.421875 -26.65625 25.28125 -27.109375 C 25.03125 -28.34375 24.046875 -29.1875 22.75 -29.1875 C 21.453125 -29.25 20.078125 -29.125 18.71875 -29.25 C 18.453125 -29.25 18.203125 -29.25 17.9375 -29.25 C 17.21875 -29.25 16.4375 -29.1875 15.734375 -29.1875 C 15.46875 -29.1875 15.28125 -29.1875 15.078125 -29.25 C 14.4375 -29.4375 14.171875 -29.90625 14.046875 -30.546875 C 14.046875 -30.75 14.046875 -30.9375 14.046875 -31.140625 C 14.046875 -31.984375 14.046875 -32.828125 14.109375 -33.671875 C 14.109375 -34.390625 14.5 -34.84375 15.203125 -34.96875 C 15.734375 -35.09375 16.3125 -35.234375 16.828125 -35.296875 C 17.15625 -35.359375 17.484375 -35.359375 17.75 -35.421875 C 18.59375 -35.625 19.4375 -35.625 20.28125 -35.625 C 21.578125 -35.625 22.875 -35.484375 24.109375 -35.8125 C 24.3125 -35.8125 24.4375 -35.8125 24.640625 -35.8125 C 25.28125 -35.875 25.9375 -35.8125 26.515625 -36.015625 C 27.296875 -36.265625 27.953125 -36.71875 28.53125 -37.25 C 28.859375 -37.5625 29.0625 -37.890625 29.125 -38.34375 C 29.4375 -40.046875 29.375 -41.734375 28.984375 -43.421875 C 28.859375 -44.140625 28.46875 -44.78125 27.75 -45.109375 C 27.5 -45.234375 27.171875 -45.375 26.84375 -45.4375 C 26.328125 -45.5625 25.8125 -45.765625 25.28125 -45.765625 C 24.109375 -45.765625 22.9375 -45.765625 21.78125 -45.625 C 19.765625 -45.5 17.75 -45.5625 15.734375 -45.625 C 14.296875 -45.765625 12.875 -45.828125 11.4375 -45.890625 C 10.328125 -45.953125 9.234375 -45.953125 8.125 -46.015625 C 7.40625 -46.078125 6.6875 -45.953125 5.984375 -45.765625 C 5.453125 -45.5625 5.0625 -45.234375 4.8125 -44.78125 C 4.296875 -43.875 4.03125 -42.90625 3.703125 -41.921875 C 3.578125 -41.46875 3.4375 -41.078125 3.4375 -40.625 C 3.3125 -39.578125 3.1875 -38.609375 3.1875 -37.640625 C 3.25 -34.1875 3.3125 -30.8125 3.4375 -27.359375 C 3.4375 -27.234375 3.4375 -27.046875 3.4375 -26.84375 C 3.515625 -24.828125 3.703125 -22.75 3.515625 -20.671875 C 3.375 -19.6875 3.4375 -18.65625 3.375 -17.6875 C 3.25 -15.140625 3.1875 -12.609375 3.0625 -10.078125 C 2.921875 -8.1875 2.859375 -6.3125 2.734375 -4.359375 C 2.59375 -3.125 2.796875 -2.015625 3.1875 -0.90625 C 3.25 -0.71875 3.3125 -0.578125 3.4375 -0.453125 C 3.90625 -0.0625 4.421875 0.265625 4.9375 0.65625 C 5 0.65625 5.140625 0.65625 5.203125 0.65625 C 6.5625 0.71875 7.9375 0.78125 9.296875 0.78125 C 11.5625 0.71875 13.84375 0.65625 16.1875 0.578125 C 17.15625 0.515625 18.140625 0.65625 19.171875 0.578125 C 20.609375 0.578125 22.09375 0.515625 23.53125 0.453125 C 24.109375 0.453125 24.640625 0.515625 25.15625 0.515625 C 26.0625 0.515625 26.90625 0.515625 27.8125 0.453125 C 28.34375 0.390625 28.796875 0.125 29.0625 -0.390625 C 29.25 -0.90625 29.515625 -1.4375 29.578125 -1.953125 C 29.828125 -3.640625 29.765625 -5.265625 29.0625 -6.890625 C 28.59375 -7.9375 27.75 -8.453125 26.578125 -8.390625 C 24.375 -8.3125 22.09375 -8.25 19.890625 -8.125 Z M 19.890625 -8.125 "/></g></g></g><g fill="#00558a" fill-opacity="1"><g transform="translate(195.094046, 252.066334)"><g><path d="M 12.609375 -5.78125 C 12.609375 -6.953125 12.546875 -8.125 12.546875 -9.296875 C 12.546875 -9.9375 12.671875 -10.59375 12.875 -11.1875 C 13 -11.5625 13.265625 -11.765625 13.65625 -11.765625 C 14.046875 -11.703125 14.5 -11.765625 14.890625 -11.765625 C 15.796875 -11.890625 16.375 -11.375 16.640625 -10.53125 C 16.765625 -10.015625 17.03125 -9.5625 17.21875 -9.09375 C 17.296875 -8.90625 17.421875 -8.703125 17.546875 -8.453125 C 18 -7.34375 18.59375 -6.375 19.171875 -5.390625 C 19.625 -4.6875 20.078125 -4.03125 20.46875 -3.3125 C 20.796875 -2.734375 21 -2.078125 21.25 -1.4375 C 21.578125 -0.71875 22.171875 -0.265625 22.75 0.125 C 23.59375 0.578125 24.5625 0.78125 25.484375 0.90625 C 26.0625 0.96875 26.71875 0.90625 27.296875 0.90625 C 27.625 0.90625 28.015625 0.84375 28.34375 0.84375 C 28.921875 0.84375 29.515625 0.90625 30.03125 0.390625 C 30.609375 -0.1875 31.203125 -0.84375 31.0625 -1.75 C 31 -2.46875 30.9375 -3.125 30.8125 -3.765625 C 30.6875 -4.359375 30.609375 -4.9375 30.359375 -5.390625 C 29.765625 -6.5 29.3125 -7.609375 28.921875 -8.78125 C 28.859375 -8.84375 28.796875 -8.96875 28.796875 -9.09375 C 28.40625 -10.015625 28.015625 -10.859375 27.625 -11.765625 C 27.296875 -12.34375 27.046875 -13 26.71875 -13.65625 C 26.0625 -14.75 26.265625 -15.984375 27.234375 -16.828125 C 27.4375 -17.03125 27.625 -17.21875 27.75 -17.421875 C 28.40625 -18.390625 29.0625 -19.4375 29.375 -20.609375 C 29.96875 -22.359375 30.484375 -24.1875 30.546875 -26.0625 C 30.546875 -27.234375 30.546875 -28.34375 30.546875 -29.515625 C 30.546875 -32.5625 29.96875 -35.421875 28.859375 -38.21875 C 28.59375 -38.734375 28.46875 -39.265625 28.140625 -39.71875 C 26.84375 -41.796875 25.21875 -43.484375 22.8125 -44.265625 C 22.171875 -44.453125 21.453125 -44.59375 20.734375 -44.59375 C 18.984375 -44.59375 17.15625 -44.53125 15.34375 -44.53125 C 13.65625 -44.53125 11.953125 -44.59375 10.203125 -44.59375 C 9.8125 -44.59375 9.359375 -44.65625 8.90625 -44.59375 C 8.0625 -44.59375 7.21875 -44.453125 6.3125 -44.53125 C 5.71875 -44.59375 5.140625 -44.390625 4.6875 -43.9375 C 3.90625 -43.21875 3.515625 -42.3125 3.125 -41.34375 C 3.125 -41.28125 3.125 -41.203125 3.125 -41.140625 C 2.984375 -39.71875 2.796875 -38.28125 2.671875 -36.796875 C 2.59375 -35.09375 2.59375 -33.40625 2.59375 -31.71875 C 2.671875 -29.25 2.796875 -26.78125 2.859375 -24.3125 C 2.984375 -21 3.0625 -17.75 3.1875 -14.4375 C 3.25 -11.828125 3.3125 -9.171875 3.375 -6.5625 C 3.4375 -4.9375 3.4375 -3.3125 3.515625 -1.6875 C 3.515625 -0.96875 3.828125 -0.328125 4.296875 0.1875 C 5.0625 1.109375 6.109375 1.5 7.28125 1.5625 C 7.9375 1.625 8.578125 1.625 9.234375 1.5625 C 10.078125 1.5625 10.796875 1.171875 11.375 0.65625 C 12.15625 -0.125 12.609375 -1.046875 12.609375 -2.140625 C 12.609375 -3.375 12.609375 -4.546875 12.609375 -5.78125 Z M 12.609375 -27.75 C 12.609375 -29.640625 12.609375 -31.453125 12.609375 -33.28125 C 12.671875 -34.0625 12.875 -34.703125 13.453125 -35.171875 C 13.90625 -35.625 14.5625 -35.8125 15.203125 -35.875 C 15.59375 -35.875 16.0625 -35.875 16.4375 -35.875 C 17.609375 -35.875 18.59375 -35.421875 19.375 -34.515625 C 19.765625 -34 20.15625 -33.40625 20.40625 -32.765625 C 20.609375 -32.109375 20.9375 -31.53125 21 -30.8125 C 21.0625 -30.296875 21.125 -29.765625 21.125 -29.25 C 21.125 -27.8125 21.25 -26.328125 21 -24.890625 C 20.796875 -23.921875 20.34375 -23.078125 19.765625 -22.359375 C 19.3125 -21.90625 18.84375 -21.453125 18.203125 -21.1875 C 17.484375 -20.796875 16.703125 -20.671875 15.984375 -20.40625 C 15.859375 -20.34375 15.671875 -20.34375 15.53125 -20.34375 C 15.078125 -20.34375 14.625 -20.34375 14.234375 -20.34375 C 13.1875 -20.34375 12.546875 -21 12.546875 -22.03125 C 12.546875 -22.421875 12.546875 -22.8125 12.546875 -23.203125 C 12.609375 -24.765625 12.609375 -26.265625 12.671875 -27.75 C 12.671875 -27.75 12.671875 -27.75 12.609375 -27.75 Z M 12.609375 -27.75 "/></g></g></g><g fill="#00558a" fill-opacity="1"><g transform="translate(234.867653, 252.066334)"><g><path d="M 11.109375 -37.953125 C 11.109375 -39.78125 11.1875 -41.015625 11.109375 -42.3125 C 11.109375 -43.15625 10.859375 -44 10.40625 -44.78125 C 10.140625 -45.234375 9.75 -45.5 9.296875 -45.5 C 8 -45.5625 6.6875 -45.5625 5.390625 -45.625 C 4.8125 -45.625 4.359375 -45.375 4.09375 -44.921875 C 3.578125 -44.140625 3.125 -43.359375 2.984375 -42.4375 C 2.859375 -41.53125 2.796875 -40.6875 2.796875 -39.78125 C 2.59375 -36.65625 2.671875 -33.546875 2.859375 -30.359375 C 2.984375 -28.59375 3.0625 -26.84375 3.0625 -25.09375 C 3.0625 -21.390625 3.0625 -17.6875 3.0625 -13.90625 C 3.0625 -12.875 2.984375 -11.765625 2.984375 -10.65625 C 2.921875 -8.453125 2.796875 -6.234375 2.734375 -3.96875 C 2.734375 -2.984375 2.796875 -2.078125 3.25 -1.234375 C 3.4375 -0.78125 3.765625 -0.328125 4.09375 0 C 4.75 0.65625 5.65625 0.78125 6.5 0.78125 C 6.890625 0.84375 7.34375 0.78125 7.734375 0.78125 C 8.640625 0.78125 9.359375 0.453125 9.875 -0.328125 C 10.078125 -0.65625 10.265625 -0.90625 10.40625 -1.234375 C 10.59375 -1.5625 10.71875 -1.953125 10.71875 -2.28125 C 10.859375 -2.859375 10.859375 -3.515625 10.921875 -4.09375 C 10.984375 -5.390625 11.046875 -6.625 11.109375 -7.9375 C 11.1875 -9.359375 11.1875 -10.796875 11.25 -12.15625 C 11.3125 -14.6875 11.4375 -17.15625 11.5 -19.625 C 11.5 -22.8125 11.5 -25.9375 11.5 -29.125 C 11.4375 -30.6875 11.4375 -32.234375 11.375 -33.859375 C 11.3125 -35.421875 11.1875 -36.984375 11.109375 -37.953125 Z M 11.109375 -37.953125 "/></g></g></g><g fill="#00558a" fill-opacity="1"><g transform="translate(253.585552, 252.066334)"><g><path d="M 11.640625 -10.984375 C 11.640625 -10.984375 11.5625 -10.984375 11.5 -10.984375 C 11.5 -13.65625 11.4375 -16.3125 11.4375 -18.984375 C 11.4375 -19.234375 11.4375 -19.4375 11.5 -19.6875 C 11.5625 -20.078125 11.765625 -20.21875 12.15625 -20.28125 C 12.546875 -20.28125 12.8125 -20.078125 13 -19.765625 C 14.4375 -17.546875 15.921875 -15.28125 17.359375 -13.0625 C 18.265625 -11.640625 19.234375 -10.265625 20.015625 -8.84375 C 20.671875 -7.796875 21.3125 -6.765625 21.96875 -5.71875 C 22.6875 -4.609375 23.59375 -3.640625 24.4375 -2.59375 C 24.953125 -2.015625 25.484375 -1.5 26 -0.90625 C 26.390625 -0.453125 26.84375 -0.1875 27.359375 0 C 28.921875 0.453125 30.484375 0.578125 31.984375 -0.125 C 32.3125 -0.328125 32.5625 -0.453125 32.6875 -0.84375 C 32.953125 -1.8125 33.15625 -2.796875 33.15625 -3.828125 C 33.15625 -4.609375 33.078125 -5.390625 33.078125 -6.234375 C 33.015625 -8.96875 32.953125 -11.765625 32.890625 -14.5 C 32.828125 -15.140625 32.828125 -15.734375 32.828125 -16.375 C 32.6875 -18.59375 32.5625 -20.796875 32.5 -23.078125 C 32.375 -25.421875 32.3125 -27.8125 32.234375 -30.21875 C 32.171875 -30.6875 32.109375 -31.203125 32.109375 -31.65625 C 32.109375 -35.171875 32.046875 -38.671875 31.984375 -42.1875 C 31.984375 -43.296875 31.53125 -44.265625 30.609375 -44.921875 C 29.515625 -45.6875 28.28125 -45.890625 26.90625 -45.828125 C 26.78125 -45.765625 26.65625 -45.765625 26.453125 -45.765625 C 25.609375 -45.828125 25.03125 -45.4375 24.5625 -44.78125 C 23.984375 -43.9375 23.59375 -42.96875 23.40625 -41.984375 C 23.328125 -41.34375 23.265625 -40.75 23.265625 -40.109375 C 23.328125 -38.28125 23.40625 -36.53125 23.46875 -34.78125 C 23.53125 -33.40625 23.53125 -32.109375 23.59375 -30.8125 C 23.65625 -28.53125 23.796875 -26.265625 23.859375 -23.984375 C 23.921875 -23.53125 23.796875 -23.015625 23.53125 -22.625 C 23.328125 -22.234375 23.078125 -22.09375 22.6875 -22.234375 C 22.484375 -22.296875 22.296875 -22.484375 22.234375 -22.625 C 21.78125 -23.40625 21.3125 -24.1875 20.9375 -24.953125 C 20.078125 -26.578125 19.234375 -28.140625 18.453125 -29.765625 C 18.0625 -30.484375 17.6875 -31.265625 17.296875 -32.046875 C 16.828125 -32.953125 16.375 -33.859375 15.921875 -34.78125 C 15.34375 -36.015625 14.75 -37.3125 14.109375 -38.546875 C 13.390625 -39.96875 12.609375 -41.40625 11.828125 -42.90625 C 11.4375 -43.75 10.859375 -44.328125 10.078125 -44.71875 C 8.90625 -45.375 7.609375 -45.5625 6.3125 -45.6875 C 6.109375 -45.6875 5.984375 -45.6875 5.84375 -45.625 C 4.875 -45.5 4.21875 -44.921875 3.765625 -44 C 3.4375 -43.21875 3.125 -42.375 3.0625 -41.46875 C 2.984375 -40.625 2.859375 -39.71875 2.796875 -38.875 C 2.734375 -37.953125 2.59375 -37.109375 2.59375 -36.203125 C 2.59375 -32.4375 2.734375 -28.59375 2.734375 -24.828125 C 2.734375 -21.125 2.734375 -17.421875 2.734375 -13.71875 C 2.734375 -13.328125 2.796875 -12.875 2.796875 -12.421875 C 2.859375 -11.4375 2.921875 -10.53125 2.921875 -9.5625 C 2.984375 -7.078125 3.0625 -4.6875 3.125 -2.203125 C 3.125 -1.046875 3.96875 -0.0625 5.140625 0.125 C 6.171875 0.265625 7.21875 0.453125 8.25 0.265625 C 8.96875 0.0625 9.6875 -0.0625 10.328125 -0.1875 C 10.65625 -0.265625 10.859375 -0.453125 10.984375 -0.71875 C 11.375 -1.4375 11.640625 -2.203125 11.640625 -2.984375 C 11.640625 -5.65625 11.640625 -8.3125 11.640625 -10.984375 Z M 11.640625 -10.984375 "/></g></g></g><g fill="#00558a" fill-opacity="1"><g transform="translate(294.333963, 252.066334)"><g><path d="M 24.828125 -23.328125 C 23.984375 -23.265625 23.078125 -23.46875 22.171875 -23.265625 C 21.390625 -23.078125 20.734375 -22.6875 20.21875 -22.171875 C 19.625 -21.578125 19.3125 -20.859375 19.109375 -20.078125 C 18.84375 -18.984375 18.65625 -17.8125 19.046875 -16.703125 C 19.4375 -15.734375 20.015625 -15.015625 20.9375 -14.6875 C 21.453125 -14.5 22.03125 -14.4375 22.5625 -14.359375 C 23.265625 -14.234375 23.65625 -13.90625 23.71875 -13.1875 C 23.859375 -12.28125 23.65625 -11.375 23.40625 -10.46875 C 23.328125 -10.328125 23.328125 -10.265625 23.203125 -10.140625 C 22.6875 -9.421875 22.03125 -8.84375 21.0625 -8.703125 C 20.9375 -8.640625 20.859375 -8.640625 20.734375 -8.578125 C 20.078125 -8.25 19.375 -8.25 18.65625 -8.1875 C 17.546875 -8.125 16.4375 -8.390625 15.34375 -8.640625 C 14.890625 -8.78125 14.5 -9.03125 14.234375 -9.359375 C 13.578125 -10.078125 13.125 -10.984375 12.875 -11.890625 C 12.546875 -13.0625 12.28125 -14.171875 12.03125 -15.34375 C 11.890625 -15.734375 11.890625 -16.125 11.890625 -16.515625 C 11.828125 -17.546875 11.828125 -18.65625 11.828125 -19.6875 C 11.828125 -19.828125 11.828125 -19.890625 11.828125 -20.015625 C 11.765625 -20.671875 11.765625 -21.3125 11.828125 -22.03125 C 11.953125 -23.078125 12.15625 -24.109375 12.15625 -25.15625 C 12.21875 -26.84375 12.546875 -28.53125 13 -30.15625 C 13.578125 -32.234375 14.6875 -34 16.1875 -35.5625 C 17.03125 -36.40625 18.0625 -36.71875 19.109375 -36.921875 C 20.15625 -37.046875 21.25 -36.984375 22.296875 -36.921875 C 22.875 -36.921875 23.328125 -36.65625 23.59375 -36.140625 C 23.796875 -35.625 23.984375 -35.09375 24.046875 -34.515625 C 24.109375 -34 24.3125 -33.546875 24.5625 -33.078125 C 24.703125 -32.890625 24.828125 -32.625 24.953125 -32.375 C 25.28125 -31.84375 25.734375 -31.453125 26.328125 -31.328125 C 27.359375 -31 28.46875 -30.8125 29.578125 -30.875 C 30.6875 -31 31.453125 -31.53125 31.78125 -32.5625 C 32.171875 -33.46875 32.4375 -34.453125 32.375 -35.484375 C 32.3125 -35.875 32.375 -36.328125 32.3125 -36.71875 C 32.3125 -38.15625 32.109375 -39.65625 31.453125 -41.015625 C 31.203125 -41.671875 30.9375 -42.3125 30.421875 -42.828125 C 30.15625 -43.09375 29.96875 -43.421875 29.703125 -43.6875 C 29.25 -44.0625 28.859375 -44.453125 28.40625 -44.78125 C 27.75 -45.171875 27.046875 -45.5 26.328125 -45.828125 C 26.125 -45.953125 26 -45.953125 25.8125 -46.015625 C 24.4375 -46.46875 23.015625 -46.796875 21.578125 -46.9375 C 20.078125 -47.0625 18.65625 -47 17.21875 -46.46875 C 17.03125 -46.40625 16.765625 -46.34375 16.515625 -46.21875 C 15.203125 -45.765625 13.84375 -45.4375 12.671875 -44.71875 C 12.15625 -44.453125 11.765625 -44.203125 11.3125 -43.9375 C 10.53125 -43.421875 9.6875 -42.96875 8.96875 -42.375 C 7.609375 -41.28125 6.625 -39.90625 5.921875 -38.34375 C 4.75 -35.8125 3.828125 -33.15625 3.3125 -30.359375 C 3.0625 -28.984375 2.859375 -27.625 2.859375 -26.265625 C 2.859375 -25.28125 2.734375 -24.3125 2.734375 -23.328125 C 2.671875 -21.390625 2.59375 -19.375 2.59375 -17.421875 C 2.59375 -16.0625 2.671875 -14.75 2.859375 -13.453125 C 3.0625 -11.640625 3.375 -9.75 3.90625 -8 C 4.546875 -5.84375 5.53125 -3.96875 7.21875 -2.53125 C 7.671875 -2.140625 8.0625 -1.8125 8.453125 -1.4375 C 9.625 -0.328125 10.984375 0.453125 12.484375 0.84375 C 12.875 0.90625 13.265625 0.90625 13.65625 1.046875 C 15.34375 1.4375 16.96875 1.296875 18.59375 0.78125 C 18.78125 0.71875 18.984375 0.65625 19.171875 0.578125 C 20.40625 0.1875 21.578125 -0.0625 22.625 -0.90625 C 22.625 -0.90625 22.6875 -0.90625 22.6875 -0.96875 C 23.203125 -1.234375 23.65625 -0.96875 23.71875 -0.453125 C 23.71875 -0.328125 23.65625 -0.0625 23.796875 0 C 24.1875 0.453125 24.5625 0.96875 25.21875 1.046875 C 26 1.171875 26.71875 1.234375 27.5 1.359375 C 28.46875 1.5 29.515625 1.359375 30.484375 1.296875 C 30.875 1.296875 31.140625 1.171875 31.390625 0.90625 C 32.109375 0.265625 32.5 -0.65625 32.5625 -1.5625 C 32.625 -2.671875 32.625 -3.765625 32.625 -4.875 C 32.625 -5.53125 32.625 -6.171875 32.625 -6.828125 C 32.6875 -7.15625 32.765625 -7.46875 32.765625 -7.796875 C 32.828125 -9.484375 32.953125 -11.1875 32.953125 -12.875 C 32.890625 -15.140625 32.828125 -17.359375 32.765625 -19.625 C 32.6875 -20.734375 32.4375 -21.703125 31.78125 -22.6875 C 31.453125 -23.140625 31.0625 -23.328125 30.609375 -23.46875 C 30.03125 -23.53125 29.4375 -23.59375 28.921875 -23.53125 C 27.5625 -23.53125 26.1875 -23.40625 24.828125 -23.328125 Z M 24.828125 -23.328125 "/></g></g></g><g fill="#00558a" fill-opacity="1"><g transform="translate(334.757448, 252.066334)"><g><path d="M 3.0625 -7.46875 C 2.984375 -6.046875 3.1875 -4.6875 4.09375 -3.515625 C 4.09375 -3.4375 4.15625 -3.375 4.15625 -3.3125 C 4.609375 -2.46875 5.265625 -1.625 6.171875 -1.171875 C 6.3125 -1.109375 6.4375 -0.96875 6.5625 -0.90625 C 6.765625 -0.78125 6.953125 -0.65625 7.15625 -0.578125 C 7.9375 -0.265625 8.703125 -0.0625 9.484375 0.328125 C 10.46875 0.84375 11.5625 1.171875 12.609375 1.5 C 14.046875 2.015625 15.53125 2.015625 17.09375 1.6875 C 17.9375 1.5 18.78125 1.234375 19.625 0.90625 C 21.0625 0.328125 22.296875 -0.515625 23.46875 -1.4375 C 24.5 -2.203125 25.21875 -3.25 25.9375 -4.296875 C 26.453125 -5 26.90625 -5.71875 27.296875 -6.5 C 28.140625 -8.3125 28.671875 -10.203125 28.59375 -12.21875 C 28.53125 -13.65625 28.40625 -15.078125 28.28125 -16.4375 C 28.015625 -18.59375 27.046875 -20.40625 25.421875 -21.84375 C 25.09375 -22.171875 24.703125 -22.484375 24.3125 -22.75 C 23.015625 -23.859375 21.578125 -24.890625 20.078125 -25.734375 C 18.65625 -26.453125 17.15625 -27.171875 15.734375 -27.75 C 15.078125 -28.015625 14.5 -28.34375 13.90625 -28.59375 C 12.9375 -29.125 12.609375 -30.03125 12.15625 -30.9375 C 12.09375 -31.0625 12.09375 -31.203125 12.09375 -31.328125 C 12.03125 -32.3125 12.28125 -33.078125 12.8125 -33.859375 C 13.265625 -34.515625 13.78125 -34.84375 14.5 -34.96875 C 15.34375 -35.09375 16.25 -35.03125 17.15625 -35.03125 C 17.875 -35.03125 18.53125 -34.78125 19.171875 -34.515625 C 19.6875 -34.3125 20.21875 -34.0625 20.734375 -33.9375 C 21.78125 -33.609375 22.8125 -33.40625 23.796875 -34.0625 C 23.859375 -34.0625 23.921875 -34.125 23.984375 -34.125 C 24.703125 -34.515625 25.34375 -35.03125 25.8125 -35.8125 C 26.0625 -36.203125 26.265625 -36.65625 26.453125 -37.109375 C 26.578125 -37.3125 26.65625 -37.5 26.65625 -37.703125 C 26.84375 -38.9375 26.84375 -38.9375 26.390625 -40.109375 C 26.328125 -40.296875 26.265625 -40.4375 26.1875 -40.625 C 26.125 -40.6875 26.0625 -40.8125 26 -40.890625 C 25.609375 -41.28125 25.21875 -41.671875 24.828125 -41.921875 C 23.859375 -42.640625 22.9375 -43.359375 21.90625 -43.875 C 21 -44.328125 20.078125 -44.71875 19.109375 -44.921875 C 17.21875 -45.234375 15.34375 -45.234375 13.453125 -44.921875 C 12.734375 -44.78125 12.03125 -44.59375 11.3125 -44.390625 C 10.859375 -44.265625 10.46875 -44.140625 10.078125 -43.875 C 8.96875 -43.21875 7.9375 -42.4375 7.078125 -41.46875 C 6.375 -40.6875 5.53125 -40.046875 5 -39.1875 C 4.609375 -38.421875 4.09375 -37.765625 3.703125 -36.984375 C 3.125 -35.8125 2.859375 -34.578125 2.53125 -33.28125 C 2.53125 -33.21875 2.53125 -33.15625 2.53125 -33.078125 C 2.53125 -31.984375 2.53125 -30.875 2.59375 -29.765625 C 2.734375 -28.140625 3.125 -26.578125 3.90625 -25.15625 C 4.484375 -24.046875 5.328125 -23.140625 6.171875 -22.359375 C 6.890625 -21.78125 7.671875 -21.25 8.453125 -20.796875 C 9.8125 -19.953125 11.109375 -19.109375 12.484375 -18.328125 C 13.90625 -17.484375 15.28125 -16.640625 16.765625 -16.0625 C 17.421875 -15.796875 17.875 -15.34375 18.328125 -14.890625 C 18.78125 -14.359375 19.109375 -13.71875 19.109375 -13 C 19.109375 -11.640625 18.84375 -10.46875 18 -9.421875 C 17.875 -9.234375 17.8125 -9.09375 17.6875 -9.03125 C 16.828125 -8.515625 15.984375 -8.25 15.078125 -8.453125 C 14.75 -8.515625 14.359375 -8.515625 14.046875 -8.578125 C 13.328125 -8.78125 12.609375 -8.90625 11.890625 -9.09375 C 11.765625 -9.171875 11.640625 -9.234375 11.5625 -9.296875 C 10.65625 -9.875 9.75 -10.53125 8.90625 -11.25 C 8.515625 -11.5625 8 -11.890625 7.46875 -11.890625 C 6.953125 -11.953125 6.4375 -11.953125 5.984375 -11.953125 C 5.78125 -11.890625 5.65625 -11.828125 5.53125 -11.765625 C 4.8125 -11.3125 4.21875 -10.65625 3.703125 -10.015625 C 3.25 -9.359375 2.921875 -8.640625 3.0625 -7.796875 C 3.0625 -7.671875 3.0625 -7.546875 3.0625 -7.46875 Z M 3.0625 -7.46875 "/></g></g></g></svg>