<svg xmlns="http://www.w3.org/2000/svg" xmlns:xlink="http://www.w3.org/1999/xlink" width="500" zoomAndPan="magnify" viewBox="0 0 375 374.999991" height="500" preserveAspectRatio="xMidYMid meet" version="1.0"><defs><clipPath id="65aa8f233e"><path d="M 73.40625 21.109375 L 304.359375 21.109375 L 304.359375 252.0625 L 73.40625 252.0625 Z M 73.40625 21.109375 " clip-rule="nonzero"/></clipPath><clipPath id="5c5f9c5524"><path d="M 188.882812 21.109375 C 125.109375 21.109375 73.40625 72.808594 73.40625 136.585938 C 73.40625 200.359375 125.109375 252.0625 188.882812 252.0625 C 252.660156 252.0625 304.359375 200.359375 304.359375 136.585938 C 304.359375 72.808594 252.660156 21.109375 188.882812 21.109375 Z M 188.882812 21.109375 " clip-rule="nonzero"/></clipPath></defs><path fill="#000000" d="M 225.214844 86.789062 C 204.730469 86.789062 188.109375 101.34375 188.109375 119.292969 C 188.109375 101.34375 171.515625 86.789062 151.015625 86.789062 C 133.847656 86.789062 115.777344 101.144531 114.738281 118.273438 C 113.351562 141.136719 130.046875 162.535156 145.546875 177.425781 C 156.664062 188.097656 169.195312 198.011719 181.960938 206.625 C 182.46875 206.972656 187.359375 210.714844 188.109375 210.292969 C 218.539062 193.246094 262.332031 158.210938 262.332031 119.296875 C 262.328125 101.34375 245.710938 86.789062 225.214844 86.789062 Z M 225.214844 86.789062 " fill-opacity="1" fill-rule="nonzero"/><path fill="#f8f7f6" d="M 187.957031 215.3125 C 185.933594 215.3125 184.109375 214.382812 179.46875 210.976562 L 179.125 210.726562 C 165.546875 201.570312 153.074219 191.566406 142.09375 181.023438 C 119.417969 159.238281 108.539062 138.023438 109.757812 117.96875 C 110.90625 99.039062 130.570312 81.796875 151.011719 81.796875 C 167.023438 81.796875 180.980469 89.808594 188.089844 101.566406 C 190.070312 98.28125 192.621094 95.25 195.691406 92.554688 C 203.613281 85.621094 214.09375 81.800781 225.210938 81.800781 C 225.210938 81.800781 225.210938 81.800781 225.214844 81.800781 C 236.335938 81.800781 246.824219 85.617188 254.746094 92.554688 C 262.855469 99.65625 267.316406 109.15625 267.316406 119.296875 C 267.316406 169.117188 203.367188 207.460938 190.546875 214.644531 C 189.773438 215.078125 188.875 215.3125 187.957031 215.3125 Z M 151.015625 91.777344 C 135.765625 91.777344 120.554688 104.800781 119.71875 118.574219 C 118.433594 139.75 134.933594 160.308594 149.003906 173.828125 C 159.425781 183.832031 171.785156 193.742188 184.753906 202.488281 C 184.863281 202.566406 185.074219 202.714844 185.371094 202.929688 C 186.46875 203.734375 187.269531 204.300781 187.859375 204.695312 C 220.421875 185.921875 257.339844 152.855469 257.339844 119.296875 C 257.339844 112.074219 254.085938 105.242188 248.171875 100.0625 C 242.070312 94.71875 233.917969 91.777344 225.214844 91.777344 C 225.214844 91.777344 225.210938 91.777344 225.210938 91.777344 C 216.511719 91.777344 208.367188 94.71875 202.265625 100.0625 C 196.355469 105.242188 193.097656 112.074219 193.097656 119.296875 C 193.097656 122.050781 190.863281 124.285156 188.109375 124.285156 C 185.351562 124.285156 183.117188 122.050781 183.117188 119.296875 C 183.121094 104.121094 168.714844 91.777344 151.015625 91.777344 Z M 151.015625 91.777344 " fill-opacity="1" fill-rule="nonzero"/><path fill="#000000" d="M 280.625 44.386719 C 229.75 -6.480469 147.269531 -6.480469 96.390625 44.386719 C 49.992188 90.769531 45.902344 163.433594 84.113281 214.445312 C 84.101562 214.445312 84.101562 214.445312 84.101562 214.445312 L 188.488281 369.925781 L 289.917969 218.292969 C 309.5 194.054688 319.101562 164.441406 318.742188 134.921875 C 318.335938 102.105469 305.652344 69.425781 280.625 44.386719 Z M 265.617188 213.625 C 264.164062 215.089844 262.671875 216.488281 261.152344 217.847656 C 237.710938 238.828125 207.367188 247.890625 177.984375 245.066406 C 154.410156 242.78125 131.453125 232.871094 113.105469 215.304688 C 112.53125 214.753906 111.949219 214.191406 111.386719 213.625 C 68.804688 171.03125 68.804688 101.984375 111.386719 59.394531 C 153.976562 16.800781 223.035156 16.800781 265.617188 59.394531 C 286.566406 80.347656 297.195312 107.714844 297.53125 135.175781 C 297.882812 163.527344 287.257812 191.984375 265.617188 213.625 Z M 265.617188 213.625 " fill-opacity="1" fill-rule="nonzero"/><path fill="#f8f7f6" d="M 188.488281 374.917969 C 186.828125 374.917969 185.273438 374.089844 184.347656 372.707031 L 79.957031 217.226562 C 79.945312 217.207031 79.933594 217.191406 79.921875 217.171875 C 60.742188 191.429688 51.375 159.542969 53.546875 127.34375 C 55.746094 94.71875 69.710938 64.003906 92.863281 40.855469 C 118.414062 15.3125 152.378906 1.246094 188.511719 1.246094 C 224.640625 1.246094 258.605469 15.3125 284.15625 40.855469 C 309.238281 65.953125 323.292969 99.339844 323.730469 134.863281 C 324.117188 166.242188 313.539062 196.914062 293.941406 221.25 L 192.636719 372.703125 C 191.710938 374.085938 190.15625 374.914062 188.496094 374.917969 C 188.492188 374.917969 188.492188 374.917969 188.488281 374.917969 Z M 88.425781 211.9375 L 188.480469 360.964844 L 285.773438 215.515625 C 285.855469 215.394531 285.945312 215.273438 286.039062 215.15625 C 304.265625 192.59375 314.109375 164.121094 313.75 134.984375 C 313.34375 102.078125 300.328125 71.15625 277.097656 47.910156 C 253.433594 24.253906 221.972656 11.222656 188.507812 11.222656 C 155.042969 11.222656 123.582031 24.253906 99.917969 47.910156 C 56.132812 91.683594 51.054688 161.988281 88.105469 211.453125 C 88.226562 211.609375 88.332031 211.773438 88.425781 211.9375 Z M 188.480469 250.5625 C 184.832031 250.5625 181.140625 250.382812 177.507812 250.035156 C 151.78125 247.539062 128.320312 236.777344 109.65625 218.910156 C 109.058594 218.339844 108.457031 217.75 107.863281 217.15625 C 63.402344 172.6875 63.402344 100.332031 107.855469 55.867188 C 129.398438 34.324219 158.042969 22.460938 188.507812 22.460938 C 218.96875 22.460938 247.609375 34.324219 269.144531 55.867188 C 290.300781 77.023438 302.152344 105.167969 302.519531 135.117188 C 302.90625 166.113281 291.050781 195.246094 269.144531 217.152344 C 267.742188 218.574219 266.207031 220.023438 264.476562 221.570312 C 243.585938 240.265625 216.597656 250.5625 188.480469 250.5625 Z M 188.507812 32.4375 C 160.707031 32.4375 134.570312 43.265625 114.914062 62.921875 C 74.351562 103.496094 74.351562 169.519531 114.914062 210.097656 C 115.449219 210.632812 116 211.171875 116.550781 211.695312 C 133.585938 228.003906 154.992188 237.828125 178.46875 240.101562 C 181.777344 240.421875 185.148438 240.582031 188.480469 240.582031 C 214.136719 240.582031 238.761719 231.1875 257.824219 214.128906 C 259.40625 212.71875 260.792969 211.40625 262.070312 210.117188 C 282.078125 190.109375 292.894531 163.523438 292.542969 135.238281 C 292.207031 107.910156 281.394531 82.226562 262.089844 62.921875 C 242.4375 43.265625 216.304688 32.4375 188.507812 32.4375 Z M 188.507812 32.4375 " fill-opacity="1" fill-rule="nonzero"/><path fill="#f8f7f6" d="M 270.5 174.355469 C 270.03125 174.355469 269.558594 174.265625 269.101562 174.070312 C 267.292969 173.296875 266.449219 171.203125 267.222656 169.394531 C 267.347656 169.097656 267.523438 168.742188 267.746094 168.292969 C 268.621094 166.53125 270.445312 162.867188 272.621094 154.023438 C 273.089844 152.113281 275.023438 150.941406 276.933594 151.414062 C 278.847656 151.882812 280.015625 153.816406 279.542969 155.726562 C 277.179688 165.335938 275.117188 169.476562 274.125 171.46875 C 273.980469 171.761719 273.859375 171.996094 273.777344 172.1875 C 273.199219 173.542969 271.882812 174.355469 270.5 174.355469 Z M 270.5 174.355469 " fill-opacity="1" fill-rule="nonzero"/><path fill="#f8f7f6" d="M 280.042969 136.328125 C 279.960938 136.328125 279.878906 136.324219 279.792969 136.320312 C 277.828125 136.183594 276.347656 134.484375 276.484375 132.519531 C 279.988281 81.429688 229.453125 61.863281 228.941406 61.671875 C 227.097656 60.980469 226.164062 58.925781 226.855469 57.082031 C 227.546875 55.242188 229.605469 54.308594 231.445312 55 C 232.007812 55.210938 287.457031 76.683594 283.59375 133.007812 C 283.464844 134.890625 281.898438 136.328125 280.042969 136.328125 Z M 280.042969 136.328125 " fill-opacity="1" fill-rule="nonzero"/><path fill="#000000" d="M 144.367188 275.742188 L 166.710938 309.730469 " fill-opacity="1" fill-rule="nonzero"/><path fill="#f8f7f6" d="M 166.714844 313.296875 C 165.554688 313.296875 164.417969 312.730469 163.734375 311.6875 L 141.390625 277.699219 C 140.308594 276.054688 140.765625 273.84375 142.410156 272.765625 C 144.050781 271.683594 146.261719 272.136719 147.34375 273.785156 L 169.691406 307.773438 C 170.773438 309.417969 170.3125 311.628906 168.667969 312.707031 C 168.066406 313.105469 167.386719 313.296875 166.714844 313.296875 Z M 166.714844 313.296875 " fill-opacity="1" fill-rule="nonzero"/><path fill="#000000" d="M 131.367188 254.519531 L 134.148438 258.863281 " fill-opacity="1" fill-rule="nonzero"/><path fill="#f8f7f6" d="M 134.152344 262.425781 C 132.976562 262.425781 131.828125 261.847656 131.148438 260.785156 L 128.367188 256.441406 C 127.304688 254.78125 127.789062 252.578125 129.445312 251.515625 C 131.101562 250.457031 133.304688 250.9375 134.371094 252.59375 L 137.152344 256.941406 C 138.210938 258.597656 137.726562 260.800781 136.070312 261.863281 C 135.476562 262.246094 134.808594 262.425781 134.152344 262.425781 Z M 134.152344 262.425781 " fill-opacity="1" fill-rule="nonzero"/><g clip-path="url(#65aa8f233e)"><g clip-path="url(#5c5f9c5524)"><path fill="#000000" d="M 73.40625 21.109375 L 304.359375 21.109375 L 304.359375 252.0625 L 73.40625 252.0625 Z M 73.40625 21.109375 " fill-opacity="1" fill-rule="nonzero"/></g></g><path fill="#f8f7f6" d="M 279.316406 166.246094 C 277.472656 150.296875 274.886719 134.425781 272.5625 118.53125 C 272.308594 116.726562 271.972656 114.933594 271.558594 113.152344 C 271.144531 111.375 270.648438 109.621094 270.078125 107.886719 C 269.503906 106.152344 268.855469 104.449219 268.128906 102.773438 C 267.402344 101.097656 266.605469 99.457031 265.730469 97.855469 C 264.859375 96.25 263.917969 94.691406 262.902344 93.171875 C 261.890625 91.652344 260.8125 90.183594 259.664062 88.761719 C 258.519531 87.339844 257.3125 85.972656 256.046875 84.65625 C 254.777344 83.34375 253.453125 82.089844 252.074219 80.894531 C 250.695312 79.699219 249.261719 78.570312 247.78125 77.503906 C 246.296875 76.4375 244.769531 75.441406 243.199219 74.511719 C 241.628906 73.582031 240.019531 72.722656 238.371094 71.941406 C 236.722656 71.15625 235.039062 70.445312 233.328125 69.8125 C 231.617188 69.179688 229.878906 68.625 228.117188 68.144531 C 226.355469 67.667969 224.574219 67.269531 222.777344 66.953125 C 220.980469 66.632812 219.171875 66.398438 217.351562 66.242188 C 215.53125 66.085938 213.710938 66.011719 211.886719 66.019531 C 203.917969 66.019531 195.953125 66.019531 187.988281 66.019531 C 188.003906 65.59375 188.054688 65.175781 188.132812 64.757812 C 188.699219 62.230469 189.9375 60.097656 191.847656 58.351562 C 192.773438 57.539062 193.804688 56.882812 194.933594 56.386719 C 195.355469 56.183594 195.371094 56.179688 194.972656 56.386719 C 195.414062 56.226562 195.859375 56.082031 196.3125 55.957031 C 196.996094 55.765625 197.675781 55.617188 198.386719 55.480469 C 198.617188 55.464844 198.84375 55.421875 199.066406 55.363281 C 199.308594 55.335938 199.550781 55.304688 199.792969 55.28125 C 200.636719 55.203125 201.496094 55.140625 202.328125 55.089844 C 203.898438 54.992188 205.46875 54.9375 207.042969 54.832031 C 214.242188 54.375 221.59375 52.859375 226.375 46.953125 C 227.53125 45.332031 228.496094 43.605469 229.269531 41.765625 C 230.042969 39.929688 230.601562 38.03125 230.949219 36.070312 C 231.300781 34.105469 231.425781 32.132812 231.335938 30.140625 C 231.242188 28.148438 230.933594 26.195312 230.402344 24.273438 C 230.28125 23.84375 230.117188 23.429688 229.914062 23.03125 C 229.714844 22.632812 229.472656 22.257812 229.199219 21.910156 C 228.921875 21.558594 228.617188 21.234375 228.277344 20.945312 C 227.9375 20.652344 227.578125 20.394531 227.1875 20.175781 C 226.800781 19.953125 226.394531 19.773438 225.972656 19.632812 C 225.546875 19.488281 225.113281 19.390625 224.671875 19.332031 C 224.230469 19.273438 223.785156 19.261719 223.339844 19.289062 C 222.894531 19.316406 222.453125 19.390625 222.023438 19.503906 C 221.597656 19.628906 221.183594 19.796875 220.789062 20 C 220.394531 20.207031 220.023438 20.445312 219.671875 20.722656 C 219.324219 21 219.003906 21.308594 218.714844 21.644531 C 218.425781 21.984375 218.167969 22.34375 217.949219 22.734375 C 217.726562 23.121094 217.546875 23.523438 217.40625 23.945312 C 217.261719 24.367188 217.160156 24.800781 217.101562 25.242188 C 217.042969 25.683594 217.023438 26.125 217.050781 26.570312 C 217.078125 27.015625 217.144531 27.453125 217.253906 27.882812 C 217.722656 30.558594 217.683594 33.226562 217.132812 35.886719 C 216.898438 36.8125 216.46875 37.632812 215.84375 38.355469 C 215.21875 39.074219 214.460938 39.613281 213.578125 39.972656 C 213.511719 39.945312 212.019531 40.492188 211.808594 40.546875 C 211.242188 40.6875 210.675781 40.792969 210.101562 40.886719 C 210.128906 40.863281 208.671875 41.066406 208.457031 41.085938 C 207.625 41.152344 206.785156 41.203125 205.949219 41.25 C 202.316406 41.371094 198.707031 41.707031 195.113281 42.257812 C 193.261719 42.585938 191.46875 43.117188 189.730469 43.847656 C 187.996094 44.578125 186.363281 45.492188 184.832031 46.585938 C 183.300781 47.679688 181.90625 48.929688 180.652344 50.332031 C 179.398438 51.738281 178.316406 53.261719 177.402344 54.910156 C 175.546875 58.367188 174.570312 62.058594 174.472656 65.984375 C 168.933594 65.984375 163.402344 65.960938 157.871094 66.058594 C 153.9375 66.09375 150.035156 66.449219 146.164062 67.125 C 144.648438 67.410156 143.148438 67.75 141.660156 68.148438 C 140.175781 68.546875 138.703125 69 137.25 69.511719 C 135.800781 70.019531 134.367188 70.585938 132.957031 71.203125 C 131.546875 71.820312 130.164062 72.492188 128.804688 73.21875 C 127.445312 73.941406 126.117188 74.714844 124.816406 75.542969 C 123.515625 76.367188 122.25 77.238281 121.015625 78.160156 C 119.785156 79.082031 118.585938 80.050781 117.425781 81.0625 C 116.265625 82.074219 115.144531 83.128906 114.066406 84.226562 C 112.988281 85.324219 111.949219 86.460938 110.957031 87.636719 C 109.964844 88.8125 109.015625 90.023438 108.113281 91.273438 C 107.214844 92.523438 106.359375 93.800781 105.558594 95.117188 C 104.753906 96.429688 104 97.769531 103.296875 99.140625 C 102.597656 100.511719 101.945312 101.90625 101.351562 103.324219 C 100.753906 104.746094 100.214844 106.183594 99.726562 107.644531 C 99.242188 109.105469 98.8125 110.585938 98.4375 112.078125 C 98.0625 113.570312 97.746094 115.078125 97.484375 116.59375 C 94.933594 132.75 92.730469 148.960938 90.53125 165.167969 C 90.175781 167.457031 90.085938 169.753906 90.257812 172.0625 C 90.425781 174.371094 90.855469 176.632812 91.542969 178.84375 C 92.226562 181.054688 93.152344 183.160156 94.320312 185.160156 C 95.488281 187.160156 96.863281 189.003906 98.449219 190.691406 C 98.890625 191.179688 99.34375 191.652344 99.808594 192.113281 C 100.277344 192.574219 100.757812 193.019531 101.253906 193.449219 C 101.75 193.878906 102.257812 194.292969 102.777344 194.691406 C 103.300781 195.089844 103.832031 195.472656 104.378906 195.839844 C 104.921875 196.207031 105.476562 196.554688 106.042969 196.886719 C 106.609375 197.21875 107.1875 197.53125 107.769531 197.828125 C 108.355469 198.125 108.953125 198.402344 109.554688 198.660156 C 110.15625 198.917969 110.765625 199.160156 111.386719 199.382812 C 112.003906 199.601562 112.625 199.804688 113.257812 199.988281 C 113.886719 200.171875 114.523438 200.332031 115.164062 200.476562 C 115.800781 200.621094 116.445312 200.746094 117.09375 200.847656 C 117.742188 200.953125 118.394531 201.035156 119.046875 201.097656 C 119.699219 201.164062 120.355469 201.207031 121.007812 201.230469 C 121.664062 201.25 122.320312 201.253906 122.976562 201.238281 C 123.632812 201.21875 124.289062 201.179688 124.941406 201.125 C 125.59375 201.066406 126.246094 200.988281 126.894531 200.886719 C 127.542969 200.789062 128.1875 200.671875 128.832031 200.535156 C 129.472656 200.394531 130.109375 200.238281 130.738281 200.058594 C 131.371094 199.882812 131.996094 199.683594 132.617188 199.46875 C 133.234375 199.253906 133.847656 199.015625 134.453125 198.761719 C 135.058594 198.507812 135.65625 198.234375 136.242188 197.945312 C 136.832031 197.652344 137.410156 197.34375 137.976562 197.015625 C 138.546875 196.691406 139.105469 196.347656 139.652344 195.984375 C 140.199219 195.625 140.738281 195.246094 141.261719 194.851562 C 141.785156 194.457031 142.296875 194.046875 142.796875 193.621094 C 143.292969 193.191406 143.78125 192.75 144.25 192.296875 C 144.722656 191.839844 145.179688 191.367188 145.621094 190.882812 C 146.066406 190.398438 146.492188 189.902344 146.902344 189.390625 C 147.316406 188.878906 147.710938 188.355469 148.089844 187.820312 C 148.46875 187.285156 148.832031 186.738281 149.175781 186.179688 C 149.523438 185.625 149.851562 185.054688 150.160156 184.476562 C 150.472656 183.898438 150.761719 183.3125 151.039062 182.714844 C 154.421875 175.757812 157.933594 168.867188 161.367188 161.933594 C 161.523438 161.519531 161.789062 161.195312 162.164062 160.960938 C 162.542969 160.722656 162.949219 160.625 163.394531 160.667969 C 177.699219 160.707031 192.007812 160.707031 206.316406 160.667969 C 206.757812 160.617188 207.167969 160.707031 207.550781 160.9375 C 207.929688 161.167969 208.199219 161.488281 208.359375 161.90625 C 211.765625 168.789062 215.269531 175.617188 218.617188 182.527344 C 219.015625 183.414062 219.457031 184.28125 219.9375 185.125 C 220.414062 185.96875 220.933594 186.792969 221.488281 187.589844 C 222.042969 188.386719 222.632812 189.160156 223.257812 189.902344 C 223.882812 190.648438 224.539062 191.363281 225.230469 192.046875 C 225.921875 192.730469 226.644531 193.378906 227.394531 193.996094 C 228.144531 194.613281 228.921875 195.195312 229.726562 195.742188 C 230.527344 196.289062 231.355469 196.796875 232.207031 197.269531 C 233.058594 197.738281 233.925781 198.167969 234.816406 198.558594 C 235.707031 198.949219 236.613281 199.300781 237.535156 199.605469 C 238.457031 199.914062 239.390625 200.179688 240.335938 200.402344 C 241.285156 200.621094 242.238281 200.800781 243.199219 200.933594 C 244.164062 201.070312 245.128906 201.160156 246.101562 201.207031 C 247.070312 201.25 248.042969 201.253906 249.015625 201.210938 C 249.984375 201.167969 250.953125 201.078125 251.914062 200.945312 C 252.878906 200.816406 253.832031 200.640625 254.78125 200.417969 C 255.726562 200.199219 256.660156 199.9375 257.585938 199.632812 C 258.441406 199.359375 259.285156 199.054688 260.117188 198.710938 C 260.949219 198.367188 261.765625 197.988281 262.5625 197.574219 C 263.363281 197.160156 264.140625 196.710938 264.902344 196.230469 C 265.660156 195.75 266.398438 195.234375 267.117188 194.691406 C 267.832031 194.148438 268.523438 193.574219 269.191406 192.96875 C 269.855469 192.363281 270.496094 191.734375 271.109375 191.074219 C 271.722656 190.414062 272.304688 189.730469 272.859375 189.023438 C 273.410156 188.3125 273.933594 187.582031 274.425781 186.828125 C 274.914062 186.074219 275.371094 185.300781 275.796875 184.507812 C 276.222656 183.714844 276.609375 182.902344 276.964844 182.078125 C 277.320312 181.25 277.636719 180.410156 277.921875 179.554688 C 278.203125 178.699219 278.449219 177.835938 278.65625 176.960938 C 278.863281 176.085938 279.035156 175.203125 279.164062 174.3125 C 279.296875 173.421875 279.390625 172.527344 279.445312 171.632812 C 279.503906 170.734375 279.519531 169.835938 279.496094 168.933594 C 279.472656 168.035156 279.414062 167.140625 279.316406 166.246094 Z M 164.53125 120.078125 L 151.058594 120.078125 L 151.058594 133.507812 L 137.679688 133.507812 L 137.679688 120.152344 L 124.054688 120.152344 C 124.054688 115.726562 124.027344 111.582031 124.117188 107.4375 C 124.117188 107.148438 124.992188 106.640625 125.476562 106.628906 C 128.820312 106.5625 132.164062 106.597656 135.507812 106.597656 L 137.550781 106.597656 L 137.550781 93.257812 L 150.988281 93.257812 L 150.988281 106.597656 C 155.101562 106.597656 158.90625 106.660156 162.703125 106.570312 C 164.175781 106.53125 164.621094 106.960938 164.578125 108.449219 C 164.453125 112.246094 164.53125 116.050781 164.53125 120.078125 Z M 225.507812 86.378906 C 226.097656 86.382812 226.679688 86.445312 227.257812 86.5625 C 227.835938 86.683594 228.398438 86.855469 228.941406 87.085938 C 229.484375 87.316406 230 87.597656 230.488281 87.929688 C 230.972656 88.261719 231.425781 88.636719 231.839844 89.058594 C 232.253906 89.476562 232.621094 89.933594 232.945312 90.429688 C 233.265625 90.921875 233.539062 91.441406 233.761719 91.988281 C 233.980469 92.535156 234.144531 93.097656 234.253906 93.679688 C 234.363281 94.257812 234.417969 94.84375 234.410156 95.433594 C 234.40625 96.023438 234.34375 96.605469 234.222656 97.183594 C 234.101562 97.761719 233.925781 98.320312 233.691406 98.863281 C 233.460938 99.40625 233.179688 99.917969 232.847656 100.40625 C 232.511719 100.894531 232.136719 101.34375 231.714844 101.753906 C 231.292969 102.167969 230.835938 102.535156 230.339844 102.855469 C 229.847656 103.179688 229.324219 103.449219 228.777344 103.667969 C 228.230469 103.886719 227.667969 104.050781 227.085938 104.160156 C 226.507812 104.265625 225.921875 104.316406 225.332031 104.308594 C 224.742188 104.300781 224.160156 104.238281 223.582031 104.113281 C 223.003906 103.992188 222.445312 103.8125 221.902344 103.582031 C 221.363281 103.347656 220.847656 103.0625 220.363281 102.730469 C 219.875 102.394531 219.429688 102.015625 219.015625 101.59375 C 218.605469 101.171875 218.238281 100.710938 217.917969 100.21875 C 217.597656 99.722656 217.328125 99.199219 217.113281 98.652344 C 216.894531 98.105469 216.734375 97.539062 216.625 96.960938 C 216.519531 96.378906 216.472656 95.792969 216.480469 95.203125 C 216.488281 94.621094 216.550781 94.039062 216.671875 93.46875 C 216.792969 92.894531 216.96875 92.339844 217.199219 91.804688 C 217.429688 91.265625 217.710938 90.753906 218.039062 90.273438 C 218.371094 89.789062 218.746094 89.34375 219.164062 88.933594 C 219.582031 88.527344 220.035156 88.160156 220.527344 87.839844 C 221.015625 87.523438 221.53125 87.253906 222.074219 87.035156 C 222.617188 86.816406 223.175781 86.652344 223.75 86.546875 C 224.324219 86.4375 224.90625 86.386719 225.492188 86.390625 Z M 207.453125 122.335938 C 206.863281 122.335938 206.28125 122.28125 205.699219 122.167969 C 205.121094 122.054688 204.558594 121.886719 204.015625 121.664062 C 203.46875 121.441406 202.949219 121.167969 202.457031 120.839844 C 201.96875 120.515625 201.511719 120.144531 201.09375 119.730469 C 200.675781 119.316406 200.300781 118.863281 199.972656 118.375 C 199.640625 117.886719 199.363281 117.371094 199.136719 116.824219 C 198.910156 116.28125 198.734375 115.722656 198.617188 115.144531 C 198.5 114.566406 198.441406 113.980469 198.441406 113.390625 C 198.4375 112.800781 198.492188 112.21875 198.605469 111.640625 C 198.71875 111.0625 198.886719 110.5 199.109375 109.953125 C 199.332031 109.410156 199.609375 108.890625 199.933594 108.398438 C 200.261719 107.90625 200.628906 107.453125 201.046875 107.035156 C 201.460938 106.617188 201.914062 106.242188 202.402344 105.914062 C 202.890625 105.582031 203.40625 105.304688 203.953125 105.078125 C 204.496094 104.851562 205.054688 104.675781 205.632812 104.558594 C 206.210938 104.445312 206.796875 104.382812 207.386719 104.382812 C 207.972656 104.378906 208.558594 104.433594 209.136719 104.546875 C 209.714844 104.660156 210.277344 104.828125 210.824219 105.054688 C 211.367188 105.277344 211.886719 105.550781 212.378906 105.878906 C 212.871094 106.203125 213.324219 106.574219 213.742188 106.992188 C 214.160156 107.40625 214.535156 107.859375 214.863281 108.347656 C 215.191406 108.835938 215.46875 109.351562 215.699219 109.898438 C 215.925781 110.441406 216.097656 111 216.214844 111.578125 C 216.332031 112.15625 216.390625 112.742188 216.390625 113.332031 C 216.390625 113.917969 216.328125 114.5 216.210938 115.074219 C 216.097656 115.652344 215.925781 116.210938 215.699219 116.753906 C 215.472656 117.296875 215.199219 117.8125 214.871094 118.300781 C 214.546875 118.789062 214.175781 119.242188 213.761719 119.660156 C 213.347656 120.078125 212.898438 120.449219 212.414062 120.777344 C 211.925781 121.109375 211.410156 121.386719 210.871094 121.617188 C 210.328125 121.847656 209.773438 122.019531 209.195312 122.140625 C 208.621094 122.261719 208.039062 122.328125 207.453125 122.335938 Z M 225.507812 140.339844 C 224.917969 140.34375 224.335938 140.292969 223.753906 140.179688 C 223.175781 140.070312 222.613281 139.902344 222.066406 139.679688 C 221.523438 139.460938 221.003906 139.1875 220.511719 138.863281 C 220.019531 138.539062 219.5625 138.167969 219.144531 137.753906 C 218.722656 137.339844 218.347656 136.890625 218.019531 136.402344 C 217.6875 135.914062 217.40625 135.398438 217.179688 134.855469 C 216.949219 134.3125 216.773438 133.753906 216.65625 133.175781 C 216.539062 132.597656 216.476562 132.015625 216.472656 131.425781 C 216.46875 130.835938 216.523438 130.25 216.632812 129.671875 C 216.742188 129.09375 216.910156 128.53125 217.132812 127.984375 C 217.355469 127.4375 217.628906 126.921875 217.953125 126.425781 C 218.277344 125.933594 218.644531 125.480469 219.058594 125.058594 C 219.472656 124.640625 219.925781 124.265625 220.410156 123.933594 C 220.898438 123.605469 221.414062 123.324219 221.957031 123.09375 C 222.5 122.867188 223.0625 122.691406 223.636719 122.574219 C 224.214844 122.453125 224.800781 122.394531 225.390625 122.390625 C 225.976562 122.386719 226.5625 122.4375 227.140625 122.550781 C 227.71875 122.660156 228.28125 122.828125 228.828125 123.050781 C 229.375 123.269531 229.894531 123.542969 230.386719 123.867188 C 230.878906 124.191406 231.332031 124.5625 231.753906 124.976562 C 232.171875 125.390625 232.546875 125.839844 232.878906 126.328125 C 233.210938 126.816406 233.488281 127.332031 233.71875 127.875 C 233.949219 128.417969 234.121094 128.976562 234.242188 129.554688 C 234.359375 130.132812 234.421875 130.714844 234.425781 131.304688 C 234.429688 131.894531 234.375 132.480469 234.265625 133.058594 C 234.152344 133.636719 233.984375 134.199219 233.765625 134.746094 C 233.542969 135.292969 233.269531 135.808594 232.945312 136.300781 C 232.621094 136.792969 232.25 137.25 231.835938 137.671875 C 231.421875 138.089844 230.972656 138.464844 230.484375 138.796875 C 229.996094 139.125 229.480469 139.40625 228.9375 139.636719 C 228.394531 139.863281 227.835938 140.039062 227.257812 140.15625 C 226.679688 140.277344 226.097656 140.335938 225.507812 140.339844 Z M 243.371094 122.335938 C 242.785156 122.328125 242.203125 122.265625 241.628906 122.148438 C 241.050781 122.027344 240.492188 121.855469 239.953125 121.625 C 239.410156 121.398438 238.898438 121.117188 238.410156 120.789062 C 237.925781 120.460938 237.476562 120.085938 237.0625 119.667969 C 236.648438 119.25 236.28125 118.796875 235.957031 118.304688 C 235.632812 117.816406 235.359375 117.296875 235.136719 116.753906 C 234.914062 116.210938 234.75 115.648438 234.636719 115.074219 C 234.523438 114.496094 234.46875 113.914062 234.472656 113.328125 C 234.472656 112.738281 234.53125 112.15625 234.648438 111.582031 C 234.765625 111.003906 234.9375 110.445312 235.160156 109.902344 C 235.386719 109.363281 235.664062 108.847656 235.992188 108.359375 C 236.320312 107.871094 236.691406 107.417969 237.105469 107.003906 C 237.523438 106.589844 237.976562 106.21875 238.464844 105.890625 C 238.953125 105.566406 239.46875 105.289062 240.011719 105.066406 C 240.554688 104.839844 241.113281 104.671875 241.691406 104.554688 C 242.265625 104.441406 242.847656 104.382812 243.433594 104.382812 C 244.023438 104.382812 244.605469 104.4375 245.179688 104.550781 C 245.757812 104.664062 246.316406 104.832031 246.863281 105.058594 C 247.40625 105.28125 247.921875 105.554688 248.410156 105.878906 C 248.902344 106.203125 249.355469 106.574219 249.769531 106.988281 C 250.1875 107.402344 250.558594 107.851562 250.890625 108.339844 C 251.21875 108.828125 251.496094 109.339844 251.722656 109.882812 C 251.949219 110.425781 252.125 110.984375 252.242188 111.558594 C 252.359375 112.132812 252.417969 112.714844 252.421875 113.304688 C 252.425781 113.898438 252.375 114.488281 252.261719 115.070312 C 252.148438 115.65625 251.976562 116.222656 251.753906 116.773438 C 251.527344 117.324219 251.25 117.84375 250.917969 118.339844 C 250.589844 118.835938 250.214844 119.292969 249.792969 119.714844 C 249.371094 120.132812 248.914062 120.507812 248.417969 120.835938 C 247.921875 121.167969 247.398438 121.445312 246.847656 121.667969 C 246.296875 121.894531 245.730469 122.0625 245.148438 122.175781 C 244.5625 122.285156 243.972656 122.339844 243.378906 122.335938 Z M 243.371094 122.335938 " fill-opacity="1" fill-rule="nonzero"/></svg>