<svg xmlns="http://www.w3.org/2000/svg" xmlns:xlink="http://www.w3.org/1999/xlink" width="500" zoomAndPan="magnify" viewBox="0 0 375 374.999991" height="500" preserveAspectRatio="xMidYMid meet" version="1.0"><defs><g/></defs><g fill="#000000" fill-opacity="1"><g transform="translate(37.015953, 195.749987)"><g><path d="M 7.125 -19.078125 C 6.84375 -19.0625 6.578125 -19.0625 6.3125 -19.03125 C 5.765625 -18.953125 5.21875 -18.890625 4.765625 -18.59375 C 4.59375 -18.515625 4.40625 -18.4375 4.234375 -18.328125 C 3.703125 -17.96875 3.15625 -17.625 2.75 -17.078125 C 2.359375 -16.5625 1.984375 -16.0625 1.734375 -15.5 C 1.359375 -14.625 1.171875 -13.703125 1.21875 -12.75 C 1.25 -12.375 1.3125 -11.984375 1.390625 -11.640625 C 1.4375 -11.34375 1.546875 -11.03125 1.6875 -10.734375 C 1.875 -10.328125 2.09375 -9.953125 2.421875 -9.65625 C 2.671875 -9.4375 2.90625 -9.1875 3.1875 -8.96875 C 3.453125 -8.75 3.75 -8.515625 4.046875 -8.3125 C 4.65625 -8 5.25 -7.6875 5.875 -7.421875 C 6.578125 -7.15625 7.203125 -6.71875 7.828125 -6.25 C 8.015625 -6.09375 8.1875 -5.90625 8.296875 -5.65625 C 8.40625 -5.390625 8.421875 -5.109375 8.375 -4.8125 C 8.375 -4.703125 8.34375 -4.625 8.296875 -4.515625 C 8.078125 -4.078125 7.71875 -3.828125 7.3125 -3.671875 C 6.9375 -3.5 6.53125 -3.40625 6.125 -3.5 C 5.59375 -3.640625 5.0625 -3.8125 4.59375 -4.109375 C 4.296875 -4.296875 4.03125 -4.546875 3.71875 -4.765625 C 3.5 -4.921875 3.265625 -5.03125 2.984375 -5.078125 C 2.71875 -5.140625 2.453125 -5.140625 2.234375 -4.921875 C 1.984375 -4.703125 1.734375 -4.484375 1.515625 -4.265625 C 1.359375 -4.125 1.28125 -3.9375 1.21875 -3.71875 C 1.0625 -3.15625 1.0625 -2.609375 1.359375 -2.125 C 1.65625 -1.609375 2.0625 -1.203125 2.578125 -0.875 C 2.6875 -0.78125 2.828125 -0.703125 2.9375 -0.625 C 3.421875 -0.265625 4 -0.03125 4.5625 0.15625 C 4.890625 0.25 5.28125 0.328125 5.625 0.375 C 6.21875 0.46875 6.828125 0.46875 7.421875 0.359375 C 7.71875 0.265625 8.015625 0.25 8.296875 0.140625 C 8.9375 -0.109375 9.515625 -0.515625 10.0625 -0.921875 C 10.5 -1.28125 10.796875 -1.71875 11.125 -2.140625 C 11.796875 -3.078125 12.125 -4.109375 12.203125 -5.21875 C 12.265625 -6.09375 12.125 -6.90625 11.828125 -7.71875 C 11.578125 -8.265625 11.28125 -8.78125 10.796875 -9.15625 C 10.515625 -9.375 10.296875 -9.625 10.03125 -9.84375 C 9.515625 -10.28125 8.921875 -10.578125 8.3125 -10.875 C 8.015625 -11.015625 7.6875 -11.125 7.390625 -11.28125 C 6.765625 -11.609375 6.171875 -11.96875 5.625 -12.390625 C 5.4375 -12.53125 5.28125 -12.71875 5.171875 -12.96875 C 5.03125 -13.234375 5 -13.515625 5.03125 -13.78125 C 5.0625 -13.921875 5.0625 -14.0625 5.140625 -14.171875 C 5.28125 -14.328125 5.359375 -14.484375 5.515625 -14.625 C 5.734375 -14.84375 5.984375 -15 6.3125 -15 C 6.6875 -15.03125 7.0625 -15.03125 7.453125 -15 C 7.90625 -14.953125 8.375 -14.84375 8.78125 -14.546875 C 8.890625 -14.4375 9.03125 -14.359375 9.1875 -14.296875 C 9.515625 -14.21875 9.875 -14.25 10.203125 -14.375 C 10.546875 -14.484375 10.796875 -14.796875 11.03125 -15.09375 C 11.171875 -15.28125 11.3125 -15.46875 11.34375 -15.734375 C 11.390625 -16.0625 11.390625 -16.390625 11.34375 -16.75 C 11.3125 -16.90625 11.203125 -17.078125 11.09375 -17.203125 C 10.765625 -17.59375 10.390625 -17.859375 10 -18.140625 C 9.46875 -18.546875 8.859375 -18.78125 8.203125 -18.921875 C 7.859375 -19.03125 7.5 -19.078125 7.125 -19.078125 Z M 7.125 -19.078125 "/></g></g></g><g fill="#000000" fill-opacity="1"><g transform="translate(52.887339, 195.749987)"><g><path d="M 4.65625 -15.875 C 4.65625 -16.640625 4.671875 -17.15625 4.65625 -17.703125 C 4.65625 -18.046875 4.546875 -18.40625 4.34375 -18.734375 C 4.234375 -18.921875 4.078125 -19.03125 3.890625 -19.03125 C 3.34375 -19.0625 2.796875 -19.0625 2.25 -19.078125 C 2.015625 -19.078125 1.828125 -18.984375 1.71875 -18.78125 C 1.5 -18.453125 1.3125 -18.140625 1.25 -17.75 C 1.203125 -17.375 1.171875 -17.015625 1.171875 -16.640625 C 1.09375 -15.328125 1.109375 -14.03125 1.203125 -12.703125 C 1.25 -11.96875 1.28125 -11.234375 1.28125 -10.5 C 1.28125 -8.9375 1.28125 -7.390625 1.28125 -5.8125 C 1.28125 -5.390625 1.25 -4.921875 1.25 -4.453125 C 1.21875 -3.53125 1.171875 -2.609375 1.140625 -1.65625 C 1.140625 -1.25 1.171875 -0.875 1.359375 -0.515625 C 1.4375 -0.328125 1.578125 -0.140625 1.71875 0 C 1.984375 0.265625 2.359375 0.328125 2.71875 0.328125 C 2.875 0.359375 3.078125 0.328125 3.234375 0.328125 C 3.609375 0.328125 3.921875 0.1875 4.125 -0.140625 C 4.21875 -0.265625 4.296875 -0.375 4.34375 -0.515625 C 4.4375 -0.65625 4.484375 -0.8125 4.484375 -0.953125 C 4.546875 -1.203125 4.546875 -1.46875 4.5625 -1.71875 C 4.59375 -2.25 4.625 -2.765625 4.65625 -3.3125 C 4.671875 -3.921875 4.671875 -4.515625 4.703125 -5.078125 C 4.734375 -6.140625 4.78125 -7.171875 4.8125 -8.203125 C 4.8125 -9.546875 4.8125 -10.84375 4.8125 -12.1875 C 4.78125 -12.828125 4.78125 -13.484375 4.765625 -14.171875 C 4.734375 -14.8125 4.671875 -15.46875 4.65625 -15.875 Z M 4.65625 -15.875 "/></g></g></g><g fill="#000000" fill-opacity="1"><g transform="translate(60.714686, 195.749987)"><g><path d="M 1.03125 -10.203125 C 1.0625 -8.59375 1.0625 -7.015625 1.09375 -5.4375 C 1.09375 -5.28125 1.109375 -5.109375 1.109375 -4.953125 C 1.171875 -4.15625 1.21875 -3.34375 1.28125 -2.5625 C 1.3125 -2.125 1.3125 -1.71875 1.328125 -1.28125 C 1.359375 -1.171875 1.359375 -1.0625 1.390625 -0.953125 C 1.515625 -0.515625 1.828125 -0.21875 2.203125 0 C 2.25 0.046875 2.359375 0.046875 2.421875 0.046875 C 2.671875 0.078125 2.90625 0.078125 3.15625 0.078125 C 3.859375 0.078125 4.5625 0.078125 5.28125 0.046875 C 5.578125 0.046875 5.84375 0.03125 6.125 0.03125 C 6.578125 0 7.046875 0 7.5 -0.046875 C 7.859375 -0.078125 8.1875 -0.078125 8.515625 -0.15625 C 8.8125 -0.21875 9.078125 -0.359375 9.359375 -0.46875 C 10 -0.765625 10.65625 -1.09375 11.203125 -1.609375 C 11.390625 -1.765625 11.609375 -1.9375 11.765625 -2.140625 C 12.234375 -2.75 12.640625 -3.40625 12.9375 -4.109375 C 13.078125 -4.453125 13.234375 -4.8125 13.296875 -5.1875 C 13.296875 -5.328125 13.328125 -5.46875 13.375 -5.625 C 13.546875 -6.3125 13.75 -6.984375 13.8125 -7.6875 C 13.859375 -8.296875 13.890625 -8.921875 13.921875 -9.515625 C 13.953125 -10.546875 13.84375 -11.5625 13.8125 -12.59375 C 13.8125 -12.609375 13.8125 -12.671875 13.8125 -12.71875 C 13.734375 -13.1875 13.671875 -13.625 13.625 -14.078125 C 13.59375 -14.21875 13.546875 -14.375 13.515625 -14.515625 C 13.453125 -14.65625 13.4375 -14.796875 13.375 -14.921875 C 13.234375 -15.28125 13.125 -15.65625 12.96875 -15.984375 C 12.828125 -16.3125 12.640625 -16.609375 12.453125 -16.90625 C 12.1875 -17.34375 11.828125 -17.703125 11.390625 -18 C 10.84375 -18.375 10.21875 -18.59375 9.625 -18.84375 C 9.5625 -18.875 9.484375 -18.875 9.4375 -18.890625 C 9.25 -18.921875 9.046875 -18.984375 8.859375 -19 C 8.53125 -19.0625 8.203125 -19.140625 7.890625 -19.171875 C 7.234375 -19.21875 6.546875 -19.25 5.875 -19.28125 C 5.359375 -19.296875 4.84375 -19.328125 4.328125 -19.28125 C 3.8125 -19.21875 3.265625 -19.171875 2.75 -19.171875 C 2.203125 -19.1875 1.515625 -18.671875 1.40625 -18.109375 C 1.328125 -17.59375 1.171875 -17.09375 1.171875 -16.578125 C 1.140625 -16.125 1.0625 -15.65625 1.0625 -15.203125 C 1.03125 -13.515625 1.03125 -11.859375 1.03125 -10.203125 Z M 5.40625 -9.03125 C 5.40625 -9.703125 5.390625 -10.359375 5.390625 -11.03125 C 5.390625 -11.421875 5.390625 -11.796875 5.390625 -12.1875 C 5.40625 -12.421875 5.40625 -12.703125 5.4375 -12.96875 C 5.46875 -13.234375 5.515625 -13.515625 5.578125 -13.78125 C 5.59375 -13.921875 5.59375 -14.0625 5.625 -14.1875 C 5.6875 -14.40625 5.765625 -14.625 5.8125 -14.8125 C 5.875 -15 6.03125 -15.109375 6.21875 -15.09375 C 6.4375 -15.0625 6.6875 -15.0625 6.90625 -15 C 7.234375 -14.921875 7.5625 -14.796875 7.890625 -14.6875 C 7.9375 -14.6875 8 -14.625 8.015625 -14.59375 C 8.640625 -14.0625 9.1875 -13.484375 9.484375 -12.703125 C 9.734375 -12.015625 9.84375 -11.34375 9.875 -10.625 C 9.890625 -9.484375 9.78125 -8.40625 9.515625 -7.28125 C 9.359375 -6.640625 9.078125 -6.03125 8.671875 -5.515625 C 8.515625 -5.328125 8.34375 -5.1875 8.15625 -5.078125 C 7.609375 -4.8125 7.046875 -4.5625 6.4375 -4.375 C 6.3125 -4.34375 6.171875 -4.34375 6.0625 -4.34375 C 5.703125 -4.40625 5.515625 -4.625 5.484375 -4.953125 C 5.484375 -5.390625 5.484375 -5.84375 5.484375 -6.28125 C 5.46875 -7.203125 5.4375 -8.109375 5.40625 -9.03125 Z M 5.40625 -9.03125 "/></g></g></g><g fill="#000000" fill-opacity="1"><g transform="translate(77.238283, 195.749987)"><g><path d="M 8.3125 -3.40625 C 8.3125 -3.40625 8.3125 -3.421875 8.3125 -3.421875 C 7.96875 -3.421875 7.640625 -3.421875 7.28125 -3.421875 C 7.015625 -3.453125 6.75 -3.453125 6.46875 -3.484375 C 6.140625 -3.53125 5.875 -3.703125 5.84375 -4.078125 C 5.8125 -4.296875 5.765625 -4.546875 5.765625 -4.765625 C 5.734375 -5.4375 5.734375 -6.09375 5.8125 -6.765625 C 5.84375 -7.234375 5.8125 -7.6875 5.921875 -8.15625 C 5.984375 -8.375 6.0625 -8.515625 6.3125 -8.53125 C 6.578125 -8.5625 6.875 -8.625 7.171875 -8.640625 C 7.609375 -8.671875 8.078125 -8.703125 8.53125 -8.75 C 8.59375 -8.75 8.640625 -8.75 8.703125 -8.78125 C 8.9375 -8.78125 9.1875 -8.84375 9.4375 -8.84375 C 9.734375 -8.84375 10 -8.9375 10.25 -9.140625 C 10.578125 -9.375 10.734375 -9.703125 10.734375 -10.140625 C 10.734375 -10.359375 10.734375 -10.546875 10.6875 -10.765625 C 10.625 -10.953125 10.625 -11.140625 10.578125 -11.34375 C 10.46875 -11.859375 10.0625 -12.203125 9.515625 -12.203125 C 8.96875 -12.234375 8.40625 -12.1875 7.828125 -12.234375 C 7.71875 -12.234375 7.609375 -12.234375 7.5 -12.234375 C 7.203125 -12.234375 6.875 -12.203125 6.578125 -12.203125 C 6.46875 -12.203125 6.390625 -12.203125 6.3125 -12.234375 C 6.03125 -12.3125 5.921875 -12.5 5.875 -12.78125 C 5.875 -12.859375 5.875 -12.9375 5.875 -13.015625 C 5.875 -13.375 5.875 -13.734375 5.90625 -14.078125 C 5.90625 -14.375 6.0625 -14.578125 6.359375 -14.625 C 6.578125 -14.6875 6.828125 -14.734375 7.046875 -14.765625 C 7.171875 -14.796875 7.3125 -14.796875 7.421875 -14.8125 C 7.78125 -14.90625 8.125 -14.90625 8.484375 -14.90625 C 9.03125 -14.90625 9.5625 -14.84375 10.09375 -14.984375 C 10.171875 -14.984375 10.21875 -14.984375 10.296875 -14.984375 C 10.578125 -15 10.84375 -14.984375 11.09375 -15.0625 C 11.421875 -15.171875 11.6875 -15.359375 11.9375 -15.578125 C 12.078125 -15.71875 12.15625 -15.84375 12.1875 -16.046875 C 12.3125 -16.75 12.28125 -17.453125 12.125 -18.15625 C 12.078125 -18.453125 11.90625 -18.734375 11.609375 -18.875 C 11.5 -18.921875 11.359375 -18.984375 11.234375 -19 C 11.015625 -19.0625 10.796875 -19.140625 10.578125 -19.140625 C 10.09375 -19.140625 9.59375 -19.140625 9.109375 -19.078125 C 8.265625 -19.03125 7.421875 -19.0625 6.578125 -19.078125 C 5.984375 -19.140625 5.390625 -19.171875 4.78125 -19.1875 C 4.328125 -19.21875 3.859375 -19.21875 3.40625 -19.25 C 3.09375 -19.28125 2.796875 -19.21875 2.5 -19.140625 C 2.28125 -19.0625 2.125 -18.921875 2.015625 -18.734375 C 1.796875 -18.359375 1.6875 -17.9375 1.546875 -17.53125 C 1.5 -17.34375 1.4375 -17.1875 1.4375 -17 C 1.390625 -16.5625 1.328125 -16.15625 1.328125 -15.734375 C 1.359375 -14.296875 1.390625 -12.890625 1.4375 -11.453125 C 1.4375 -11.390625 1.4375 -11.3125 1.4375 -11.234375 C 1.46875 -10.390625 1.546875 -9.515625 1.46875 -8.640625 C 1.40625 -8.234375 1.4375 -7.796875 1.40625 -7.390625 C 1.359375 -6.328125 1.328125 -5.28125 1.28125 -4.21875 C 1.21875 -3.421875 1.203125 -2.640625 1.140625 -1.828125 C 1.09375 -1.3125 1.171875 -0.84375 1.328125 -0.375 C 1.359375 -0.296875 1.390625 -0.25 1.4375 -0.1875 C 1.625 -0.03125 1.84375 0.109375 2.0625 0.265625 C 2.09375 0.265625 2.140625 0.265625 2.171875 0.265625 C 2.75 0.296875 3.3125 0.328125 3.890625 0.328125 C 4.84375 0.296875 5.796875 0.265625 6.765625 0.25 C 7.171875 0.21875 7.578125 0.265625 8.015625 0.25 C 8.625 0.25 9.25 0.21875 9.84375 0.1875 C 10.09375 0.1875 10.296875 0.21875 10.515625 0.21875 C 10.90625 0.21875 11.25 0.21875 11.640625 0.1875 C 11.859375 0.15625 12.046875 0.046875 12.15625 -0.15625 C 12.234375 -0.375 12.34375 -0.59375 12.375 -0.8125 C 12.484375 -1.515625 12.453125 -2.203125 12.15625 -2.875 C 11.96875 -3.3125 11.609375 -3.53125 11.125 -3.5 C 10.203125 -3.484375 9.25 -3.453125 8.3125 -3.40625 Z M 8.3125 -3.40625 "/></g></g></g><g fill="#000000" fill-opacity="1"><g transform="translate(92.892255, 195.749987)"><g/></g></g><g fill="#000000" fill-opacity="1"><g transform="translate(100.176087, 195.749987)"><g><path d="M 14.21875 -9.65625 C 14.21875 -10.28125 14.1875 -10.921875 14.0625 -11.5625 C 14.0625 -11.65625 14.03125 -11.765625 14.03125 -11.875 C 14 -12.265625 13.96875 -12.671875 13.921875 -13.078125 C 13.859375 -13.515625 13.703125 -13.921875 13.59375 -14.359375 C 13.375 -15.09375 13.015625 -15.734375 12.609375 -16.390625 C 12.234375 -17.078125 11.6875 -17.59375 11.0625 -18.03125 C 10.46875 -18.453125 9.78125 -18.625 9.078125 -18.734375 C 8.5625 -18.8125 8.046875 -18.84375 7.5 -18.84375 C 6.6875 -18.875 5.984375 -18.5625 5.28125 -18.21875 C 5.21875 -18.1875 5.1875 -18.15625 5.140625 -18.109375 C 5 -18 4.859375 -17.890625 4.734375 -17.8125 C 4.21875 -17.453125 3.78125 -17.046875 3.421875 -16.53125 C 2.875 -15.71875 2.46875 -14.8125 2.125 -13.890625 C 1.875 -13.21875 1.71875 -12.5 1.515625 -11.796875 C 1.328125 -11.0625 1.3125 -10.328125 1.171875 -9.59375 C 1.09375 -9.078125 1.109375 -8.5625 1.140625 -8.015625 C 1.171875 -7.171875 1.3125 -6.328125 1.46875 -5.484375 C 1.609375 -4.953125 1.71875 -4.40625 1.828125 -3.859375 C 2.015625 -2.96875 2.421875 -2.171875 2.96875 -1.4375 C 3.265625 -1.03125 3.5625 -0.625 4 -0.359375 C 4.453125 -0.046875 4.953125 0.1875 5.4375 0.40625 C 5.84375 0.578125 6.3125 0.625 6.75 0.65625 C 7.203125 0.6875 7.640625 0.6875 8.109375 0.65625 C 8.59375 0.65625 9.078125 0.578125 9.5625 0.375 C 9.84375 0.265625 10.109375 0.15625 10.390625 0.03125 C 10.40625 0 10.46875 -0.03125 10.5 -0.046875 C 10.6875 -0.15625 10.875 -0.15625 11.09375 -0.140625 C 11.203125 -0.109375 11.28125 -0.046875 11.359375 0.046875 C 11.421875 0.15625 11.46875 0.25 11.5625 0.359375 C 11.828125 0.734375 12.09375 1.140625 12.5625 1.359375 C 12.78125 1.5 13.046875 1.5 13.296875 1.5 C 13.484375 1.5 13.59375 1.359375 13.734375 1.25 C 14.171875 0.984375 14.40625 0.546875 14.6875 0.109375 C 14.765625 0 14.8125 -0.140625 14.875 -0.25 C 14.984375 -0.59375 14.953125 -0.953125 14.90625 -1.3125 C 14.90625 -1.515625 14.8125 -1.6875 14.65625 -1.875 C 14.375 -2.171875 14.109375 -2.53125 13.859375 -2.875 C 13.671875 -3.125 13.5625 -3.40625 13.5625 -3.703125 C 13.546875 -4.03125 13.5625 -4.375 13.625 -4.703125 C 13.8125 -5.484375 13.953125 -6.28125 14 -7.0625 C 14.03125 -7.390625 14.0625 -7.71875 14.078125 -8.015625 C 14.140625 -8.5625 14.171875 -9.109375 14.21875 -9.65625 Z M 4.921875 -8.78125 C 4.953125 -9.734375 4.96875 -10.65625 5.171875 -11.578125 C 5.296875 -12.265625 5.4375 -12.9375 5.65625 -13.59375 C 5.765625 -13.890625 5.875 -14.1875 6.140625 -14.40625 C 6.546875 -14.765625 7.046875 -14.953125 7.5625 -14.921875 C 8.078125 -14.921875 8.5625 -14.796875 9.03125 -14.625 C 9.46875 -14.4375 9.765625 -14.078125 9.984375 -13.640625 C 10.28125 -13.046875 10.40625 -12.421875 10.515625 -11.765625 C 10.6875 -10.90625 10.71875 -10 10.71875 -9.140625 C 10.6875 -8.734375 10.578125 -8.34375 10.46875 -7.9375 C 10.390625 -7.71875 10.21875 -7.671875 10.03125 -7.828125 C 9.921875 -7.90625 9.78125 -7.9375 9.65625 -7.96875 C 8.671875 -8.078125 8 -7.390625 7.71875 -6.796875 C 7.53125 -6.390625 7.421875 -5.984375 7.453125 -5.546875 C 7.453125 -5.4375 7.484375 -5.328125 7.5 -5.25 C 7.609375 -4.890625 7.6875 -4.546875 7.90625 -4.234375 C 8.046875 -4.046875 8.046875 -3.78125 7.96875 -3.5625 C 7.90625 -3.421875 7.796875 -3.34375 7.671875 -3.3125 C 7.5625 -3.3125 7.484375 -3.3125 7.375 -3.3125 C 7.0625 -3.375 6.765625 -3.484375 6.5 -3.640625 C 6.09375 -3.828125 5.921875 -4.1875 5.734375 -4.546875 C 5.28125 -5.46875 5.109375 -6.46875 4.96875 -7.484375 C 4.953125 -7.890625 4.953125 -8.34375 4.921875 -8.78125 Z M 4.921875 -8.78125 "/></g></g></g><g fill="#000000" fill-opacity="1"><g transform="translate(118.765044, 195.749987)"><g><path d="M 12.703125 -12.3125 C 12.71875 -12.3125 12.71875 -12.3125 12.71875 -12.3125 C 12.71875 -13.5625 12.71875 -14.796875 12.71875 -16.046875 C 12.71875 -16.46875 12.71875 -16.890625 12.75 -17.3125 C 12.78125 -17.71875 12.640625 -18.046875 12.453125 -18.40625 C 12.3125 -18.59375 12.15625 -18.765625 11.9375 -18.78125 C 11.6875 -18.875 11.453125 -18.921875 11.234375 -18.890625 C 10.921875 -18.875 10.65625 -18.765625 10.390625 -18.671875 C 10.328125 -18.671875 10.28125 -18.625 10.21875 -18.5625 C 9.84375 -18.046875 9.59375 -17.484375 9.546875 -16.828125 C 9.484375 -16.359375 9.46875 -15.90625 9.4375 -15.4375 C 9.359375 -14.484375 9.25 -13.5625 9.1875 -12.609375 C 9.109375 -10.984375 9.078125 -9.375 9 -7.75 C 8.9375 -6.71875 8.8125 -5.734375 8.484375 -4.765625 C 8.34375 -4.296875 8.15625 -3.859375 7.890625 -3.484375 C 7.75 -3.265625 7.5625 -3.125 7.34375 -3.046875 C 6.953125 -2.90625 6.578125 -2.90625 6.203125 -3.015625 C 6.125 -3.046875 6.03125 -3.09375 5.953125 -3.125 C 5.46875 -3.5 5.140625 -4 4.921875 -4.546875 C 4.703125 -5.078125 4.59375 -5.65625 4.5625 -6.21875 C 4.515625 -7.015625 4.484375 -7.828125 4.484375 -8.625 C 4.453125 -9.59375 4.484375 -10.578125 4.484375 -11.5625 C 4.484375 -11.765625 4.515625 -11.984375 4.515625 -12.203125 C 4.546875 -12.5 4.5625 -12.8125 4.5625 -13.109375 C 4.5625 -13.265625 4.5625 -13.40625 4.5625 -13.5625 C 4.59375 -14.546875 4.703125 -15.53125 4.65625 -16.5 C 4.65625 -17 4.59375 -17.484375 4.4375 -17.921875 C 4.34375 -18.109375 4.265625 -18.296875 4.109375 -18.453125 C 3.75 -18.875 2.984375 -18.953125 2.46875 -18.671875 C 2.0625 -18.453125 1.765625 -18.109375 1.6875 -17.640625 C 1.546875 -17.15625 1.4375 -16.671875 1.328125 -16.171875 C 1.3125 -16.09375 1.28125 -15.984375 1.28125 -15.875 C 1.28125 -15.53125 1.25 -15.171875 1.25 -14.8125 C 1.203125 -13.21875 1.171875 -11.640625 1.109375 -10.0625 C 1.09375 -9.140625 1.140625 -8.203125 1.25 -7.3125 C 1.28125 -6.984375 1.3125 -6.65625 1.328125 -6.328125 C 1.359375 -6.03125 1.390625 -5.703125 1.4375 -5.40625 C 1.515625 -4.84375 1.65625 -4.296875 1.796875 -3.75 C 1.9375 -3.3125 2.0625 -2.859375 2.28125 -2.453125 C 2.421875 -2.203125 2.53125 -1.9375 2.640625 -1.6875 C 2.828125 -1.328125 3.046875 -0.953125 3.375 -0.6875 C 3.78125 -0.359375 4.234375 -0.046875 4.765625 0.140625 C 5.078125 0.25 5.46875 0.359375 5.796875 0.484375 C 6.203125 0.65625 6.640625 0.703125 7.0625 0.703125 C 7.53125 0.6875 7.96875 0.65625 8.40625 0.546875 C 8.640625 0.46875 8.890625 0.40625 9.109375 0.359375 C 9.59375 0.1875 10.0625 0 10.40625 -0.375 C 10.46875 -0.4375 10.546875 -0.484375 10.625 -0.578125 C 10.734375 -0.6875 10.875 -0.78125 10.984375 -0.890625 C 11.53125 -1.5 11.796875 -2.234375 12.015625 -2.96875 C 12.375 -4.078125 12.5 -5.25 12.59375 -6.390625 C 12.640625 -7.15625 12.671875 -7.890625 12.671875 -8.640625 C 12.703125 -9.875 12.703125 -11.09375 12.703125 -12.3125 Z M 12.703125 -12.3125 "/></g></g></g><g fill="#000000" fill-opacity="1"><g transform="translate(134.63643, 195.749987)"><g><path d="M 8.3125 -3.40625 C 8.3125 -3.40625 8.3125 -3.421875 8.3125 -3.421875 C 7.96875 -3.421875 7.640625 -3.421875 7.28125 -3.421875 C 7.015625 -3.453125 6.75 -3.453125 6.46875 -3.484375 C 6.140625 -3.53125 5.875 -3.703125 5.84375 -4.078125 C 5.8125 -4.296875 5.765625 -4.546875 5.765625 -4.765625 C 5.734375 -5.4375 5.734375 -6.09375 5.8125 -6.765625 C 5.84375 -7.234375 5.8125 -7.6875 5.921875 -8.15625 C 5.984375 -8.375 6.0625 -8.515625 6.3125 -8.53125 C 6.578125 -8.5625 6.875 -8.625 7.171875 -8.640625 C 7.609375 -8.671875 8.078125 -8.703125 8.53125 -8.75 C 8.59375 -8.75 8.640625 -8.75 8.703125 -8.78125 C 8.9375 -8.78125 9.1875 -8.84375 9.4375 -8.84375 C 9.734375 -8.84375 10 -8.9375 10.25 -9.140625 C 10.578125 -9.375 10.734375 -9.703125 10.734375 -10.140625 C 10.734375 -10.359375 10.734375 -10.546875 10.6875 -10.765625 C 10.625 -10.953125 10.625 -11.140625 10.578125 -11.34375 C 10.46875 -11.859375 10.0625 -12.203125 9.515625 -12.203125 C 8.96875 -12.234375 8.40625 -12.1875 7.828125 -12.234375 C 7.71875 -12.234375 7.609375 -12.234375 7.5 -12.234375 C 7.203125 -12.234375 6.875 -12.203125 6.578125 -12.203125 C 6.46875 -12.203125 6.390625 -12.203125 6.3125 -12.234375 C 6.03125 -12.3125 5.921875 -12.5 5.875 -12.78125 C 5.875 -12.859375 5.875 -12.9375 5.875 -13.015625 C 5.875 -13.375 5.875 -13.734375 5.90625 -14.078125 C 5.90625 -14.375 6.0625 -14.578125 6.359375 -14.625 C 6.578125 -14.6875 6.828125 -14.734375 7.046875 -14.765625 C 7.171875 -14.796875 7.3125 -14.796875 7.421875 -14.8125 C 7.78125 -14.90625 8.125 -14.90625 8.484375 -14.90625 C 9.03125 -14.90625 9.5625 -14.84375 10.09375 -14.984375 C 10.171875 -14.984375 10.21875 -14.984375 10.296875 -14.984375 C 10.578125 -15 10.84375 -14.984375 11.09375 -15.0625 C 11.421875 -15.171875 11.6875 -15.359375 11.9375 -15.578125 C 12.078125 -15.71875 12.15625 -15.84375 12.1875 -16.046875 C 12.3125 -16.75 12.28125 -17.453125 12.125 -18.15625 C 12.078125 -18.453125 11.90625 -18.734375 11.609375 -18.875 C 11.5 -18.921875 11.359375 -18.984375 11.234375 -19 C 11.015625 -19.0625 10.796875 -19.140625 10.578125 -19.140625 C 10.09375 -19.140625 9.59375 -19.140625 9.109375 -19.078125 C 8.265625 -19.03125 7.421875 -19.0625 6.578125 -19.078125 C 5.984375 -19.140625 5.390625 -19.171875 4.78125 -19.1875 C 4.328125 -19.21875 3.859375 -19.21875 3.40625 -19.25 C 3.09375 -19.28125 2.796875 -19.21875 2.5 -19.140625 C 2.28125 -19.0625 2.125 -18.921875 2.015625 -18.734375 C 1.796875 -18.359375 1.6875 -17.9375 1.546875 -17.53125 C 1.5 -17.34375 1.4375 -17.1875 1.4375 -17 C 1.390625 -16.5625 1.328125 -16.15625 1.328125 -15.734375 C 1.359375 -14.296875 1.390625 -12.890625 1.4375 -11.453125 C 1.4375 -11.390625 1.4375 -11.3125 1.4375 -11.234375 C 1.46875 -10.390625 1.546875 -9.515625 1.46875 -8.640625 C 1.40625 -8.234375 1.4375 -7.796875 1.40625 -7.390625 C 1.359375 -6.328125 1.328125 -5.28125 1.28125 -4.21875 C 1.21875 -3.421875 1.203125 -2.640625 1.140625 -1.828125 C 1.09375 -1.3125 1.171875 -0.84375 1.328125 -0.375 C 1.359375 -0.296875 1.390625 -0.25 1.4375 -0.1875 C 1.625 -0.03125 1.84375 0.109375 2.0625 0.265625 C 2.09375 0.265625 2.140625 0.265625 2.171875 0.265625 C 2.75 0.296875 3.3125 0.328125 3.890625 0.328125 C 4.84375 0.296875 5.796875 0.265625 6.765625 0.25 C 7.171875 0.21875 7.578125 0.265625 8.015625 0.25 C 8.625 0.25 9.25 0.21875 9.84375 0.1875 C 10.09375 0.1875 10.296875 0.21875 10.515625 0.21875 C 10.90625 0.21875 11.25 0.21875 11.640625 0.1875 C 11.859375 0.15625 12.046875 0.046875 12.15625 -0.15625 C 12.234375 -0.375 12.34375 -0.59375 12.375 -0.8125 C 12.484375 -1.515625 12.453125 -2.203125 12.15625 -2.875 C 11.96875 -3.3125 11.609375 -3.53125 11.125 -3.5 C 10.203125 -3.484375 9.25 -3.453125 8.3125 -3.40625 Z M 8.3125 -3.40625 "/></g></g></g><g fill="#000000" fill-opacity="1"><g transform="translate(150.290402, 195.749987)"><g><path d="M 1.28125 -3.125 C 1.25 -2.53125 1.328125 -1.953125 1.71875 -1.46875 C 1.71875 -1.4375 1.734375 -1.40625 1.734375 -1.390625 C 1.9375 -1.03125 2.203125 -0.6875 2.578125 -0.484375 C 2.640625 -0.46875 2.6875 -0.40625 2.75 -0.375 C 2.828125 -0.328125 2.90625 -0.265625 2.984375 -0.25 C 3.3125 -0.109375 3.640625 -0.03125 3.96875 0.140625 C 4.375 0.359375 4.84375 0.484375 5.28125 0.625 C 5.875 0.84375 6.5 0.84375 7.15625 0.703125 C 7.5 0.625 7.859375 0.515625 8.203125 0.375 C 8.8125 0.140625 9.328125 -0.21875 9.8125 -0.59375 C 10.25 -0.921875 10.546875 -1.359375 10.84375 -1.796875 C 11.0625 -2.09375 11.25 -2.390625 11.421875 -2.71875 C 11.765625 -3.484375 11.984375 -4.265625 11.96875 -5.109375 C 11.9375 -5.703125 11.875 -6.3125 11.828125 -6.875 C 11.71875 -7.78125 11.3125 -8.53125 10.625 -9.140625 C 10.5 -9.265625 10.328125 -9.40625 10.171875 -9.515625 C 9.625 -9.984375 9.03125 -10.40625 8.40625 -10.765625 C 7.796875 -11.0625 7.171875 -11.359375 6.578125 -11.609375 C 6.3125 -11.71875 6.0625 -11.859375 5.8125 -11.96875 C 5.40625 -12.1875 5.28125 -12.5625 5.078125 -12.9375 C 5.0625 -13 5.0625 -13.046875 5.0625 -13.109375 C 5.03125 -13.515625 5.140625 -13.84375 5.359375 -14.171875 C 5.546875 -14.4375 5.765625 -14.578125 6.0625 -14.625 C 6.421875 -14.6875 6.796875 -14.65625 7.171875 -14.65625 C 7.484375 -14.65625 7.75 -14.546875 8.015625 -14.4375 C 8.234375 -14.359375 8.453125 -14.25 8.671875 -14.1875 C 9.109375 -14.0625 9.546875 -13.96875 9.953125 -14.25 C 9.984375 -14.25 10 -14.28125 10.03125 -14.28125 C 10.328125 -14.4375 10.609375 -14.65625 10.796875 -14.984375 C 10.90625 -15.140625 10.984375 -15.328125 11.0625 -15.53125 C 11.125 -15.609375 11.140625 -15.6875 11.140625 -15.765625 C 11.234375 -16.28125 11.234375 -16.28125 11.03125 -16.78125 C 11.015625 -16.859375 10.984375 -16.90625 10.953125 -17 C 10.921875 -17.015625 10.90625 -17.078125 10.875 -17.09375 C 10.71875 -17.265625 10.546875 -17.421875 10.390625 -17.53125 C 9.984375 -17.828125 9.59375 -18.140625 9.15625 -18.359375 C 8.78125 -18.546875 8.40625 -18.703125 8 -18.78125 C 7.203125 -18.921875 6.421875 -18.921875 5.625 -18.78125 C 5.328125 -18.734375 5.03125 -18.65625 4.734375 -18.5625 C 4.546875 -18.515625 4.375 -18.453125 4.21875 -18.359375 C 3.75 -18.078125 3.3125 -17.75 2.96875 -17.34375 C 2.671875 -17.015625 2.3125 -16.75 2.09375 -16.390625 C 1.9375 -16.0625 1.71875 -15.796875 1.546875 -15.46875 C 1.3125 -14.984375 1.203125 -14.46875 1.0625 -13.921875 C 1.0625 -13.890625 1.0625 -13.859375 1.0625 -13.84375 C 1.0625 -13.375 1.0625 -12.921875 1.09375 -12.453125 C 1.140625 -11.765625 1.3125 -11.125 1.625 -10.515625 C 1.875 -10.0625 2.234375 -9.671875 2.578125 -9.359375 C 2.875 -9.109375 3.203125 -8.890625 3.53125 -8.703125 C 4.109375 -8.34375 4.65625 -8 5.21875 -7.671875 C 5.8125 -7.3125 6.390625 -6.953125 7.015625 -6.71875 C 7.28125 -6.609375 7.484375 -6.421875 7.671875 -6.21875 C 7.859375 -6.015625 8 -5.734375 8 -5.4375 C 8 -4.859375 7.890625 -4.375 7.53125 -3.9375 C 7.484375 -3.859375 7.453125 -3.8125 7.390625 -3.78125 C 7.046875 -3.5625 6.6875 -3.453125 6.3125 -3.53125 C 6.171875 -3.5625 6.015625 -3.5625 5.875 -3.59375 C 5.578125 -3.671875 5.28125 -3.71875 4.96875 -3.8125 C 4.921875 -3.828125 4.859375 -3.859375 4.84375 -3.890625 C 4.453125 -4.125 4.078125 -4.40625 3.71875 -4.703125 C 3.5625 -4.84375 3.34375 -4.96875 3.125 -4.96875 C 2.90625 -5 2.6875 -5 2.5 -5 C 2.421875 -4.96875 2.359375 -4.953125 2.3125 -4.921875 C 2.015625 -4.734375 1.765625 -4.453125 1.546875 -4.1875 C 1.359375 -3.921875 1.21875 -3.609375 1.28125 -3.265625 C 1.28125 -3.203125 1.28125 -3.15625 1.28125 -3.125 Z M 1.28125 -3.125 "/></g></g></g><g fill="#000000" fill-opacity="1"><g transform="translate(166.10743, 195.749987)"><g><path d="M 3.96875 -7.796875 C 3.96875 -7.796875 3.9375 -7.796875 3.9375 -7.796875 C 3.9375 -7.71875 3.9375 -7.640625 3.9375 -7.5625 C 3.921875 -5.90625 3.921875 -4.234375 3.921875 -2.609375 C 3.921875 -2.0625 3.96875 -1.546875 4 -1.03125 C 4.046875 -0.625 4.1875 -0.265625 4.453125 0.03125 C 4.625 0.25 4.84375 0.40625 5.109375 0.40625 C 5.40625 0.40625 5.6875 0.4375 5.953125 0.40625 C 6.390625 0.359375 6.75 0.140625 6.9375 -0.265625 C 7.171875 -0.78125 7.3125 -1.359375 7.3125 -1.9375 C 7.34375 -3.5625 7.34375 -5.21875 7.375 -6.84375 C 7.390625 -8.734375 7.421875 -10.609375 7.453125 -12.453125 C 7.484375 -12.5 7.484375 -12.5625 7.484375 -12.609375 C 7.5 -12.9375 7.5625 -13.296875 7.578125 -13.640625 C 7.609375 -13.921875 7.671875 -14.171875 7.6875 -14.4375 C 7.71875 -14.546875 7.75 -14.65625 7.796875 -14.734375 C 7.90625 -14.921875 8.046875 -15.0625 8.296875 -15.0625 C 8.53125 -15.09375 8.8125 -15.09375 9.046875 -15.109375 C 9.4375 -15.171875 9.84375 -15.21875 10.21875 -15.28125 C 10.328125 -15.3125 10.46875 -15.359375 10.546875 -15.46875 C 10.796875 -15.71875 10.953125 -16.015625 10.921875 -16.390625 C 10.921875 -16.5625 10.921875 -16.71875 10.921875 -16.890625 C 10.953125 -17.234375 10.90625 -17.59375 10.734375 -17.921875 C 10.65625 -18.046875 10.578125 -18.1875 10.46875 -18.265625 C 10.296875 -18.375 10.09375 -18.484375 9.890625 -18.5625 C 9.78125 -18.625 9.671875 -18.65625 9.5625 -18.65625 C 8.859375 -18.671875 8.15625 -18.734375 7.453125 -18.734375 C 6.21875 -18.765625 5 -18.765625 3.78125 -18.765625 C 3.15625 -18.765625 2.53125 -18.78125 1.9375 -18.78125 C 1.84375 -18.78125 1.796875 -18.78125 1.734375 -18.765625 C 1.25 -18.625 0.875 -18.359375 0.765625 -17.828125 C 0.734375 -17.640625 0.6875 -17.453125 0.625 -17.265625 C 0.546875 -16.78125 0.546875 -16.28125 0.65625 -15.828125 C 0.765625 -15.46875 1.140625 -15.171875 1.5 -15.140625 C 2.046875 -15.140625 2.5625 -15.109375 3.078125 -15.109375 C 3.3125 -15.09375 3.484375 -15 3.609375 -14.8125 C 3.71875 -14.65625 3.8125 -14.4375 3.828125 -14.21875 C 3.828125 -13.84375 3.859375 -13.453125 3.859375 -13.078125 C 3.890625 -12.390625 3.921875 -11.6875 3.9375 -10.984375 C 3.96875 -9.921875 3.96875 -8.859375 3.96875 -7.796875 Z M 3.96875 -7.796875 "/></g></g></g><g fill="#000000" fill-opacity="1"><g transform="translate(179.587344, 195.749987)"><g/></g></g><g fill="#000000" fill-opacity="1"><g transform="translate(186.871176, 195.749987)"><g><path d="M 13.546875 -4.765625 C 13.515625 -4.765625 13.515625 -4.765625 13.484375 -4.765625 C 13.484375 -5.40625 13.484375 -6.09375 13.484375 -6.765625 C 13.484375 -7.375 13.484375 -7.96875 13.484375 -8.53125 C 13.484375 -8.84375 13.375 -9.109375 13.15625 -9.296875 C 12.828125 -9.546875 12.484375 -9.734375 12.078125 -9.734375 C 11.609375 -9.703125 11.171875 -9.671875 10.734375 -9.671875 C 10.03125 -9.671875 9.359375 -9.671875 8.671875 -9.625 C 8.515625 -9.59375 8.375 -9.59375 8.234375 -9.5625 C 7.796875 -9.484375 7.5625 -9.265625 7.484375 -8.84375 C 7.453125 -8.75 7.453125 -8.671875 7.453125 -8.625 C 7.453125 -7.96875 7.453125 -7.3125 7.484375 -6.65625 C 7.484375 -6.5 7.5625 -6.390625 7.6875 -6.359375 C 7.828125 -6.328125 7.9375 -6.3125 8.078125 -6.3125 C 8.453125 -6.25 8.859375 -6.21875 9.265625 -6.21875 C 9.484375 -6.203125 9.625 -6.09375 9.703125 -5.90625 C 9.765625 -5.796875 9.78125 -5.65625 9.78125 -5.515625 C 9.8125 -5.359375 9.8125 -5.1875 9.8125 -5.03125 C 9.78125 -4.65625 9.734375 -4.265625 9.484375 -3.9375 C 9.296875 -3.71875 9.078125 -3.53125 8.8125 -3.421875 C 8.109375 -3.1875 7.390625 -3.078125 6.640625 -3.296875 C 6.140625 -3.421875 5.6875 -3.640625 5.390625 -4.109375 C 5.28125 -4.296875 5.140625 -4.484375 5.03125 -4.671875 C 4.921875 -4.859375 4.84375 -5.078125 4.765625 -5.296875 C 4.734375 -5.359375 4.734375 -5.4375 4.734375 -5.484375 C 4.703125 -5.65625 4.671875 -5.8125 4.625 -5.953125 C 4.515625 -6.3125 4.453125 -6.6875 4.453125 -7.046875 C 4.4375 -7.859375 4.4375 -8.640625 4.546875 -9.46875 C 4.625 -10.03125 4.625 -10.625 4.65625 -11.203125 C 4.65625 -11.3125 4.671875 -11.390625 4.671875 -11.5 C 4.765625 -11.875 4.84375 -12.28125 4.953125 -12.671875 C 5.109375 -13.21875 5.25 -13.78125 5.578125 -14.25 C 5.90625 -14.765625 6.3125 -15.21875 6.90625 -15.5 C 7.421875 -15.71875 7.9375 -15.875 8.515625 -15.84375 C 8.890625 -15.828125 9.25 -15.71875 9.59375 -15.546875 C 9.625 -15.53125 9.65625 -15.5 9.703125 -15.46875 C 9.921875 -15.25 10.03125 -15 10.0625 -14.6875 C 10.09375 -14.4375 10.140625 -14.171875 10.171875 -13.921875 C 10.203125 -13.640625 10.25 -13.375 10.4375 -13.125 C 10.609375 -12.921875 10.828125 -12.78125 11.125 -12.78125 C 11.578125 -12.828125 12.046875 -12.859375 12.5 -12.921875 C 12.671875 -12.921875 12.8125 -12.9375 12.9375 -13 C 13.109375 -13.046875 13.21875 -13.1875 13.234375 -13.34375 C 13.265625 -13.515625 13.328125 -13.671875 13.328125 -13.84375 C 13.296875 -14.25 13.296875 -14.6875 13.265625 -15.109375 C 13.21875 -15.65625 13.15625 -16.203125 13.015625 -16.75 C 12.921875 -17.265625 12.609375 -17.640625 12.28125 -18.046875 C 12.265625 -18.109375 12.203125 -18.140625 12.15625 -18.15625 C 11.859375 -18.328125 11.5625 -18.484375 11.25 -18.65625 C 11.140625 -18.703125 11.0625 -18.734375 10.953125 -18.78125 C 10.875 -18.78125 10.828125 -18.8125 10.734375 -18.875 C 10.515625 -19.03125 10.25 -19.109375 9.984375 -19.171875 C 9.625 -19.25 9.265625 -19.328125 8.890625 -19.296875 C 8.640625 -19.28125 8.421875 -19.296875 8.203125 -19.296875 C 8.015625 -19.296875 7.859375 -19.296875 7.671875 -19.296875 C 6.953125 -19.25 6.25 -19.0625 5.59375 -18.734375 C 5.140625 -18.484375 4.734375 -18.25 4.265625 -18 C 4.21875 -17.96875 4.1875 -17.921875 4.125 -17.890625 C 3.703125 -17.515625 3.296875 -17.078125 2.90625 -16.640625 C 2.828125 -16.5625 2.765625 -16.453125 2.75 -16.359375 C 2.671875 -16.171875 2.578125 -15.984375 2.453125 -15.828125 C 2.25 -15.578125 2.125 -15.3125 2.0625 -15 C 1.875 -14.296875 1.65625 -13.5625 1.5 -12.828125 C 1.328125 -12.015625 1.21875 -11.171875 1.203125 -10.328125 C 1.171875 -9.46875 1.109375 -8.59375 1.109375 -7.71875 C 1.109375 -7.15625 1.09375 -6.578125 1.171875 -6.015625 C 1.21875 -5.59375 1.28125 -5.1875 1.359375 -4.78125 C 1.390625 -4.515625 1.4375 -4.234375 1.515625 -3.96875 C 1.546875 -3.8125 1.625 -3.640625 1.6875 -3.484375 C 1.796875 -3.015625 2.015625 -2.609375 2.28125 -2.234375 C 2.421875 -2.09375 2.5625 -1.9375 2.671875 -1.796875 C 2.90625 -1.5 3.125 -1.171875 3.40625 -0.890625 C 3.53125 -0.734375 3.703125 -0.578125 3.890625 -0.46875 C 4.15625 -0.296875 4.453125 -0.15625 4.734375 -0.03125 C 4.84375 0.046875 4.96875 0.109375 5.109375 0.140625 C 5.734375 0.265625 6.421875 0.359375 7.0625 0.40625 C 7.5625 0.46875 8.046875 0.328125 8.515625 0.1875 C 8.859375 0.109375 9.21875 -0.03125 9.5625 -0.109375 C 9.703125 -0.15625 9.84375 -0.1875 9.953125 -0.078125 C 10.109375 0.140625 10.328125 0.1875 10.578125 0.15625 C 11.34375 0.15625 12.09375 0.109375 12.828125 0.109375 C 13.015625 0.078125 13.15625 0.03125 13.234375 -0.140625 C 13.375 -0.40625 13.484375 -0.6875 13.484375 -0.984375 C 13.484375 -2.234375 13.515625 -3.484375 13.546875 -4.765625 Z M 13.546875 -4.765625 "/></g></g></g><g fill="#000000" fill-opacity="1"><g transform="translate(203.476301, 195.749987)"><g><path d="M 7.390625 -19.109375 C 7.015625 -19.109375 6.65625 -19.171875 6.3125 -19 C 6.28125 -19 6.21875 -19 6.203125 -19 C 5.6875 -18.890625 5.28125 -18.59375 5.0625 -18.140625 C 4.84375 -17.625 4.703125 -17.078125 4.546875 -16.5625 C 4.4375 -16.125 4.375 -15.6875 4.265625 -15.28125 C 4.078125 -14.546875 3.828125 -13.84375 3.609375 -13.109375 C 3.5 -12.75 3.421875 -12.421875 3.3125 -12.078125 C 3.1875 -11.578125 3.046875 -11.09375 2.90625 -10.578125 C 2.796875 -10.09375 2.671875 -9.59375 2.5625 -9.078125 C 2.34375 -8.265625 2.09375 -7.453125 1.875 -6.609375 C 1.71875 -5.921875 1.578125 -5.25 1.40625 -4.5625 C 1.3125 -4.109375 1.21875 -3.640625 1.09375 -3.1875 C 0.984375 -2.71875 0.8125 -2.25 0.6875 -1.828125 C 0.546875 -1.46875 0.546875 -1.109375 0.578125 -0.765625 C 0.578125 -0.59375 0.625 -0.375 0.8125 -0.296875 C 1.03125 -0.1875 1.25 -0.078125 1.46875 -0.03125 C 2.015625 0.078125 2.5625 0.1875 3.125 0.15625 C 3.421875 0.15625 3.671875 0.109375 3.921875 -0.03125 C 4.03125 -0.078125 4.125 -0.15625 4.234375 -0.25 C 4.59375 -0.46875 4.84375 -0.78125 4.96875 -1.21875 C 5.03125 -1.40625 5.171875 -1.625 5.28125 -1.828125 C 5.40625 -2.015625 5.59375 -2.09375 5.84375 -2.0625 C 6.015625 -2.0625 6.171875 -2.046875 6.3125 -2.046875 C 7.0625 -2.015625 7.828125 -2.015625 8.59375 -1.984375 C 8.671875 -1.984375 8.75 -1.953125 8.84375 -1.953125 C 9.109375 -1.84375 9.265625 -1.625 9.328125 -1.328125 C 9.375 -1.03125 9.484375 -0.734375 9.703125 -0.515625 C 9.875 -0.296875 10.109375 -0.109375 10.328125 0.078125 C 10.328125 0.078125 10.390625 0.078125 10.40625 0.109375 C 11.171875 0.328125 11.96875 0.296875 12.71875 0.078125 C 13.109375 -0.03125 13.484375 -0.1875 13.640625 -0.625 C 13.734375 -0.890625 13.8125 -1.171875 13.78125 -1.4375 C 13.703125 -1.828125 13.59375 -2.171875 13.484375 -2.5625 C 13.328125 -3.15625 13.125 -3.75 12.96875 -4.375 C 12.703125 -5.4375 12.453125 -6.53125 12.1875 -7.578125 C 11.96875 -8.375 11.71875 -9.15625 11.5 -9.953125 C 11.390625 -10.390625 11.28125 -10.828125 11.171875 -11.25 C 11.125 -11.421875 11.0625 -11.5625 11.03125 -11.71875 C 10.875 -12.265625 10.734375 -12.8125 10.578125 -13.34375 C 10.46875 -13.671875 10.328125 -14.03125 10.359375 -14.40625 C 10.359375 -14.4375 10.359375 -14.46875 10.328125 -14.515625 C 10.25 -14.953125 10.140625 -15.390625 10.03125 -15.828125 C 9.953125 -16.171875 9.8125 -16.5 9.78125 -16.828125 C 9.734375 -17.265625 9.59375 -17.703125 9.4375 -18.109375 C 9.40625 -18.1875 9.359375 -18.25 9.296875 -18.328125 C 9.109375 -18.546875 8.859375 -18.734375 8.625 -18.890625 C 8.40625 -19.0625 8.15625 -19.140625 7.90625 -19.109375 C 7.71875 -19.109375 7.5625 -19.109375 7.390625 -19.109375 Z M 7.5625 -6.90625 C 7.28125 -6.9375 7.015625 -6.953125 6.71875 -7.015625 C 6.4375 -7.046875 6.390625 -7.171875 6.46875 -7.453125 C 6.53125 -7.640625 6.609375 -7.828125 6.65625 -8 C 6.6875 -8.109375 6.75 -8.1875 6.75 -8.296875 C 6.828125 -8.921875 7.0625 -9.515625 7.171875 -10.109375 C 7.203125 -10.203125 7.234375 -10.296875 7.265625 -10.359375 C 7.34375 -10.46875 7.421875 -10.46875 7.484375 -10.359375 C 7.5 -10.296875 7.5 -10.25 7.53125 -10.203125 C 7.609375 -9.78125 7.671875 -9.40625 7.75 -9 C 7.828125 -8.671875 7.9375 -8.34375 8.046875 -8.015625 C 8.109375 -7.859375 8.15625 -7.71875 8.1875 -7.5625 C 8.265625 -7.15625 8.046875 -6.90625 7.640625 -6.90625 C 7.609375 -6.90625 7.578125 -6.90625 7.5625 -6.90625 Z M 7.5625 -6.90625 "/></g></g></g><g fill="#000000" fill-opacity="1"><g transform="translate(220.434715, 195.749987)"><g><path d="M 3.96875 -7.796875 C 3.96875 -7.796875 3.9375 -7.796875 3.9375 -7.796875 C 3.9375 -7.71875 3.9375 -7.640625 3.9375 -7.5625 C 3.921875 -5.90625 3.921875 -4.234375 3.921875 -2.609375 C 3.921875 -2.0625 3.96875 -1.546875 4 -1.03125 C 4.046875 -0.625 4.1875 -0.265625 4.453125 0.03125 C 4.625 0.25 4.84375 0.40625 5.109375 0.40625 C 5.40625 0.40625 5.6875 0.4375 5.953125 0.40625 C 6.390625 0.359375 6.75 0.140625 6.9375 -0.265625 C 7.171875 -0.78125 7.3125 -1.359375 7.3125 -1.9375 C 7.34375 -3.5625 7.34375 -5.21875 7.375 -6.84375 C 7.390625 -8.734375 7.421875 -10.609375 7.453125 -12.453125 C 7.484375 -12.5 7.484375 -12.5625 7.484375 -12.609375 C 7.5 -12.9375 7.5625 -13.296875 7.578125 -13.640625 C 7.609375 -13.921875 7.671875 -14.171875 7.6875 -14.4375 C 7.71875 -14.546875 7.75 -14.65625 7.796875 -14.734375 C 7.90625 -14.921875 8.046875 -15.0625 8.296875 -15.0625 C 8.53125 -15.09375 8.8125 -15.09375 9.046875 -15.109375 C 9.4375 -15.171875 9.84375 -15.21875 10.21875 -15.28125 C 10.328125 -15.3125 10.46875 -15.359375 10.546875 -15.46875 C 10.796875 -15.71875 10.953125 -16.015625 10.921875 -16.390625 C 10.921875 -16.5625 10.921875 -16.71875 10.921875 -16.890625 C 10.953125 -17.234375 10.90625 -17.59375 10.734375 -17.921875 C 10.65625 -18.046875 10.578125 -18.1875 10.46875 -18.265625 C 10.296875 -18.375 10.09375 -18.484375 9.890625 -18.5625 C 9.78125 -18.625 9.671875 -18.65625 9.5625 -18.65625 C 8.859375 -18.671875 8.15625 -18.734375 7.453125 -18.734375 C 6.21875 -18.765625 5 -18.765625 3.78125 -18.765625 C 3.15625 -18.765625 2.53125 -18.78125 1.9375 -18.78125 C 1.84375 -18.78125 1.796875 -18.78125 1.734375 -18.765625 C 1.25 -18.625 0.875 -18.359375 0.765625 -17.828125 C 0.734375 -17.640625 0.6875 -17.453125 0.625 -17.265625 C 0.546875 -16.78125 0.546875 -16.28125 0.65625 -15.828125 C 0.765625 -15.46875 1.140625 -15.171875 1.5 -15.140625 C 2.046875 -15.140625 2.5625 -15.109375 3.078125 -15.109375 C 3.3125 -15.09375 3.484375 -15 3.609375 -14.8125 C 3.71875 -14.65625 3.8125 -14.4375 3.828125 -14.21875 C 3.828125 -13.84375 3.859375 -13.453125 3.859375 -13.078125 C 3.890625 -12.390625 3.921875 -11.6875 3.9375 -10.984375 C 3.96875 -9.921875 3.96875 -8.859375 3.96875 -7.796875 Z M 3.96875 -7.796875 "/></g></g></g><g fill="#000000" fill-opacity="1"><g transform="translate(233.91463, 195.749987)"><g><path d="M 12.75 -9.328125 C 12.75 -9.328125 12.78125 -9.328125 12.78125 -9.328125 C 12.75 -9.8125 12.75 -10.296875 12.71875 -10.765625 C 12.703125 -12.3125 12.640625 -13.84375 12.609375 -15.359375 C 12.59375 -16.203125 12.5625 -17.046875 12.5625 -17.921875 C 12.5625 -18.15625 12.5 -18.359375 12.390625 -18.5625 C 12.15625 -19.078125 11.71875 -19.25 11.203125 -19.296875 C 10.6875 -19.328125 10.203125 -19.21875 9.671875 -19.109375 C 9.375 -19.03125 9.109375 -18.765625 9.078125 -18.4375 C 9.046875 -18.109375 9.03125 -17.78125 9 -17.453125 C 9 -16.046875 9 -14.625 9 -13.21875 C 9 -13.078125 9 -12.921875 9 -12.78125 C 8.96875 -12.453125 8.78125 -12.234375 8.453125 -12.203125 C 8.15625 -12.15625 7.859375 -12.09375 7.5625 -12.09375 C 6.828125 -12.078125 6.125 -12.046875 5.40625 -12.125 C 5.03125 -12.15625 4.78125 -12.453125 4.78125 -12.8125 C 4.78125 -13.546875 4.84375 -14.296875 4.859375 -15.0625 C 4.890625 -16.171875 4.859375 -17.296875 4.859375 -18.40625 C 4.859375 -18.59375 4.78125 -18.703125 4.65625 -18.8125 C 4.484375 -18.921875 4.265625 -19 4.046875 -19.03125 C 3.78125 -19.03125 3.5 -19 3.265625 -19.109375 C 3.234375 -19.109375 3.1875 -19.109375 3.15625 -19.109375 C 2.796875 -19.109375 2.453125 -19.078125 2.09375 -19 C 1.765625 -18.921875 1.578125 -18.765625 1.4375 -18.453125 C 1.28125 -18.046875 1.171875 -17.625 1.171875 -17.1875 C 1.140625 -16.3125 1.109375 -15.4375 1.109375 -14.578125 C 1.09375 -13.078125 1.09375 -11.578125 1.09375 -10.109375 C 1.09375 -9.265625 1.109375 -8.40625 1.140625 -7.5625 C 1.171875 -6.359375 1.203125 -5.171875 1.171875 -4 C 1.171875 -2.828125 1.109375 -1.6875 1.09375 -0.546875 C 1.09375 -0.21875 1.21875 0.046875 1.46875 0.25 C 1.765625 0.46875 2.09375 0.59375 2.46875 0.578125 C 2.984375 0.578125 3.5 0.484375 4.03125 0.46875 C 4.21875 0.4375 4.328125 0.328125 4.40625 0.15625 C 4.546875 -0.140625 4.65625 -0.46875 4.671875 -0.8125 C 4.703125 -1.328125 4.734375 -1.875 4.734375 -2.421875 C 4.734375 -3.53125 4.765625 -4.65625 4.765625 -5.765625 C 4.765625 -6.28125 4.734375 -6.828125 4.734375 -7.34375 C 4.734375 -7.640625 4.84375 -7.890625 5.03125 -8.109375 C 5.078125 -8.15625 5.171875 -8.234375 5.25 -8.234375 C 5.578125 -8.3125 5.90625 -8.40625 6.21875 -8.421875 C 6.90625 -8.453125 7.5625 -8.453125 8.234375 -8.484375 C 8.53125 -8.484375 8.734375 -8.34375 8.859375 -8.078125 C 9 -7.796875 9.078125 -7.53125 9.046875 -7.203125 C 9.046875 -6.65625 9.046875 -6.09375 9.078125 -5.546875 C 9.109375 -4.078125 9.140625 -2.578125 9.21875 -1.109375 C 9.25 -0.8125 9.265625 -0.546875 9.375 -0.265625 C 9.46875 0 9.65625 0.25 9.984375 0.265625 C 10.765625 0.328125 11.5625 0.4375 12.34375 0.328125 C 12.53125 0.328125 12.640625 0.25 12.703125 0.109375 C 12.828125 -0.140625 12.921875 -0.375 12.921875 -0.65625 C 12.890625 -2.234375 12.859375 -3.8125 12.828125 -5.40625 C 12.8125 -6.71875 12.78125 -8.015625 12.75 -9.328125 Z M 12.75 -9.328125 "/></g></g></g><g fill="#000000" fill-opacity="1"><g transform="translate(249.949061, 195.749987)"><g><path d="M 8.3125 -3.40625 C 8.3125 -3.40625 8.3125 -3.421875 8.3125 -3.421875 C 7.96875 -3.421875 7.640625 -3.421875 7.28125 -3.421875 C 7.015625 -3.453125 6.75 -3.453125 6.46875 -3.484375 C 6.140625 -3.53125 5.875 -3.703125 5.84375 -4.078125 C 5.8125 -4.296875 5.765625 -4.546875 5.765625 -4.765625 C 5.734375 -5.4375 5.734375 -6.09375 5.8125 -6.765625 C 5.84375 -7.234375 5.8125 -7.6875 5.921875 -8.15625 C 5.984375 -8.375 6.0625 -8.515625 6.3125 -8.53125 C 6.578125 -8.5625 6.875 -8.625 7.171875 -8.640625 C 7.609375 -8.671875 8.078125 -8.703125 8.53125 -8.75 C 8.59375 -8.75 8.640625 -8.75 8.703125 -8.78125 C 8.9375 -8.78125 9.1875 -8.84375 9.4375 -8.84375 C 9.734375 -8.84375 10 -8.9375 10.25 -9.140625 C 10.578125 -9.375 10.734375 -9.703125 10.734375 -10.140625 C 10.734375 -10.359375 10.734375 -10.546875 10.6875 -10.765625 C 10.625 -10.953125 10.625 -11.140625 10.578125 -11.34375 C 10.46875 -11.859375 10.0625 -12.203125 9.515625 -12.203125 C 8.96875 -12.234375 8.40625 -12.1875 7.828125 -12.234375 C 7.71875 -12.234375 7.609375 -12.234375 7.5 -12.234375 C 7.203125 -12.234375 6.875 -12.203125 6.578125 -12.203125 C 6.46875 -12.203125 6.390625 -12.203125 6.3125 -12.234375 C 6.03125 -12.3125 5.921875 -12.5 5.875 -12.78125 C 5.875 -12.859375 5.875 -12.9375 5.875 -13.015625 C 5.875 -13.375 5.875 -13.734375 5.90625 -14.078125 C 5.90625 -14.375 6.0625 -14.578125 6.359375 -14.625 C 6.578125 -14.6875 6.828125 -14.734375 7.046875 -14.765625 C 7.171875 -14.796875 7.3125 -14.796875 7.421875 -14.8125 C 7.78125 -14.90625 8.125 -14.90625 8.484375 -14.90625 C 9.03125 -14.90625 9.5625 -14.84375 10.09375 -14.984375 C 10.171875 -14.984375 10.21875 -14.984375 10.296875 -14.984375 C 10.578125 -15 10.84375 -14.984375 11.09375 -15.0625 C 11.421875 -15.171875 11.6875 -15.359375 11.9375 -15.578125 C 12.078125 -15.71875 12.15625 -15.84375 12.1875 -16.046875 C 12.3125 -16.75 12.28125 -17.453125 12.125 -18.15625 C 12.078125 -18.453125 11.90625 -18.734375 11.609375 -18.875 C 11.5 -18.921875 11.359375 -18.984375 11.234375 -19 C 11.015625 -19.0625 10.796875 -19.140625 10.578125 -19.140625 C 10.09375 -19.140625 9.59375 -19.140625 9.109375 -19.078125 C 8.265625 -19.03125 7.421875 -19.0625 6.578125 -19.078125 C 5.984375 -19.140625 5.390625 -19.171875 4.78125 -19.1875 C 4.328125 -19.21875 3.859375 -19.21875 3.40625 -19.25 C 3.09375 -19.28125 2.796875 -19.21875 2.5 -19.140625 C 2.28125 -19.0625 2.125 -18.921875 2.015625 -18.734375 C 1.796875 -18.359375 1.6875 -17.9375 1.546875 -17.53125 C 1.5 -17.34375 1.4375 -17.1875 1.4375 -17 C 1.390625 -16.5625 1.328125 -16.15625 1.328125 -15.734375 C 1.359375 -14.296875 1.390625 -12.890625 1.4375 -11.453125 C 1.4375 -11.390625 1.4375 -11.3125 1.4375 -11.234375 C 1.46875 -10.390625 1.546875 -9.515625 1.46875 -8.640625 C 1.40625 -8.234375 1.4375 -7.796875 1.40625 -7.390625 C 1.359375 -6.328125 1.328125 -5.28125 1.28125 -4.21875 C 1.21875 -3.421875 1.203125 -2.640625 1.140625 -1.828125 C 1.09375 -1.3125 1.171875 -0.84375 1.328125 -0.375 C 1.359375 -0.296875 1.390625 -0.25 1.4375 -0.1875 C 1.625 -0.03125 1.84375 0.109375 2.0625 0.265625 C 2.09375 0.265625 2.140625 0.265625 2.171875 0.265625 C 2.75 0.296875 3.3125 0.328125 3.890625 0.328125 C 4.84375 0.296875 5.796875 0.265625 6.765625 0.25 C 7.171875 0.21875 7.578125 0.265625 8.015625 0.25 C 8.625 0.25 9.25 0.21875 9.84375 0.1875 C 10.09375 0.1875 10.296875 0.21875 10.515625 0.21875 C 10.90625 0.21875 11.25 0.21875 11.640625 0.1875 C 11.859375 0.15625 12.046875 0.046875 12.15625 -0.15625 C 12.234375 -0.375 12.34375 -0.59375 12.375 -0.8125 C 12.484375 -1.515625 12.453125 -2.203125 12.15625 -2.875 C 11.96875 -3.3125 11.609375 -3.53125 11.125 -3.5 C 10.203125 -3.484375 9.25 -3.453125 8.3125 -3.40625 Z M 8.3125 -3.40625 "/></g></g></g><g fill="#000000" fill-opacity="1"><g transform="translate(265.603021, 195.749987)"><g><path d="M 5.28125 -2.421875 C 5.28125 -2.90625 5.25 -3.40625 5.25 -3.890625 C 5.25 -4.15625 5.296875 -4.4375 5.390625 -4.671875 C 5.4375 -4.84375 5.546875 -4.921875 5.703125 -4.921875 C 5.875 -4.890625 6.0625 -4.921875 6.21875 -4.921875 C 6.609375 -4.96875 6.84375 -4.765625 6.953125 -4.40625 C 7.015625 -4.1875 7.125 -4 7.203125 -3.8125 C 7.234375 -3.71875 7.28125 -3.640625 7.34375 -3.53125 C 7.53125 -3.078125 7.78125 -2.671875 8.015625 -2.25 C 8.203125 -1.953125 8.40625 -1.6875 8.5625 -1.390625 C 8.703125 -1.140625 8.78125 -0.875 8.890625 -0.59375 C 9.03125 -0.296875 9.265625 -0.109375 9.515625 0.046875 C 9.875 0.25 10.28125 0.328125 10.65625 0.375 C 10.90625 0.40625 11.171875 0.375 11.421875 0.375 C 11.5625 0.375 11.71875 0.359375 11.859375 0.359375 C 12.09375 0.359375 12.34375 0.375 12.5625 0.15625 C 12.8125 -0.078125 13.046875 -0.359375 13 -0.734375 C 12.96875 -1.03125 12.9375 -1.3125 12.890625 -1.578125 C 12.828125 -1.828125 12.8125 -2.0625 12.703125 -2.25 C 12.453125 -2.71875 12.265625 -3.1875 12.09375 -3.671875 C 12.078125 -3.703125 12.046875 -3.75 12.046875 -3.8125 C 11.875 -4.1875 11.71875 -4.546875 11.5625 -4.921875 C 11.421875 -5.171875 11.3125 -5.4375 11.171875 -5.703125 C 10.90625 -6.171875 10.984375 -6.6875 11.390625 -7.046875 C 11.46875 -7.125 11.5625 -7.203125 11.609375 -7.28125 C 11.875 -7.6875 12.15625 -8.125 12.28125 -8.625 C 12.53125 -9.359375 12.75 -10.109375 12.78125 -10.90625 C 12.78125 -11.390625 12.78125 -11.859375 12.78125 -12.34375 C 12.78125 -13.625 12.53125 -14.8125 12.078125 -15.984375 C 11.96875 -16.203125 11.90625 -16.421875 11.765625 -16.609375 C 11.234375 -17.484375 10.546875 -18.1875 9.546875 -18.515625 C 9.265625 -18.59375 8.96875 -18.65625 8.671875 -18.65625 C 7.9375 -18.65625 7.171875 -18.625 6.421875 -18.625 C 5.703125 -18.625 5 -18.65625 4.265625 -18.65625 C 4.109375 -18.65625 3.921875 -18.671875 3.71875 -18.65625 C 3.375 -18.65625 3.015625 -18.59375 2.640625 -18.625 C 2.390625 -18.65625 2.140625 -18.5625 1.953125 -18.375 C 1.625 -18.078125 1.46875 -17.703125 1.3125 -17.296875 C 1.3125 -17.265625 1.3125 -17.234375 1.3125 -17.203125 C 1.25 -16.609375 1.171875 -16.015625 1.109375 -15.390625 C 1.09375 -14.6875 1.09375 -13.96875 1.09375 -13.265625 C 1.109375 -12.234375 1.171875 -11.203125 1.203125 -10.171875 C 1.25 -8.78125 1.28125 -7.421875 1.328125 -6.03125 C 1.359375 -4.953125 1.390625 -3.828125 1.40625 -2.75 C 1.4375 -2.0625 1.4375 -1.390625 1.46875 -0.703125 C 1.46875 -0.40625 1.609375 -0.140625 1.796875 0.078125 C 2.125 0.46875 2.5625 0.625 3.046875 0.65625 C 3.3125 0.6875 3.59375 0.6875 3.859375 0.65625 C 4.21875 0.65625 4.515625 0.484375 4.765625 0.265625 C 5.078125 -0.046875 5.28125 -0.4375 5.28125 -0.890625 C 5.28125 -1.40625 5.28125 -1.90625 5.28125 -2.421875 Z M 5.28125 -11.609375 C 5.28125 -12.390625 5.28125 -13.15625 5.28125 -13.921875 C 5.296875 -14.25 5.390625 -14.515625 5.625 -14.703125 C 5.8125 -14.90625 6.09375 -14.984375 6.359375 -15 C 6.53125 -15 6.71875 -15 6.875 -15 C 7.375 -15 7.78125 -14.8125 8.109375 -14.4375 C 8.265625 -14.21875 8.421875 -13.96875 8.53125 -13.703125 C 8.625 -13.4375 8.75 -13.1875 8.78125 -12.890625 C 8.8125 -12.671875 8.84375 -12.453125 8.84375 -12.234375 C 8.84375 -11.640625 8.890625 -11.015625 8.78125 -10.40625 C 8.703125 -10 8.515625 -9.65625 8.265625 -9.359375 C 8.078125 -9.15625 7.890625 -8.96875 7.609375 -8.859375 C 7.3125 -8.703125 6.984375 -8.640625 6.6875 -8.53125 C 6.640625 -8.515625 6.546875 -8.515625 6.5 -8.515625 C 6.3125 -8.515625 6.125 -8.515625 5.953125 -8.515625 C 5.515625 -8.515625 5.25 -8.78125 5.25 -9.21875 C 5.25 -9.375 5.25 -9.546875 5.25 -9.703125 C 5.28125 -10.359375 5.28125 -10.984375 5.296875 -11.609375 C 5.296875 -11.609375 5.296875 -11.609375 5.28125 -11.609375 Z M 5.28125 -11.609375 "/></g></g></g><g fill="#000000" fill-opacity="1"><g transform="translate(282.235313, 195.749987)"><g><path d="M 4.65625 -15.875 C 4.65625 -16.640625 4.671875 -17.15625 4.65625 -17.703125 C 4.65625 -18.046875 4.546875 -18.40625 4.34375 -18.734375 C 4.234375 -18.921875 4.078125 -19.03125 3.890625 -19.03125 C 3.34375 -19.0625 2.796875 -19.0625 2.25 -19.078125 C 2.015625 -19.078125 1.828125 -18.984375 1.71875 -18.78125 C 1.5 -18.453125 1.3125 -18.140625 1.25 -17.75 C 1.203125 -17.375 1.171875 -17.015625 1.171875 -16.640625 C 1.09375 -15.328125 1.109375 -14.03125 1.203125 -12.703125 C 1.25 -11.96875 1.28125 -11.234375 1.28125 -10.5 C 1.28125 -8.9375 1.28125 -7.390625 1.28125 -5.8125 C 1.28125 -5.390625 1.25 -4.921875 1.25 -4.453125 C 1.21875 -3.53125 1.171875 -2.609375 1.140625 -1.65625 C 1.140625 -1.25 1.171875 -0.875 1.359375 -0.515625 C 1.4375 -0.328125 1.578125 -0.140625 1.71875 0 C 1.984375 0.265625 2.359375 0.328125 2.71875 0.328125 C 2.875 0.359375 3.078125 0.328125 3.234375 0.328125 C 3.609375 0.328125 3.921875 0.1875 4.125 -0.140625 C 4.21875 -0.265625 4.296875 -0.375 4.34375 -0.515625 C 4.4375 -0.65625 4.484375 -0.8125 4.484375 -0.953125 C 4.546875 -1.203125 4.546875 -1.46875 4.5625 -1.71875 C 4.59375 -2.25 4.625 -2.765625 4.65625 -3.3125 C 4.671875 -3.921875 4.671875 -4.515625 4.703125 -5.078125 C 4.734375 -6.140625 4.78125 -7.171875 4.8125 -8.203125 C 4.8125 -9.546875 4.8125 -10.84375 4.8125 -12.1875 C 4.78125 -12.828125 4.78125 -13.484375 4.765625 -14.171875 C 4.734375 -14.8125 4.671875 -15.46875 4.65625 -15.875 Z M 4.65625 -15.875 "/></g></g></g><g fill="#000000" fill-opacity="1"><g transform="translate(290.06266, 195.749987)"><g><path d="M 4.859375 -4.59375 C 4.859375 -4.59375 4.84375 -4.59375 4.8125 -4.59375 C 4.8125 -5.703125 4.78125 -6.828125 4.78125 -7.9375 C 4.78125 -8.046875 4.78125 -8.125 4.8125 -8.234375 C 4.84375 -8.40625 4.921875 -8.453125 5.078125 -8.484375 C 5.25 -8.484375 5.359375 -8.40625 5.4375 -8.265625 C 6.03125 -7.34375 6.65625 -6.390625 7.265625 -5.46875 C 7.640625 -4.859375 8.046875 -4.296875 8.375 -3.703125 C 8.640625 -3.265625 8.921875 -2.828125 9.1875 -2.390625 C 9.484375 -1.9375 9.875 -1.515625 10.21875 -1.09375 C 10.4375 -0.84375 10.65625 -0.625 10.875 -0.375 C 11.03125 -0.1875 11.234375 -0.078125 11.453125 0 C 12.09375 0.1875 12.75 0.25 13.375 -0.046875 C 13.515625 -0.140625 13.625 -0.1875 13.671875 -0.359375 C 13.78125 -0.765625 13.859375 -1.171875 13.859375 -1.609375 C 13.859375 -1.9375 13.84375 -2.25 13.84375 -2.609375 C 13.8125 -3.75 13.78125 -4.921875 13.75 -6.0625 C 13.734375 -6.328125 13.734375 -6.578125 13.734375 -6.84375 C 13.671875 -7.78125 13.625 -8.703125 13.59375 -9.65625 C 13.546875 -10.625 13.515625 -11.640625 13.484375 -12.640625 C 13.453125 -12.828125 13.4375 -13.046875 13.4375 -13.234375 C 13.4375 -14.703125 13.40625 -16.171875 13.375 -17.640625 C 13.375 -18.109375 13.1875 -18.515625 12.8125 -18.78125 C 12.34375 -19.109375 11.828125 -19.1875 11.25 -19.171875 C 11.203125 -19.140625 11.140625 -19.140625 11.0625 -19.140625 C 10.71875 -19.171875 10.46875 -19 10.28125 -18.734375 C 10.03125 -18.375 9.875 -17.96875 9.78125 -17.5625 C 9.765625 -17.296875 9.734375 -17.046875 9.734375 -16.78125 C 9.765625 -16.015625 9.78125 -15.28125 9.8125 -14.546875 C 9.84375 -13.96875 9.84375 -13.4375 9.875 -12.890625 C 9.890625 -11.9375 9.953125 -10.984375 9.984375 -10.03125 C 10 -9.84375 9.953125 -9.625 9.84375 -9.46875 C 9.765625 -9.296875 9.65625 -9.25 9.484375 -9.296875 C 9.40625 -9.328125 9.328125 -9.40625 9.296875 -9.46875 C 9.109375 -9.78125 8.921875 -10.109375 8.75 -10.4375 C 8.40625 -11.125 8.046875 -11.765625 7.71875 -12.453125 C 7.5625 -12.75 7.390625 -13.078125 7.234375 -13.40625 C 7.046875 -13.78125 6.84375 -14.171875 6.65625 -14.546875 C 6.421875 -15.0625 6.171875 -15.609375 5.90625 -16.125 C 5.59375 -16.71875 5.28125 -17.3125 4.953125 -17.9375 C 4.78125 -18.296875 4.546875 -18.546875 4.21875 -18.703125 C 3.71875 -18.984375 3.1875 -19.0625 2.640625 -19.109375 C 2.5625 -19.109375 2.5 -19.109375 2.453125 -19.078125 C 2.046875 -19.03125 1.765625 -18.78125 1.578125 -18.40625 C 1.4375 -18.078125 1.3125 -17.71875 1.28125 -17.34375 C 1.25 -17 1.203125 -16.609375 1.171875 -16.265625 C 1.140625 -15.875 1.09375 -15.53125 1.09375 -15.140625 C 1.09375 -13.5625 1.140625 -11.96875 1.140625 -10.390625 C 1.140625 -8.84375 1.140625 -7.28125 1.140625 -5.734375 C 1.140625 -5.578125 1.171875 -5.390625 1.171875 -5.1875 C 1.203125 -4.78125 1.21875 -4.40625 1.21875 -4 C 1.25 -2.96875 1.28125 -1.953125 1.3125 -0.921875 C 1.3125 -0.4375 1.65625 -0.03125 2.140625 0.046875 C 2.578125 0.109375 3.015625 0.1875 3.453125 0.109375 C 3.75 0.03125 4.046875 -0.03125 4.328125 -0.078125 C 4.453125 -0.109375 4.546875 -0.1875 4.59375 -0.296875 C 4.765625 -0.59375 4.859375 -0.921875 4.859375 -1.25 C 4.859375 -2.359375 4.859375 -3.484375 4.859375 -4.59375 Z M 4.859375 -4.59375 "/></g></g></g><g fill="#000000" fill-opacity="1"><g transform="translate(307.102591, 195.749987)"><g><path d="M 10.390625 -9.765625 C 10.03125 -9.734375 9.65625 -9.8125 9.265625 -9.734375 C 8.9375 -9.65625 8.671875 -9.484375 8.453125 -9.265625 C 8.203125 -9.03125 8.078125 -8.734375 8 -8.40625 C 7.890625 -7.9375 7.796875 -7.453125 7.96875 -6.984375 C 8.125 -6.578125 8.375 -6.28125 8.75 -6.140625 C 8.96875 -6.0625 9.21875 -6.03125 9.4375 -6.015625 C 9.734375 -5.953125 9.890625 -5.8125 9.921875 -5.515625 C 9.984375 -5.140625 9.890625 -4.765625 9.78125 -4.375 C 9.765625 -4.328125 9.765625 -4.296875 9.703125 -4.234375 C 9.484375 -3.9375 9.21875 -3.703125 8.8125 -3.640625 C 8.75 -3.609375 8.734375 -3.609375 8.671875 -3.59375 C 8.40625 -3.453125 8.109375 -3.453125 7.796875 -3.421875 C 7.34375 -3.40625 6.875 -3.5 6.421875 -3.609375 C 6.21875 -3.671875 6.0625 -3.78125 5.953125 -3.921875 C 5.6875 -4.21875 5.484375 -4.59375 5.390625 -4.96875 C 5.25 -5.46875 5.140625 -5.921875 5.03125 -6.421875 C 4.96875 -6.578125 4.96875 -6.75 4.96875 -6.90625 C 4.953125 -7.34375 4.953125 -7.796875 4.953125 -8.234375 C 4.953125 -8.296875 4.953125 -8.3125 4.953125 -8.375 C 4.921875 -8.640625 4.921875 -8.921875 4.953125 -9.21875 C 5 -9.65625 5.078125 -10.09375 5.078125 -10.515625 C 5.109375 -11.234375 5.25 -11.9375 5.4375 -12.609375 C 5.6875 -13.484375 6.140625 -14.21875 6.765625 -14.875 C 7.125 -15.21875 7.5625 -15.359375 8 -15.4375 C 8.421875 -15.5 8.890625 -15.46875 9.328125 -15.4375 C 9.5625 -15.4375 9.765625 -15.328125 9.875 -15.109375 C 9.953125 -14.90625 10.03125 -14.6875 10.0625 -14.4375 C 10.09375 -14.21875 10.171875 -14.03125 10.28125 -13.84375 C 10.328125 -13.75 10.390625 -13.640625 10.4375 -13.546875 C 10.578125 -13.328125 10.765625 -13.15625 11.015625 -13.109375 C 11.453125 -12.96875 11.90625 -12.890625 12.375 -12.921875 C 12.828125 -12.96875 13.15625 -13.1875 13.296875 -13.625 C 13.453125 -14 13.5625 -14.40625 13.546875 -14.84375 C 13.515625 -15 13.546875 -15.203125 13.515625 -15.359375 C 13.515625 -15.953125 13.4375 -16.578125 13.15625 -17.15625 C 13.046875 -17.421875 12.9375 -17.703125 12.71875 -17.921875 C 12.609375 -18.03125 12.53125 -18.15625 12.421875 -18.265625 C 12.234375 -18.4375 12.078125 -18.59375 11.875 -18.734375 C 11.609375 -18.890625 11.3125 -19.03125 11.015625 -19.171875 C 10.921875 -19.21875 10.875 -19.21875 10.796875 -19.25 C 10.21875 -19.4375 9.625 -19.578125 9.03125 -19.625 C 8.40625 -19.6875 7.796875 -19.65625 7.203125 -19.4375 C 7.125 -19.40625 7.015625 -19.390625 6.90625 -19.328125 C 6.359375 -19.140625 5.796875 -19 5.296875 -18.703125 C 5.078125 -18.59375 4.921875 -18.484375 4.734375 -18.375 C 4.40625 -18.15625 4.046875 -17.96875 3.75 -17.71875 C 3.1875 -17.265625 2.765625 -16.6875 2.46875 -16.046875 C 1.984375 -14.984375 1.609375 -13.859375 1.390625 -12.703125 C 1.28125 -12.125 1.203125 -11.5625 1.203125 -10.984375 C 1.203125 -10.578125 1.140625 -10.171875 1.140625 -9.765625 C 1.109375 -8.9375 1.09375 -8.109375 1.09375 -7.28125 C 1.09375 -6.71875 1.109375 -6.171875 1.203125 -5.625 C 1.28125 -4.859375 1.40625 -4.078125 1.625 -3.34375 C 1.90625 -2.453125 2.3125 -1.65625 3.015625 -1.0625 C 3.203125 -0.890625 3.375 -0.765625 3.53125 -0.59375 C 4.03125 -0.140625 4.59375 0.1875 5.21875 0.359375 C 5.390625 0.375 5.546875 0.375 5.703125 0.4375 C 6.421875 0.59375 7.09375 0.546875 7.78125 0.328125 C 7.859375 0.296875 7.9375 0.265625 8.015625 0.25 C 8.53125 0.078125 9.03125 -0.03125 9.46875 -0.375 C 9.46875 -0.375 9.484375 -0.375 9.484375 -0.40625 C 9.703125 -0.515625 9.890625 -0.40625 9.921875 -0.1875 C 9.921875 -0.140625 9.890625 -0.03125 9.953125 0 C 10.109375 0.1875 10.28125 0.40625 10.546875 0.4375 C 10.875 0.484375 11.171875 0.515625 11.5 0.578125 C 11.90625 0.625 12.34375 0.578125 12.75 0.546875 C 12.921875 0.546875 13.015625 0.484375 13.125 0.375 C 13.4375 0.109375 13.59375 -0.265625 13.625 -0.65625 C 13.640625 -1.109375 13.640625 -1.578125 13.640625 -2.046875 C 13.640625 -2.3125 13.640625 -2.578125 13.640625 -2.859375 C 13.671875 -2.984375 13.703125 -3.125 13.703125 -3.265625 C 13.734375 -3.96875 13.78125 -4.671875 13.78125 -5.390625 C 13.75 -6.328125 13.734375 -7.265625 13.703125 -8.203125 C 13.671875 -8.671875 13.5625 -9.078125 13.296875 -9.484375 C 13.15625 -9.671875 13 -9.765625 12.8125 -9.8125 C 12.5625 -9.84375 12.3125 -9.875 12.09375 -9.84375 C 11.53125 -9.84375 10.953125 -9.78125 10.390625 -9.765625 Z M 10.390625 -9.765625 "/></g></g></g><g fill="#000000" fill-opacity="1"><g transform="translate(324.006658, 195.749987)"><g><path d="M 1.28125 -3.125 C 1.25 -2.53125 1.328125 -1.953125 1.71875 -1.46875 C 1.71875 -1.4375 1.734375 -1.40625 1.734375 -1.390625 C 1.9375 -1.03125 2.203125 -0.6875 2.578125 -0.484375 C 2.640625 -0.46875 2.6875 -0.40625 2.75 -0.375 C 2.828125 -0.328125 2.90625 -0.265625 2.984375 -0.25 C 3.3125 -0.109375 3.640625 -0.03125 3.96875 0.140625 C 4.375 0.359375 4.84375 0.484375 5.28125 0.625 C 5.875 0.84375 6.5 0.84375 7.15625 0.703125 C 7.5 0.625 7.859375 0.515625 8.203125 0.375 C 8.8125 0.140625 9.328125 -0.21875 9.8125 -0.59375 C 10.25 -0.921875 10.546875 -1.359375 10.84375 -1.796875 C 11.0625 -2.09375 11.25 -2.390625 11.421875 -2.71875 C 11.765625 -3.484375 11.984375 -4.265625 11.96875 -5.109375 C 11.9375 -5.703125 11.875 -6.3125 11.828125 -6.875 C 11.71875 -7.78125 11.3125 -8.53125 10.625 -9.140625 C 10.5 -9.265625 10.328125 -9.40625 10.171875 -9.515625 C 9.625 -9.984375 9.03125 -10.40625 8.40625 -10.765625 C 7.796875 -11.0625 7.171875 -11.359375 6.578125 -11.609375 C 6.3125 -11.71875 6.0625 -11.859375 5.8125 -11.96875 C 5.40625 -12.1875 5.28125 -12.5625 5.078125 -12.9375 C 5.0625 -13 5.0625 -13.046875 5.0625 -13.109375 C 5.03125 -13.515625 5.140625 -13.84375 5.359375 -14.171875 C 5.546875 -14.4375 5.765625 -14.578125 6.0625 -14.625 C 6.421875 -14.6875 6.796875 -14.65625 7.171875 -14.65625 C 7.484375 -14.65625 7.75 -14.546875 8.015625 -14.4375 C 8.234375 -14.359375 8.453125 -14.25 8.671875 -14.1875 C 9.109375 -14.0625 9.546875 -13.96875 9.953125 -14.25 C 9.984375 -14.25 10 -14.28125 10.03125 -14.28125 C 10.328125 -14.4375 10.609375 -14.65625 10.796875 -14.984375 C 10.90625 -15.140625 10.984375 -15.328125 11.0625 -15.53125 C 11.125 -15.609375 11.140625 -15.6875 11.140625 -15.765625 C 11.234375 -16.28125 11.234375 -16.28125 11.03125 -16.78125 C 11.015625 -16.859375 10.984375 -16.90625 10.953125 -17 C 10.921875 -17.015625 10.90625 -17.078125 10.875 -17.09375 C 10.71875 -17.265625 10.546875 -17.421875 10.390625 -17.53125 C 9.984375 -17.828125 9.59375 -18.140625 9.15625 -18.359375 C 8.78125 -18.546875 8.40625 -18.703125 8 -18.78125 C 7.203125 -18.921875 6.421875 -18.921875 5.625 -18.78125 C 5.328125 -18.734375 5.03125 -18.65625 4.734375 -18.5625 C 4.546875 -18.515625 4.375 -18.453125 4.21875 -18.359375 C 3.75 -18.078125 3.3125 -17.75 2.96875 -17.34375 C 2.671875 -17.015625 2.3125 -16.75 2.09375 -16.390625 C 1.9375 -16.0625 1.71875 -15.796875 1.546875 -15.46875 C 1.3125 -14.984375 1.203125 -14.46875 1.0625 -13.921875 C 1.0625 -13.890625 1.0625 -13.859375 1.0625 -13.84375 C 1.0625 -13.375 1.0625 -12.921875 1.09375 -12.453125 C 1.140625 -11.765625 1.3125 -11.125 1.625 -10.515625 C 1.875 -10.0625 2.234375 -9.671875 2.578125 -9.359375 C 2.875 -9.109375 3.203125 -8.890625 3.53125 -8.703125 C 4.109375 -8.34375 4.65625 -8 5.21875 -7.671875 C 5.8125 -7.3125 6.390625 -6.953125 7.015625 -6.71875 C 7.28125 -6.609375 7.484375 -6.421875 7.671875 -6.21875 C 7.859375 -6.015625 8 -5.734375 8 -5.4375 C 8 -4.859375 7.890625 -4.375 7.53125 -3.9375 C 7.484375 -3.859375 7.453125 -3.8125 7.390625 -3.78125 C 7.046875 -3.5625 6.6875 -3.453125 6.3125 -3.53125 C 6.171875 -3.5625 6.015625 -3.5625 5.875 -3.59375 C 5.578125 -3.671875 5.28125 -3.71875 4.96875 -3.8125 C 4.921875 -3.828125 4.859375 -3.859375 4.84375 -3.890625 C 4.453125 -4.125 4.078125 -4.40625 3.71875 -4.703125 C 3.5625 -4.84375 3.34375 -4.96875 3.125 -4.96875 C 2.90625 -5 2.6875 -5 2.5 -5 C 2.421875 -4.96875 2.359375 -4.953125 2.3125 -4.921875 C 2.015625 -4.734375 1.765625 -4.453125 1.546875 -4.1875 C 1.359375 -3.921875 1.21875 -3.609375 1.28125 -3.265625 C 1.28125 -3.203125 1.28125 -3.15625 1.28125 -3.125 Z M 1.28125 -3.125 "/></g></g></g></svg>